<?xml version="1.0" encoding="utf-8"?>
<!-- Generator: Adobe Illustrator 24.0.1, SVG Export Plug-In . SVG Version: 6.00 Build 0)  -->
<svg version="1.1" id="Layer_1" xmlns="http://www.w3.org/2000/svg" xmlns:xlink="http://www.w3.org/1999/xlink" x="0px" y="0px"
	 viewBox="0 0 773 262.4" style="enable-background:new 0 0 773 262.4;" xml:space="preserve">
<style type="text/css">
	.st0{fill:#DA9100;}
	.st1{fill-rule:evenodd;clip-rule:evenodd;fill:#DA9100;}
	.st2{font-family:'Cambria';}
	.st3{font-size:38.33px;}
	.st4{letter-spacing:-2.2;}
</style>
<title>house of L logo</title>
<g id="Layer_2_1_">
	<path class="st0" d="M83,33.2c0.4-0.3,0.9-0.4,1.3-0.1l0.6,0.3c-4.4,3.8-9.3,7-14.6,9.4c-4.4,2-9.2,3-14,3
		c-10,0-14.9-4.1-14.9-12.2c0.1-2.9,0.9-5.8,2.2-8.4c1.8-3.3,4.1-6.3,7-8.8c3.6-3.1,7.7-5.4,12.2-6.9c5.8-1.9,11.9-2.7,18-2.6
		c5.3,0,9.6,1,12.9,2.9s4.8,4.5,4.8,7.7c-0.1,1.5-0.3,3-0.6,4.4c-0.1,1-0.3,2.1-0.6,3.1c0,1.8,1.6,2.6,4.7,2.6
		c3.9-0.1,7.7-1.2,11.1-3.1c4.9-3,9.4-6.5,13.5-10.4c4.4-4,7.2-6,8.3-6c0.7,0,1,0.2,1,0.6c0,0.8-0.7,1.5-2,2.2
		c-2.7,1.8-7.7,5.9-15.2,12.1c-9.3,7.7-19.4,20.9-30.2,39.5c-0.3,0.6-0.1,1.3,0.4,1.6c0.3,0.2,0.6,0.2,0.9,0.1l20.6-4.5
		c0.2,0,0.4-0.2,0.6-0.3l10.5-10.6l5.8-5.6c10-9.6,20.7-18.3,32.1-26c10.4-6.9,19-10.4,25.8-10.4c1.9-0.1,3.8,0.4,5.4,1.5
		c1.3,1,2.1,2.6,2,4.3c0,5.6-3.5,11.5-10.6,17.6c-7,6.1-16.1,11.7-27.1,16.7c-10.9,4.9-22.2,8.8-33.8,11.5c-0.3,0.1-0.5,0.2-0.6,0.4
		c-4.1,5.1-8.5,10.7-13.3,16.9c-4.8,6.3-9,12-12.4,17.1c-3,4.4-5.8,8.9-8.3,13.6c-2,4-3,7.3-3,9.9c0,1.5,0.6,2.9,1.7,3.9
		c1,1,2.3,1.7,3.7,1.7c3.3-0.1,6.6-0.9,9.6-2.4c4-1.9,7.8-4.2,11.4-6.9c4.1-2.9,8.1-6.1,12-9.4l12-10.3v1.2c0,0.3-0.2,0.7-0.4,0.9
		c-5,4.3-9.1,7.9-12.4,10.7s-6.9,5.7-10.7,8.6c-3.4,2.6-7.1,4.8-11,6.6c-3,1.5-6.4,2.3-9.8,2.4c-2.5,0.1-5-0.9-6.8-2.7
		c-1.7-1.9-2.6-4.4-2.5-7c0-13,8.8-29.4,26.3-49.3c0.5-0.5,0.4-1.2,0-1.7c-0.3-0.3-0.7-0.4-1.1-0.3l-18.7,4.1
		c-0.4,0.1-0.7,0.3-0.8,0.6c-1.5,2.5-3.1,4.8-5,7c-3.1,3.9-7.1,8.3-12,13.4c-5.5,5.6-11.4,10.9-17.5,15.7
		c-6.2,4.9-12.8,9.4-19.6,13.3c-7.7,4.6-15.2,6.9-22.6,6.9c-3.7,0-6.1-0.7-7.3-2.1c-1.3-1.6-1.9-3.5-1.8-5.5c0-5.3,3.3-11.3,9.8-18
		s15.7-12.9,27.4-18.7c12.3-5.9,25.3-9.9,38.7-12c0.3,0,0.6-0.2,0.7-0.4l3-3.8c6.6-8.2,11.5-14,14.6-17.4c2.7-2.9,7.7-8.2,15.2-15.7
		c0.5-0.5,0.5-1.2,0-1.7c-0.3-0.3-0.8-0.4-1.2-0.3c-2.4,0.7-4.8,1.1-7.3,1.2c-5.6,0-8.3-2.2-8.3-6.7c0-0.1,0.2-1.4,0.6-3.7
		s0.6-3.5,0.6-3.6c0-4.4-4.2-6.6-12.7-6.6c-8.9,0-16.3,1.5-22,4.4c-5.7,2.9-9.9,6.4-12.4,10.3c-2.5,3.9-3.8,7.4-3.8,10.5
		c-0.1,3,1.1,5.9,3.5,7.9c2.3,1.9,5.6,2.9,9.9,2.9c4.6,0,9.2-0.9,13.5-2.8C74.5,39.4,78.9,36.6,83,33.2z M72.8,71.5
		c0.4-0.5,0.2-1.3-0.3-1.7c-0.3-0.2-0.6-0.2-0.9-0.2C59.1,72,47,76.1,35.7,81.8c-11.1,5.8-19.6,11.8-25.5,18.1s-8.8,11.5-8.8,15.7
		c0,4.3,2.8,6.4,8.3,6.4c4.2,0,9.6-1.5,16.1-4.5s14-8.4,22.5-16.3C56.3,93.8,64.5,83.9,72.8,71.5z M124.3,54
		c-0.4,0.5-0.3,1.3,0.2,1.7c0.3,0.2,0.7,0.3,1.1,0.2c16.5-4.9,29.6-10.1,39.1-15.6c10.2-5.9,17.1-11.2,20.9-15.9
		c3.8-4.8,5.6-8.5,5.6-11.1c0-3.2-1.8-4.8-5.4-4.8c-4.5,0-9.9,1.9-16.1,5.6c-7,4.2-13.5,9-19.6,14.3c-6.8,5.8-12.6,11.2-17.3,16.1
		C129.3,48.1,126.5,51.2,124.3,54L124.3,54z"/>
	<path class="st0" d="M176.7,93v1.3c0,0.3-0.1,0.6-0.3,0.8c-3.7,4.3-7.8,6.4-12.3,6.5h-0.2l-1.3-0.2l-1-0.1c-0.4,0-0.7,0.1-1,0.4
		c-10.7,11-19.9,16.4-27.7,16.4c-3,0-5.7-1.6-7-4.3c-0.7-1.4-1-2.9-1-4.5c0-4.5,2-9,6-13.3c4.1-4.4,9-8,14.5-10.6
		c5.7-2.7,10.6-4.1,14.9-4.1c4.6,0,6.9,2.1,6.9,6.4c0,3.1-1.3,6.6-4,10.6c-0.4,0.6-0.2,1.3,0.4,1.7c0.2,0.1,0.4,0.2,0.6,0.2h0.3
		C168.7,100.1,172.8,97.8,176.7,93z M160.6,82.7c-3.8,0-8.1,2.1-13,6.5c-4.9,4.3-9.3,9-13.2,14.2c-3.9,5.1-5.8,8.3-5.8,9.5
		c0,1.1,0.6,2.1,1.5,2.7c1.1,0.7,2.4,1.1,3.7,1.1c3.6,0,7.9-1.8,13-5.3c5-3.5,9.5-7.8,13.4-12.6c3.9-4.8,5.8-8.7,5.8-11.4
		c0-1.3-0.5-2.5-1.5-3.3C163.2,83.1,161.9,82.6,160.6,82.7z"/>
	<path class="st0" d="M174.3,97.2v-1.1c0-0.3,0.1-0.6,0.4-0.9c5.5-5,11.5-9.3,18-13c0.2-0.1,0.4-0.2,0.6-0.2h5.6
		c0.7,0,1.2,0.5,1.2,1.2c0,0.3-0.1,0.6-0.3,0.8l-20.9,23.8c-3.8,4.3-5.7,6.8-5.7,7.5c0,0.7,0.6,1,1.7,1c3.7,0,9.8-3.3,18.3-9.9
		s17.7-14.6,27.8-24.1c0.2-0.2,0.5-0.3,0.8-0.3h4.9c0.7,0,1.2,0.5,1.2,1.2c0,0.3-0.1,0.6-0.3,0.8l-21.9,25c-0.3,0.3-0.8,1-1.7,1.9
		c-0.7,0.8-1.4,1.7-1.9,2.6c-0.4,0.6-0.6,1.3-0.6,2c0,0.7,0.5,1,1.6,1c2.5,0,7.2-2.3,14.1-6.8c7.3-4.9,14.1-10.5,20.2-16.8v1.2
		c0,0.3-0.1,0.6-0.4,0.9c-6,6.1-12.6,11.5-19.7,16.3c-5,3.3-9.1,5.4-12.1,6.2c-4.4,1.2-7-1.5-5.7-5.9c0.6-2,1.5-3.9,2.7-5.7
		c2.9-4.5,6.1-8.9,9.6-13l1.9-2.2l-3.7,3.3c-8.2,7.3-15.2,13.1-21.2,17.4c-5.9,4.3-10.6,6.4-14,6.5c-2.5,0-3.8-1.5-3.8-4.4
		c0.1-2.2,0.7-4.3,1.7-6.3c1.3-2.5,2.8-4.9,4.5-7.1c1.9-2.4,3.8-4.8,5.9-7.2c2.1-2.3,4.2-4.7,6.4-7.2l-5.1,3l-0.1,0.1
		C180.9,91.6,177.5,94.3,174.3,97.2z"/>
	<path class="st0" d="M235.4,95.2l20.7-17.9c0.1,0,0.1-0.1,0.1-0.1c1.6-1.9,3.1-3.7,4.4-5.4s2.3-2.5,3-2.5c0.5,0,1,0.2,1.5,0.5
		c0.4,0.3,0.7,0.8,0.7,1.4c0,1.1-1.5,2.5-4.5,4.2c-0.6,0.3-0.8,1-0.5,1.6c0,0,0,0.1,0.1,0.1c1.6,2.3,2.9,4.8,4,7.4
		c1,2.9,1.6,6,1.7,9.1v0.2c-0.2,1.7-0.3,3.3-0.6,4.6c-0.1,0.6,0.3,1.3,1,1.4c0,0,0,0,0,0c1.8,0.3,3.7,0.2,5.4-0.4
		c2-0.7,4.8-2.8,8.3-6.4v1.3c0,0.3-0.1,0.6-0.3,0.8c-2.6,3.2-5,5.2-7.2,6c-2.3,0.7-4.7,0.8-7.1,0.1c-0.6-0.1-1.1,0.1-1.4,0.6
		c-1.8,3.4-4.3,6.3-7.5,8.5c-3.5,2.5-7.3,4.4-11.3,5.7c-3.2,1.1-6.6,1.8-10,1.9c-2.3,0.1-4.5-0.4-6.5-1.6c-1.6-0.9-2.5-2.6-2.5-4.4
		c-0.1-1.5,0.5-3,1.5-4.1c1.2-1.1,2.7-1.7,4.3-1.6c1.1,0,2.2,0.3,3,1c0.8,0.6,1.2,1.6,1.2,2.6c0,0.9-0.5,1.8-1.3,2.3
		c-0.8,0.6-1.7,1-2.7,1c-0.8,0-1.5-0.4-2-1.1c-0.4-0.6-1.1-0.7-1.7-0.4c-0.3,0.2-0.5,0.5-0.6,0.9v0.2c0,0.8,0.7,1.6,2.1,2.4
		c1.4,0.9,3.1,1.4,4.8,1.3c3.6,0,7.4-1.5,11.4-4.6c4.1-3.2,7.5-7.1,10-11.6c2.5-4.1,3.9-8.7,4-13.5c0-2.9-0.8-5.7-2.2-8.2
		c-0.3-0.6-1-0.8-1.6-0.5c-0.1,0-0.2,0.1-0.2,0.1L235,97.2v-1.1C235,95.8,235.1,95.4,235.4,95.2z"/>
	<path class="st0" d="M321.9,93v1.2c0,0.3-0.1,0.6-0.4,0.9c-7.4,7.4-14.3,13.1-20.5,17c-6.3,4-12.7,5.9-19.1,5.9
		c-5.7,0-8.5-3.3-8.5-9.8c0-5.4,2.2-10.6,6.1-14.3c4.1-4.1,9-7.3,14.4-9.5c5.5-2.2,10-3.3,13.5-3.3c1.7-0.1,3.3,0.4,4.6,1.4
		c1.1,0.9,1.7,2.2,1.7,3.6c0,2.3-1.3,4.4-3.8,6.4c-3.2,2.2-6.7,3.9-10.5,4.8c-5,1.3-10.1,2-15.2,2.2c-0.3,0-0.6,0.2-0.9,0.4
		c-4.9,5.6-7.4,9.9-7.4,12.9c0,1.1,0.7,2.2,1.7,2.7c1.3,0.8,2.7,1.1,4.2,1.1C292.9,116.6,306.2,108.7,321.9,93z M287.7,95.5
		c-0.4,0.5-0.4,1.3,0.1,1.7c0.2,0.2,0.5,0.3,0.8,0.3c3.9-0.1,7.8-0.8,11.5-2.1c3.3-1.1,6.2-2.8,8.8-5.1c2-2,3-3.5,3-4.8
		c0-2-1.2-3-3.5-3c-3,0-6.6,1.3-10.7,4C294,89.2,290.7,92.2,287.7,95.5z"/>
	<path class="st0" d="M390.8,61.3c-0.3,0.7-0.9,1.1-1.7,1.1l0,0c3.1-7.8,7.3-15.1,12.5-21.7c4.6-5.9,9.9-11.1,15.9-15.6
		c4.9-3.7,10.3-6.7,16-9c5.1-2,9.4-2.9,12.8-2.9c3-0.1,6,1.1,8.1,3.3c2.2,2.4,3.3,5.7,3,9c-0.3,7-2.9,15.2-8.7,25.8
		c-6.4,11.4-14,22.1-22.8,31.9c-8.7,10-18.6,18.9-29.6,26.3c-10.4,6.9-19.9,10.4-28.6,10.4c-5.2,0-9.5-1.6-12.8-4.7s-4.9-7.8-4.9-14
		c0.1-7.6,1.9-15.1,5.3-21.9c3.5-7.6,8.8-15.4,16-23.6c7.9-8.9,16.6-17.2,26-24.6c11.5-9.1,22.4-16,32.8-20.7
		c10.3-4.6,20.1-7,29.4-7c5.8,0,10.4,1.2,13.8,3.6c3.2,2.2,5.1,6,5,9.9c0,4.7-1.5,8.4-4.5,11.1c-3,2.7-7.3,4.9-13,6.4V34
		c0.1-0.7,0.6-1.3,1.4-1.5c4.7-1.2,8.2-3.2,10.6-5.9c2.5-2.6,3.9-6.2,3.9-9.8c0.1-3.6-1.7-7-4.8-8.9c-3.2-2.1-7.5-3.1-13.1-3.1
		c-10,0-20.4,2.6-31.1,7.9c-11.2,5.6-21.4,13.2-30.1,22.3c-5.6,5.8-11,11.8-16,18.2c-5.2,6.5-9.9,13.1-14.1,19.8
		c-3.8,5.9-7.3,12.1-10.2,18.4c-2.5,5.6-3.8,10.3-3.8,14.1c-0.1,3.4,1.2,6.7,3.6,9.1c2.4,2.5,5.7,3.8,9.9,3.8
		c8.4,0,17.7-3.4,27.9-10.2c10.8-7.4,20.7-16.1,29.3-26c8.7-9.6,16.4-20.2,22.8-31.4c5.9-10.5,8.8-18.9,8.8-25.3
		c0.2-2.9-0.7-5.8-2.5-8.1c-1.7-2-4.3-3.2-7-3c-3.4,0-7.8,1.1-13.1,3.2c-5.7,2.3-11,5.4-15.8,9.1c-5.7,4.4-10.9,9.5-15.3,15.2
		C397.4,47.7,393.6,54.3,390.8,61.3z"/>
	<path class="st0" d="M435,92.3v-1.2c0-0.4,0.2-0.8,0.5-1c0.5-0.4,1.4-1,2.7-1.8s2.3-1.5,2.8-1.8c0.3-0.2,0.5-0.5,0.5-0.9
		c0.1-1.9,0.7-3.7,1.8-5.3c1.1-1.8,2.3-2.7,3.4-2.7c1.1-0.1,2,0.7,2.1,1.7c0,0.1,0,0.2,0,0.3c0,0.7,0.6,1.2,1.3,1.1
		c0.2,0,0.3-0.1,0.5-0.1l12.9-6.5c0.1-0.1,0.3-0.2,0.4-0.3l24.4-28.2c17.9-20.8,31-31.2,39.4-31.2c1.5,0,2.9,0.5,4,1.4
		c1.1,0.9,1.7,2.3,1.6,3.8c0,4.1-2.7,9.2-8.1,15.1s-13,12.3-22.6,19c-10.1,6.9-20.7,13.1-31.7,18.5c-0.1,0.1-0.3,0.2-0.4,0.3
		l-20.8,24.9c-0.4,0.5-0.4,1.3,0.1,1.7c0.1,0.1,0.2,0.1,0.3,0.2c1.9,0.8,3.9,1.3,5.9,1.4c4.9,0,8.8-0.9,11.8-2.7
		c4-2.7,7.8-5.7,11.3-9v1.2c0,0.3-0.1,0.6-0.4,0.9c-4.2,4.1-7.8,7-10.9,8.5c-3.6,1.7-7.6,2.5-11.6,2.3c-2.7,0-5.3-0.6-7.8-1.6
		c-0.5-0.2-1.1-0.1-1.4,0.3L398.7,158c-0.2,0.3-0.6,0.4-0.9,0.4h-5c-0.7,0-1.2-0.5-1.2-1.2c0-0.3,0.1-0.6,0.3-0.8l17.2-19.6
		c3.3-3.8,7.1-8.6,11.6-14.5s8.3-11.2,11.5-16c3.2-4.7,6.2-9.4,9-14.3c0.1-0.2,0.2-0.4,0.2-0.7l-0.1-1c0-0.7-0.6-1.2-1.3-1.1
		c-0.2,0-0.4,0.1-0.6,0.2l-1.3,0.8C437,90.9,436,91.6,435,92.3z M443.4,96.2l-0.5-0.9c-0.4-0.6-1.1-0.7-1.7-0.4
		c-0.1,0.1-0.3,0.2-0.3,0.3l-2.5,3.9c-2.2,3.4-4,6.2-5.5,8.5c-1.5,2.3-3.1,4.8-4.8,7.6l15.3-17.6C443.6,97.2,443.7,96.7,443.4,96.2
		L443.4,96.2z M455.7,79.6c-2,1-4.2,2.2-6.7,3.6c-0.3,0.2-0.5,0.4-0.6,0.8c-0.1,0.5-0.3,1.1-0.6,1.6c-0.4,0.7-0.8,1.4-1.3,2
		c-0.4,0.6-1,1.4-1.6,2.2c-0.7,0.7-1.3,1.6-1.6,2.6c0,0.2,0,0.3,0,0.5c0.2,0.5,0.4,1,0.7,1.5c0.4,0.5,1.1,0.7,1.7,0.3
		c0.1-0.1,0.2-0.1,0.2-0.2c1.2-1.5,3.5-4.2,6.9-8.1c1.7-1.9,3.1-3.6,4.2-4.9c0.4-0.5,0.3-1.3-0.3-1.7
		C456.5,79.4,456,79.4,455.7,79.6z M482.7,57.7l-6.1,7.3c-0.4,0.5-0.3,1.3,0.2,1.7c0.4,0.3,0.9,0.3,1.3,0.1
		c5.7-3.1,11.3-6.3,16.5-9.7c6.5-4.2,12.7-8.7,18.6-13.7c4.8-3.9,9.2-8.3,13.1-13.1c3.2-4.1,4.8-7.5,4.8-10.3
		c0.1-1.1-0.3-2.1-1.1-2.8c-0.8-0.7-1.9-1.1-3-1c-4.5,0-10.3,3.7-17.4,11C502.5,34.5,493.5,44.6,482.7,57.7L482.7,57.7z"/>
	<path class="st0" d="M596.3,69.2l1.2-2c0.3-0.6,0.2-1.3-0.4-1.6c-0.3-0.2-0.6-0.2-0.9-0.1c-4.8,1-9.7,1.5-14.6,1.5
		c-5.9,0.2-11.8-1-17.2-3.3c-4.4-1.9-8.2-5-10.9-8.9c-2.5-3.8-3.8-8.3-3.7-12.8c0-7,2.9-13.7,8.6-20.3s13.7-11.8,24-15.7
		C592.8,2,604.3,0,617.3,0v0.3c0,0.7-0.5,1.2-1.2,1.2c0,0,0,0,0,0c-10.8,0-21.6,2-31.7,5.8c-9.9,3.8-17.6,8.8-23.2,15
		c-5.5,6.2-8.3,12.9-8.3,20.3c0,6.8,2.6,12.2,7.9,16.1c5.2,3.9,12.7,5.9,22.3,6.2c5.9,0.1,11.8-0.8,17.5-2.5
		c0.3-0.1,0.5-0.2,0.6-0.4c6.4-8.7,13.4-17.4,21.1-26.2c8-9,16.8-17.2,26.5-24.5C658.5,3.7,667.6,0,675.9,0c5.1,0,7.7,2.2,7.7,6.6
		c0,3.3-1.8,7.4-5.3,12.3c-4.3,5.7-9.4,10.9-15,15.3c-7.2,5.8-14.9,10.9-23.2,15.2c-9.2,4.8-18.9,8.9-28.8,12
		c-0.2,0.1-0.4,0.2-0.6,0.4l-1.4,1.9c-6.1,8.4-10.1,13.9-12.1,16.6c-2.6,3.3-5.4,6.5-8.4,9.5c-3.9,4-8.3,7.6-12.9,10.9
		c-4.7,3.3-9.6,6.2-14.8,8.7c-0.6,0.3-0.8,1-0.5,1.6c0.1,0.3,0.4,0.5,0.7,0.6c7.4,2.3,15.2,3.4,23,3.4c4.2,0,8.4-0.7,12.3-2.1
		c4.6-1.9,8.8-4.4,12.6-7.6c4.7-3.6,12.2-10,22.5-19.3v1.2c0,0.3-0.1,0.7-0.4,0.9c-7.1,6.4-12.7,11.4-17,15c-3.5,3-7.2,5.8-11.2,8.2
		c-2.9,1.7-6,3-9.2,3.9c-3.2,0.8-6.4,1.2-9.7,1.2c-7.8,0-16.9-1.6-27.4-4.7c-0.2-0.1-0.5-0.1-0.7,0c-4.3,1.5-8.7,2.7-13.2,3.5
		c-4.6,0.8-9.4,1.1-14.1,1.1c-11.3,0-17-2.1-17-6.2c0-4.3,5.1-6.5,15.2-6.5c3.8,0,7.7,0.3,11.4,1c4.5,0.9,8.9,2.1,13.2,3.7l3.9,1.3
		c0.3,0.1,0.7,0.1,1-0.1c7.6-4.2,14.5-9.5,20.7-15.5C583.5,87.9,589.8,79.7,596.3,69.2z M550,111.8c0.6-0.2,1-0.9,0.8-1.5
		c-0.1-0.4-0.4-0.7-0.8-0.8c-3.7-1.1-7.5-2.1-11.3-2.8c-4.1-0.9-8.2-1.4-12.3-1.5c-3.1-0.1-6.1,0.3-9,1.4c-2.1,0.9-3.2,2.1-3.2,3.5
		c0,3.2,4.9,4.8,14.7,4.8C536.1,115,543.2,114,550,111.8z M613.3,56.9c-0.3,0.6-0.1,1.3,0.5,1.6c0.3,0.2,0.7,0.2,1,0.1
		c9.3-3.2,18.3-7.3,26.8-12.2c7.8-4.4,15.1-9.5,21.8-15.3c4.9-4.2,9.2-8.9,13-14.1c3-4.3,4.5-7.5,4.5-9.6c0.1-1.5-0.4-3-1.3-4.3
		c-0.9-1.2-2.3-1.8-3.7-1.6c-7.5,0.5-15.5,3.9-23.9,10.3c-8.7,6.7-16.6,14.4-23.4,23C623,41.7,617.9,49.1,613.3,56.9L613.3,56.9z"/>
	<path class="st1" d="M767,111.4V55.1l-11-8.4v23.6c0,1.6-0.2,3.2-0.4,4.8c-0.4,1.5-0.6,3-0.6,4.6c0.1,1.2,0,25,0,31.7L767,111.4z
		 M703,111.4h-18V55.1l41.1-31.7L748,40.2c-0.5,3.1-0.8,6.2-0.8,9.3c0,0-0.1,20.1,0,21.1c0.1,1.1,0.4,1.5,2.2,2.5
		c1.8,1.1,1.7,4.1,1.7,4.1v33.2h-22.7c-0.2-10.7-0.3-22-0.5-33.3c0,0-0.5-7.7,3.8-11.4c4.3-3.7,3.8-10.6,3.8-10.6
		c-0.1-3.8-1-7.5-2.8-10.8c-2.8-4.9-6.2-5.1-6.2-5.1s-3.4,0.2-6.2,5.1c-1.7,3.4-2.7,7.1-2.8,10.8c0,0-0.5,6.9,3.8,10.6
		c4.3,3.7,3.8,11.4,3.8,11.4v33.3h-20l-0.3-21.5l0.1-2c0-1.6,0.5-3.2,1.4-4.5c1.5-2,2.8-3.1,2.9-8.7c0.2-5.6-1.4-20.1-1.4-20.1
		l-0.2-1.4c0,0-0.1-0.2-0.2-0.2c-0.2,0-0.4-0.1-0.4,0.1c0,0.2-0.1,16.6-0.1,16.6s0.1,2.6-0.5,2.9c-0.6,0.3-0.6-2.9-0.6-2.9
		l-0.6-16.2c0,0,0-0.5-0.2-0.5c-0.2-0.1-0.4,0-0.5,0.2c0,0,0,0.1,0,0.2c0,0.4-0.4,18-0.4,18s0,1.1-0.6,1.3c-0.5-0.2-0.6-1.3-0.6-1.3
		s-0.4-17.6-0.4-18c0-0.2-0.2-0.4-0.4-0.4c-0.1,0-0.1,0-0.2,0c-0.2,0.1-0.2,0.5-0.2,0.5l-0.6,16.2c0,0,0,3.2-0.6,2.9
		c-0.6-0.3-0.5-2.9-0.5-2.9s-0.1-16.4-0.1-16.6s-0.3-0.1-0.4-0.1c-0.2,0-0.2,0.2-0.2,0.2l-0.2,1.4c0,0-1.5,14.5-1.4,20.1
		c0.2,5.6,1.5,6.7,2.9,8.7c0.9,1.3,1.4,2.9,1.4,4.5v0.4l1,23.6L703,111.4L703,111.4z M756,30.8V40l14.9,11.5
		c0.7,0.5,1.1,1.2,1.1,2.1v59.8h1l0,0c-0.9,1.3-3.3,2-3.3,2h-86.2c-1.3,0.1-2.4-0.8-2.6-2.1c0-0.1,0-0.2,0-0.3V53.4l0,0
		c0-0.7,0.3-1.4,0.9-1.9l42.9-33.4c0.9-0.7,2.1-0.7,2.9,0l21.1,16.4c0.3-1.3,0.8-2.6,1.3-3.8c3.1-6.8,5.4-2.9,5.4-2.9
		S756.1,28.2,756,30.8L756,30.8z"/>
</g>
<text transform="matrix(0.91 0 0 1 564.4453 167.9697)" class="st0 st2 st3">RE</text>
<text transform="matrix(0.91 0 0 1 606.1777 167.9697)" class="st0 st2 st3">S</text>
<text transform="matrix(0.91 0 0 1 623.0493 167.9697)" class="st0 st2 st3 st4">T</text>
<text transform="matrix(0.91 0 0 1 640.976 167.9697)" class="st0 st2 st3">A</text>
<text transform="matrix(0.91 0 0 1 661.8881 167.9697)" class="st0 st2 st3">URANT</text>
</svg>
