<?xml version="1.0" encoding="utf-8"?>
<!-- Generator: Adobe Illustrator 24.0.1, SVG Export Plug-In . SVG Version: 6.00 Build 0)  -->
<svg version="1.1" id="Layer_1" xmlns="http://www.w3.org/2000/svg" xmlns:xlink="http://www.w3.org/1999/xlink" x="0px" y="0px"
	 viewBox="0 0 899.5 295.8" style="enable-background:new 0 0 899.5 295.8;" xml:space="preserve">
<style type="text/css">
	.st0{fill:#00491B;}
	.st1{fill:#D9AD5F;}
	.st2{fill:#FFF18D;}
	.st3{fill:#F9CB83;}
	.st4{fill:#F59083;}
	.st5{fill:#999B9E;}
	.st6{fill:#FFFFFF;}
	.st7{fill:#5C5F61;}
	.st8{fill:#2A8C43;}
	.st9{opacity:0.5;fill:#00733B;enable-background:new    ;}
	.st10{fill:#BF0A30;}
	.st11{font-family:'Cambria';}
	.st12{font-size:19.512px;}
	.st13{letter-spacing:-1.1;}
	.st14{fill:#A74634;}
	.st15{fill:#E64525;}
	.st16{fill:#BF5D61;}
	.st17{fill:#831F2C;}
	.st18{fill:#EF485B;}
	.st19{fill:#D3D5D6;}
	.st20{fill:#8E523A;}
	.st21{fill:#FCE8C7;}
	.st22{fill:#FDD57C;}
	.st23{fill:#359255;}
	.st24{fill:#DCE35D;}
	.st25{opacity:0.4;fill:#359255;enable-background:new    ;}
	.st26{fill:#8598C0;}
	.st27{fill:#AC82AD;}
	.st28{fill:#C2A1BE;}
	.st29{fill:#6F3E2A;}
	.st30{fill:#AD6449;}
	.st31{fill:#7D1300;}
	.st32{fill:#F26B6C;}
	.st33{fill:#F04943;}
	.st34{fill:#EE3524;}
	.st35{opacity:0.4;fill:#7D1300;enable-background:new    ;}
	.st36{fill:#F26A5A;}
	.st37{fill:#F6EB79;}
	.st38{fill:#EDAC63;}
	.st39{fill:#F8AD71;}
	.st40{fill:#FBD7A5;}
</style>
<title>house of L fastfood</title>
<path class="st0" d="M715.2,0c-0.7,0-1.3,0.1-2,0.2c-2.3,0.4-3.9,1.1-3.8,1.6c0,0.3,0.7,0.5,2.1,0.5c0.7,0,1.3-0.1,2-0.2
	c1-0.1,1.9-0.4,2.8-0.7c0.7-0.3,1.1-0.6,1-0.8S716.6,0,715.2,0z"/>
<g>
	<path class="st1" d="M608,83.8c0.5-1.5,0.8-3.1,1.3-4.7s0.9-3.1,1.2-4.6c0.8-3.2,1.3-6.5,2-9.7l0,0c0-0.1,0-0.3,0-0.4
		c-0.1-0.3-0.3-0.6-0.4-0.9c-0.2-0.3-0.4-0.8-0.7-0.9c0,0-0.1,0-0.1,0c-0.3,0-0.6,0.1-1,0.2c-0.2,0-0.5,0.1-0.7,0.2c0,0-0.1,0-0.1,0
		c0,0-0.1,0.1-0.1,0.2c0,0,0,0,0,0c-1.1,3.4-1.9,7-2.8,10.6c-0.4,1.7-0.8,3.4-1.2,5.1c-0.4,1.8-1,3.5-1.2,5.4
		c-0.1,0.1-0.1,0.2,0.1,0.2c0.8-0.1,1.6,0,2.4-0.1c0.4,0,1,0,1.3-0.4C608.1,83.9,608.1,83.8,608,83.8z"/>
	<path class="st2" d="M606.4,84.1c1.1-3,1.8-6.3,2.5-9.5c0.7-3.3,1.4-6.7,2.2-10c0-0.2,0-0.5,0-0.7l0,0c-1,3.2-1.6,6.6-2.4,9.8
		c-0.4,1.8-0.8,3.6-1.3,5.5c-0.4,1.6-1,3.2-1.3,4.8c-0.5,0-1.1,0-1.6,0.1c1.7-7,3.3-14,5.1-20.9v0l0,0c0.6-0.2,1.2-0.3,1.8-0.4h0
		c0.2,0.3,0.3,0.6,0.5,0.8c0.2,0.3,0.3,0.6,0.4,1c0,0,0,0,0,0c-0.8,3-1.2,6.1-1.9,9.1c-0.4,1.8-0.9,3.6-1.4,5.3
		c-0.5,1.6-0.8,3.2-1.2,4.7C607.4,84.1,606.9,84.1,606.4,84.1z"/>
	<path class="st3" d="M609.7,76.9c0.5-4.4,1.5-8.8,1.5-13.3c-2.2,5.4-3.9,11-5.6,16.5c-0.3,1.4-0.7,2.8-1,4.2
		c0.6-0.1,1.1-0.1,1.6-0.1c0.3-1.6,0.9-3.2,1.3-4.8c0.5-1.8,0.8-3.6,1.3-5.5c0.8-3.3,1.4-6.6,2.4-9.8l0,0v0.7
		c-0.8,3.3-1.5,6.6-2.2,10c-0.7,3.2-1.4,6.4-2.5,9.5c0.5,0,1-0.1,1.4-0.2c0.5-1.6,0.8-3.2,1.2-4.7C609.2,78.4,609.5,77.6,609.7,76.9
		z"/>
	<path class="st1" d="M605.5,84c0.2-1.6,0.2-3.3,0.3-4.9c0.2-1.6,0.2-3.2,0.3-4.8c0.1-3.3,0-6.6,0.1-10l0,0c0-0.1,0-0.3,0-0.4
		c-0.2-0.3-0.4-0.5-0.6-0.8c-0.2-0.2-0.6-0.6-0.9-0.7c0,0-0.1,0-0.1,0.1c-0.3,0.1-0.6,0.3-0.9,0.4c-0.2,0.1-0.4,0.2-0.6,0.4
		c0,0-0.1,0-0.1,0s0,0.1-0.1,0.2c0,0,0,0,0,0c-0.4,3.6-0.4,7.3-0.6,11c-0.1,1.8-0.1,3.5-0.2,5.3c-0.1,1.8-0.3,3.7-0.1,5.5
		c0,0.1,0,0.2,0.1,0.1c0.8-0.3,1.6-0.4,2.3-0.7C604.8,84.6,605.4,84.5,605.5,84C605.6,84,605.5,84,605.5,84z"/>
	<path class="st2" d="M603.9,84.6c0.5-3.2,0.5-6.6,0.6-9.9c0.1-3.4,0.1-6.9,0.2-10.3c0-0.2,0-0.4-0.1-0.6l0,0
		c-0.3,3.4-0.2,6.8-0.4,10.2c-0.1,1.9-0.1,3.8-0.2,5.6c-0.1,1.6-0.4,3.4-0.3,5c-0.5,0.1-1.1,0.3-1.6,0.5c0.3-7.2,0.4-14.5,0.8-21.7
		v0l0,0c0.5-0.3,1.1-0.6,1.7-0.8h0c0.2,0.2,0.5,0.5,0.6,0.7c0.2,0.3,0.4,0.5,0.6,0.8c0,0,0,0,0,0.1c-0.2,3.1,0,6.3-0.1,9.4
		c0,1.8-0.2,3.7-0.3,5.5c-0.2,1.6-0.1,3.3-0.3,4.9C604.8,84.4,604.4,84.6,603.9,84.6z"/>
	<path class="st3" d="M605.7,76.8c-0.4-4.4-0.3-9-1.2-13.4c-1,5.8-1.6,11.7-2.2,17.5c0,1.4-0.1,2.9-0.2,4.3c0.5-0.2,1-0.4,1.6-0.5
		c0-1.6,0.2-3.4,0.3-5c0.1-1.9,0.1-3.8,0.2-5.6c0.1-3.4,0.1-6.8,0.4-10.2c0,0,0,0,0,0c0.1,0.2,0.1,0.4,0.1,0.6
		c-0.1,3.4-0.2,6.9-0.2,10.3c0,3.3-0.1,6.6-0.6,9.9c0.5-0.1,0.9-0.3,1.3-0.6c0.2-1.6,0.1-3.3,0.3-4.9
		C605.6,78.4,605.6,77.6,605.7,76.8z"/>
	<path class="st1" d="M610.6,86.7c0.5-1.5,0.7-3.2,1.2-4.7c0.4-1.6,0.8-3.1,1.1-4.7c0.7-3.2,1.1-6.6,1.8-9.8l0,0v-0.4
		c-0.1-0.3-0.3-0.6-0.4-0.9c-0.2-0.3-0.4-0.8-0.7-0.9c0,0-0.1,0-0.1,0c-0.3,0.1-0.6,0.1-1,0.2c-0.2,0-0.5,0.1-0.7,0.2
		c0,0-0.1,0-0.1,0c0,0-0.1,0.1-0.1,0.2c0,0,0,0,0,0c-1,3.5-1.7,7.1-2.4,10.6c-0.4,1.7-0.7,3.4-1,5.2c-0.5,1.8-0.8,3.6-1,5.4
		c-0.1,0.1-0.1,0.2,0.1,0.2c0.8-0.2,1.6-0.1,2.4-0.2c0.4,0,1,0,1.3-0.4C610.7,86.7,610.6,86.7,610.6,86.7z"/>
	<path class="st2" d="M609,87c1-3.1,1.6-6.4,2.2-9.6c0.6-3.4,1.2-6.7,1.9-10.1c0-0.2,0-0.5,0-0.7l0,0c-0.8,3.2-1.4,6.6-2,10
		c-0.4,1.8-0.7,3.7-1.1,5.5c-0.4,1.6-0.9,3.2-1.1,4.8c-0.5,0-1.1,0.1-1.6,0.2c1.5-7,2.9-14.1,4.5-21.1v0l0,0
		c0.6-0.2,1.2-0.4,1.8-0.5h0c0.2,0.3,0.4,0.6,0.5,0.8c0.2,0.3,0.3,0.6,0.5,1c0,0,0,0,0,0c-0.7,3-1,6.2-1.6,9.2
		c-0.4,1.8-0.8,3.6-1.2,5.4c-0.4,1.6-0.7,3.2-1.1,4.8C610,86.9,609.5,87,609,87z"/>
	<path class="st3" d="M612,79.7c0.4-4.4,1.2-8.9,1.1-13.4c-2,5.4-3.5,11.1-5.2,16.7c-0.3,1.4-0.6,2.8-0.9,4.2
		c0.5-0.1,1.1-0.1,1.6-0.2c0.2-1.6,0.8-3.2,1.1-4.8c0.4-1.8,0.7-3.7,1.1-5.5c0.7-3.3,1.2-6.7,2-10l0,0c0,0.2,0,0.5,0,0.7
		c-0.7,3.3-1.3,6.7-1.9,10.1c-0.6,3.2-1.2,6.5-2.2,9.6c0.5,0,1-0.1,1.4-0.3c0.4-1.6,0.7-3.2,1.1-4.8C611.6,81.2,611.8,80.4,612,79.7
		z"/>
	<path class="st1" d="M609.8,87.3c0.8-1.4,1.3-2.9,2-4.3c0.7-1.4,1.3-2.8,1.9-4.3c1.2-3,2.2-6.1,3.5-9.1l0,0c0-0.1,0-0.2,0.1-0.4
		c-0.1-0.3-0.2-0.6-0.3-1c-0.1-0.4-0.3-0.7-0.6-1c0,0-0.1,0-0.1,0c-0.3,0-0.6,0-1,0c-0.2,0-0.5,0-0.7,0.1c0,0-0.1,0-0.1,0
		c-0.1,0-0.1,0.1-0.1,0.2c0,0,0,0,0,0c-1.6,3.2-2.9,6.5-4.4,9.8c-0.7,1.6-1.3,3.2-2,4.8c-0.8,1.6-1.5,3.3-2,5c-0.1,0-0.1,0.2,0,0.2
		c0.8,0,1.6,0.3,2.4,0.4c0.4,0,1,0.2,1.3-0.1C609.9,87.4,609.8,87.3,609.8,87.3z"/>
	<path class="st2" d="M608.1,87.2c1.6-2.8,2.8-5.8,3.9-8.8c1.2-3.1,2.4-6.3,3.8-9.4c0.1-0.2,0.1-0.4,0.1-0.6c0,0,0,0,0,0
		c-1.4,3-2.6,6.2-3.8,9.2c-0.7,1.7-1.4,3.4-2.1,5.1c-0.6,1.5-1.5,2.9-2,4.4c-0.6-0.1-1.1-0.2-1.6-0.2c2.8-6.5,5.4-13.1,8.3-19.6v0
		l0,0c0.6-0.1,1.2-0.1,1.8,0h0c0.1,0.3,0.3,0.6,0.4,1c0.1,0.3,0.2,0.7,0.3,1c0,0,0,0,0,0c-1.2,2.8-2.2,5.8-3.3,8.6
		c-0.7,1.7-1.4,3.3-2.2,5c-0.7,1.4-1.2,3-2,4.4C609.1,87.4,608.6,87.3,608.1,87.2z"/>
	<path class="st3" d="M612.5,80.8c1.2-4.2,2.8-8.4,3.6-12.8c-3,4.8-5.5,10-8.1,15.1c-0.6,1.3-1.1,2.6-1.6,3.9c0.6,0,1.1,0.1,1.6,0.2
		c0.5-1.5,1.4-3,2-4.4c0.8-1.7,1.4-3.4,2.1-5.1c1.3-3.1,2.4-6.2,3.8-9.2l0,0c0,0.2,0,0.4-0.1,0.6c-1.3,3.1-2.5,6.2-3.8,9.4
		c-1.2,3-2.4,6.1-3.9,8.8c0.5,0.1,0.9,0.1,1.4,0c0.7-1.4,1.2-3,2-4.4C611.8,82.2,612.2,81.5,612.5,80.8z"/>
	<path class="st4" d="M608.6,82.4c0.6-0.4,1-0.9,1.4-1.4c0.3-0.4,0.6-0.9,0.8-1.3c-0.3,0.4-0.7,0.7-1.2,0.9
		c-1.1,0.7-2.3,1.2-3.4,1.8c-0.7,0.4-1.4,0.5-2.1,0.9C605.7,83.9,607.4,83.3,608.6,82.4z"/>
	<path class="st5" d="M547.6,72.6c-1.8,0-6-0.1-6.2-1.8c-0.2-2,5.6-4.1,11.1-5c1.9-0.3,3.8-0.5,5.7-0.5c1.8,0,6,0.1,6.2,1.8
		c0.1,1.2-1.6,2.2-3.2,2.8c-2.6,1-5.2,1.7-8,2.1C551.4,72.4,549.5,72.6,547.6,72.6z"/>
	<path class="st6" d="M558.2,65.7c-1.9,0-3.7,0.2-5.6,0.5c-6.6,1-11,3.2-10.8,4.5c0.1,0.8,1.9,1.5,5.8,1.5c1.9,0,3.7-0.2,5.6-0.5
		c2.7-0.4,5.3-1.1,7.9-2.1c1.9-0.8,3-1.7,3-2.4C563.9,66.4,562.1,65.7,558.2,65.7z"/>
	<path class="st7" d="M553.6,68c-0.4,0-0.7,0-1.1,0.1c-1.3,0.2-2.1,0.6-2.1,0.8c0,0.2,0.4,0.3,1.1,0.3c0.4,0,0.7,0,1.1-0.1
		c0.5-0.1,1-0.2,1.5-0.4c0.4-0.2,0.6-0.3,0.6-0.4C554.7,68.2,554.4,68,553.6,68z"/>
	<path class="st8" d="M551.5,53l-1.6,0.5l-0.1-0.1l-1.5,0.1l2.7,15.6c0,0.1,0.3,0.2,0.8,0.2c0.3,0,0.5,0,0.8-0.1
		c0.4-0.1,0.8-0.1,1.1-0.3c0.3-0.1,0.4-0.2,0.4-0.3L551.5,53z"/>
	<path class="st9" d="M553.8,68.9c0.2-0.1,0.4-0.2,0.4-0.3L551.5,53l-0.6,0.2C551,54.4,553.4,66.6,553.8,68.9z"/>
	<path class="st8" d="M548.7,53.4h-0.4L551,69c0,0.1,0.2,0.2,0.4,0.2C550.6,64,549.9,58.6,548.7,53.4z"/>
	<g>
		<path class="st10" d="M297.8,66.2c0.1-0.1,0.4-0.1,0.5,0l0.2,0.1c-1.8,1.5-3.7,2.8-5.8,3.8c-1.8,0.8-3.7,1.2-5.6,1.2
			c-4,0-6-1.6-6-4.9c0-1.2,0.3-2.3,0.9-3.4c0.7-1.3,1.7-2.5,2.8-3.5c1.4-1.2,3.1-2.1,4.9-2.8c2-0.7,4.4-1,7.2-1
			c2.2,0,3.8,0.4,5.2,1.2c1.3,0.8,1.9,1.8,1.9,3.1c0,0.6-0.1,1.2-0.2,1.8c0,0.4-0.1,0.8-0.2,1.2c0,0.7,0.6,1,1.9,1
			c1.6,0,3.1-0.5,4.4-1.2c1.9-1.2,3.7-2.6,5.4-4.2c1.8-1.6,2.9-2.4,3.3-2.4c0.3,0,0.4,0.1,0.4,0.2c0,0.3-0.3,0.6-0.8,0.9
			c-1,0.7-3.1,2.4-6.1,4.8c-3.8,3.1-7.8,8.4-12.1,15.8c-0.1,0.2,0,0.5,0.2,0.7c0.1,0.1,0.2,0.1,0.3,0.1l8.2-1.8l0.2-0.1l4.2-4.2
			l2.3-2.2c4-3.8,8.3-7.3,12.8-10.4c4.1-2.8,7.6-4.2,10.3-4.2c0.8,0,1.5,0.2,2.2,0.6c0.5,0.4,0.8,1.1,0.8,1.7c0,2.2-1.4,4.6-4.2,7
			c-2.8,2.4-6.4,4.7-10.8,6.7c-4.3,2-8.9,3.5-13.5,4.6c-0.1,0-0.2,0.1-0.2,0.2c-1.6,2-3.4,4.3-5.3,6.7c-1.9,2.5-3.6,4.8-5,6.8
			c-1.2,1.7-2.3,3.6-3.3,5.4c-0.8,1.6-1.2,2.9-1.2,4c0,0.6,0.2,1.2,0.7,1.6c0.4,0.4,0.9,0.7,1.5,0.7c1.3,0,2.6-0.4,3.8-1
			c1.6-0.8,3.1-1.7,4.6-2.8c1.6-1.2,3.2-2.4,4.8-3.8c1.6-1.3,3.2-2.7,4.8-4.1v0.5c0,0.1-0.1,0.3-0.2,0.4c-2,1.7-3.6,3.2-5,4.3
			c-1.3,1.1-2.8,2.3-4.3,3.4c-1.4,1-2.8,1.9-4.4,2.6c-1.2,0.6-2.6,0.9-3.9,1c-1,0-2-0.4-2.7-1.1c-0.7-0.8-1-1.8-1-2.8
			c0-5.2,3.5-11.8,10.5-19.7c0.2-0.2,0.2-0.5,0-0.7c-0.1-0.1-0.3-0.2-0.4-0.1l-7.5,1.6c-0.1,0-0.3,0.1-0.3,0.2c-0.6,1-1.2,1.9-2,2.8
			c-1.2,1.6-2.8,3.3-4.8,5.4c-2.2,2.2-4.5,4.3-7,6.3c-2.5,2-5.1,3.7-7.8,5.3c-3.1,1.8-6.1,2.7-9,2.7c-1.5,0-2.4-0.3-2.9-0.8
			c-0.5-0.6-0.8-1.4-0.7-2.2c0-2.1,1.3-4.5,3.9-7.2c2.6-2.7,6.3-5.2,11-7.5c4.9-2.3,10.1-4,15.5-4.8c0.1,0,0.2-0.1,0.3-0.2l1.2-1.5
			c2.6-3.3,4.6-5.6,5.8-7c1.1-1.2,3.1-3.3,6.1-6.3c0.2-0.2,0.2-0.5,0-0.7c-0.1-0.1-0.3-0.2-0.5-0.1c-0.9,0.3-1.9,0.4-2.9,0.5
			c-2.2,0-3.3-0.9-3.3-2.7c0,0,0.1-0.6,0.2-1.5c0.2-0.9,0.2-1.4,0.2-1.4c0-1.8-1.7-2.6-5.1-2.6c-3.6,0-6.5,0.6-8.8,1.8
			c-2.3,1.2-4,2.6-5,4.1c-1,1.6-1.5,3-1.5,4.2c-0.1,1.2,0.5,2.4,1.4,3.2c0.9,0.8,2.2,1.2,4,1.2c1.9,0,3.7-0.4,5.4-1.1
			C294.5,68.6,296.2,67.5,297.8,66.2z M293.7,81.5c0.1-0.2,0.1-0.5-0.1-0.6c-0.1-0.1-0.2-0.1-0.4-0.1c-5,0.9-9.8,2.6-14.4,4.8
			c-4.4,2.3-7.8,4.7-10.2,7.2c-2.4,2.5-3.5,4.6-3.5,6.3c0,1.7,1.1,2.6,3.3,2.6c1.7,0,3.8-0.6,6.4-1.8s5.6-3.4,9-6.5
			C287.1,90.4,290.4,86.4,293.7,81.5z M314.3,74.5c-0.2,0.2-0.1,0.5,0.1,0.7c0.1,0.1,0.3,0.1,0.4,0.1c6.6-2,11.8-4,15.6-6.2
			c4.1-2.4,6.8-4.5,8.4-6.4c1.5-1.9,2.2-3.4,2.2-4.4c0-1.3-0.7-1.9-2.2-1.9c-1.8,0-4,0.8-6.4,2.2c-2.8,1.7-5.4,3.6-7.8,5.7
			c-2.7,2.3-5,4.5-6.9,6.4C316.5,71.9,315.3,73.1,314.3,74.5L314.3,74.5z"/>
		<path class="st10" d="M335.3,90.1v0.5c0,0.1,0,0.2-0.1,0.3c-1.5,1.7-3.1,2.6-4.9,2.6h-0.1c-0.2,0-0.4,0-0.5-0.1
			c-0.2,0-0.3,0-0.4,0c-0.2,0-0.3,0.1-0.4,0.2c-4.3,4.4-8,6.6-11.1,6.6c-0.6,0-1.2-0.2-1.6-0.5c-0.5-0.3-0.9-0.7-1.1-1.2
			c-0.3-0.6-0.4-1.2-0.4-1.8c0-1.8,0.8-3.6,2.4-5.3c1.6-1.8,3.6-3.2,5.8-4.2c2.3-1.1,4.2-1.6,6-1.6c1.8,0,2.8,0.8,2.8,2.6
			c0,1.2-0.5,2.6-1.6,4.2c-0.1,0.2-0.1,0.5,0.1,0.7c0.1,0,0.1,0.1,0.2,0.1h0.1C332,92.9,333.7,92,335.3,90.1z M328.8,86
			c-1.5,0-3.2,0.8-5.2,2.6c-2,1.7-3.7,3.6-5.3,5.7c-1.6,2-2.3,3.3-2.3,3.8c0,0.4,0.2,0.8,0.6,1.1c0.4,0.3,1,0.5,1.5,0.4
			c1.4,0,3.2-0.7,5.2-2.1c2-1.4,3.8-3.1,5.4-5c1.6-1.9,2.3-3.4,2.3-4.6c0-0.5-0.2-1-0.6-1.3C329.9,86.1,329.4,85.9,328.8,86
			L328.8,86z"/>
		<path class="st10" d="M334.3,91.8v-0.4c0-0.1,0.1-0.3,0.2-0.4c2.2-2,4.6-3.7,7.2-5.2c0.1,0,0.2-0.1,0.2-0.1h2.2
			c0.3,0,0.5,0.2,0.5,0.5c0,0.1,0,0.2-0.1,0.3l-8.4,9.5c-1.5,1.7-2.3,2.7-2.3,3c0,0.3,0.2,0.4,0.7,0.4c1.5,0,3.9-1.3,7.3-4
			c3.4-2.6,7-5.8,11.1-9.6c0.1-0.1,0.2-0.1,0.3-0.1h2c0.3,0,0.5,0.2,0.5,0.5c0,0.1,0,0.2-0.1,0.3l-8.8,10c-0.1,0.1-0.3,0.4-0.7,0.8
			c-0.3,0.3-0.6,0.7-0.8,1c-0.1,0.2-0.2,0.5-0.2,0.8c0,0.3,0.2,0.4,0.6,0.4c1,0,2.9-0.9,5.6-2.7c2.9-1.9,5.6-4.2,8.1-6.7v0.5
			c0,0.1-0.1,0.3-0.2,0.4c-2.4,2.4-5,4.6-7.9,6.5c-2,1.3-3.6,2.2-4.8,2.5c-1.8,0.5-2.8-0.6-2.3-2.4c0.3-0.8,0.6-1.6,1.1-2.3
			c1.2-1.8,2.5-3.5,3.8-5.2l0.8-0.9l-1.5,1.4c-3.3,2.9-6.1,5.2-8.5,7c-2.4,1.7-4.2,2.6-5.6,2.6c-1,0-1.5-0.6-1.5-1.8
			c0-0.9,0.3-1.7,0.7-2.5c0.5-1,1.1-2,1.8-2.8c0.8-1,1.5-1.9,2.4-2.9c0.8-1,1.7-1.9,2.6-2.9l-2,1.2c0,0,0,0,0,0l0,0
			C336.5,89.9,335.1,91,334.3,91.8z"/>
		<path class="st10" d="M358.8,91l8.3-7.2l0,0c0.6-0.8,1.2-1.5,1.8-2.2s0.9-1,1.2-1c0.2,0,0.4,0.1,0.6,0.2c0.2,0.1,0.3,0.3,0.3,0.6
			c0,0.4-0.6,1-1.8,1.7c-0.2,0.1-0.3,0.4-0.2,0.6c0,0,0,0,0,0c0.6,0.9,1.1,1.9,1.6,3c0.4,1.2,0.6,2.4,0.7,3.6v0.1
			c-0.1,0.7-0.1,1.3-0.2,1.8c-0.1,0.3,0.1,0.5,0.4,0.6c0,0,0,0,0,0c0.7,0.1,1.5,0.1,2.2-0.2c0.8-0.3,1.9-1.1,3.3-2.6v0.5
			c0,0.1,0,0.2-0.1,0.3c-1,1.3-2,2.1-2.9,2.4c-0.9,0.3-1.9,0.3-2.8,0c-0.2-0.1-0.4,0-0.6,0.2c-0.7,1.4-1.7,2.5-3,3.4
			c-1.4,1-2.9,1.8-4.5,2.3c-1.3,0.5-2.6,0.7-4,0.8c-0.9,0-1.8-0.2-2.6-0.6c-0.6-0.3-1-1-1-1.8c0-0.6,0.2-1.2,0.6-1.6
			c0.5-0.4,1.1-0.7,1.7-0.6c0.4,0,0.9,0.1,1.2,0.4c0.3,0.2,0.5,0.6,0.5,1c0,0.4-0.2,0.7-0.5,0.9c-0.3,0.3-0.7,0.4-1.1,0.4
			c-0.3,0-0.6-0.2-0.8-0.4c-0.1-0.2-0.4-0.3-0.6-0.2c-0.1,0.1-0.2,0.2-0.2,0.4V98c0,0.3,0.3,0.6,0.8,1c0.6,0.4,1.2,0.5,1.9,0.5
			c1.4,0,3-0.6,4.6-1.8c1.6-1.3,3-2.9,4-4.6c1-1.6,1.6-3.5,1.6-5.4c0-1.1-0.3-2.3-0.9-3.3c-0.1-0.2-0.4-0.3-0.6-0.2
			c0,0-0.1,0-0.1,0.1l-8.8,7.6v-0.4C358.6,91.2,358.7,91.1,358.8,91z"/>
		<path class="st10" d="M393.4,90.1v0.5c0,0.1-0.1,0.3-0.2,0.4c-3,3-5.7,5.2-8.2,6.8c-2.3,1.5-4.9,2.3-7.6,2.4
			c-2.3,0-3.4-1.3-3.4-3.9c0-2.2,0.9-4.2,2.4-5.7c1.7-1.6,3.6-2.9,5.8-3.8c2.2-0.9,4-1.3,5.4-1.3c0.7,0,1.3,0.2,1.8,0.6
			c0.4,0.3,0.7,0.9,0.7,1.4c0,0.9-0.5,1.8-1.5,2.6c-1,0.8-2.4,1.4-4.2,1.9c-2,0.5-4,0.8-6.1,0.9c-0.1,0-0.3,0.1-0.4,0.2
			c-2,2.2-3,4-3,5.2c0,0.5,0.3,0.9,0.7,1.1c0.5,0.3,1.1,0.5,1.7,0.4C381.8,99.5,387.1,96.4,393.4,90.1z M379.6,91.1
			c-0.2,0.2-0.2,0.5,0,0.7c0.1,0.1,0.2,0.1,0.3,0.1c1.6,0,3.1-0.3,4.6-0.8c1.3-0.4,2.5-1.1,3.5-2c0.8-0.8,1.2-1.4,1.2-1.9
			c0-0.8-0.5-1.2-1.4-1.2c-1.2,0-2.6,0.5-4.3,1.6C382.2,88.5,380.9,89.8,379.6,91.1L379.6,91.1z"/>
		<path class="st10" d="M420.9,77.4c-0.1,0.3-0.4,0.5-0.7,0.4l0,0c2.4-5.9,6.3-11.1,11.4-14.9c2-1.5,4.1-2.7,6.4-3.6
			c1.6-0.7,3.4-1.1,5.1-1.2c1.2-0.1,2.4,0.4,3.2,1.3c0.9,1,1.3,2.3,1.2,3.6c-0.1,2.8-1.2,6.1-3.5,10.3c-2.6,4.6-5.6,8.9-9.1,12.8
			c-3.5,4-7.4,7.5-11.8,10.5c-4.1,2.8-8,4.2-11.4,4.2c-1.9,0.1-3.7-0.6-5.1-1.9c-1.3-1.2-2-3.1-2-5.6c0-2.8,0.7-5.7,2.1-8.8
			c1.4-3,3.5-6.2,6.4-9.4c3.2-3.6,6.7-6.9,10.4-9.8c4.6-3.6,9-6.4,13.1-8.3c4.2-1.9,8-2.8,11.8-2.8c2.3,0,4.2,0.5,5.5,1.4
			c1.3,0.9,2,2.4,2,4c0,1.9-0.6,3.3-1.8,4.4c-1.2,1.1-2.9,2-5.2,2.6v-0.1c0-0.3,0.3-0.5,0.6-0.6c1.9-0.5,3.3-1.3,4.2-2.4
			c1-1.1,1.6-2.5,1.6-3.9c0.1-1.4-0.7-2.8-1.9-3.6c-1.3-0.8-3-1.2-5.2-1.2c-4,0-8.2,1-12.4,3.2c-4.5,2.3-8.6,5.3-12,8.9
			c-2.3,2.3-4.4,4.7-6.4,7.3c-2,2.5-3.9,5.2-5.6,7.9c-1.5,2.3-2.9,4.8-4.1,7.4c-1,2.2-1.5,4.1-1.5,5.6c0,1.4,0.5,2.7,1.4,3.6
			c1,1,2.3,1.5,4,1.5c3.4,0,7.1-1.4,11.2-4.1c4.3-2.9,8.3-6.4,11.7-10.4c3.5-3.8,6.6-8.1,9.1-12.6c2.4-4.2,3.5-7.6,3.5-10.1
			c0-1.4-0.3-2.4-1-3.2c-0.7-0.8-1.7-1.3-2.8-1.2c-1.4,0-3.1,0.4-5.2,1.3c-2.3,0.9-4.4,2.2-6.3,3.6c-2.3,1.8-4.3,3.8-6.1,6.1
			C423.6,72,422,74.6,420.9,77.4z"/>
		<path class="st10" d="M438.6,89.8v-0.5c0-0.2,0.1-0.3,0.2-0.4c0.3-0.3,0.7-0.5,1.1-0.7c0.5-0.4,0.9-0.6,1.1-0.7
			c0.1-0.1,0.2-0.2,0.2-0.4c0.1-0.8,0.3-1.5,0.7-2.1c0.4-0.7,0.9-1.1,1.4-1.1c0.4,0,0.8,0.3,0.8,0.7c0,0,0,0.1,0,0.1
			c0,0.3,0.2,0.5,0.5,0.4c0.1,0,0.1,0,0.2,0c3-1.5,4.7-2.3,5.2-2.6c0,0,0.1-0.1,0.2-0.1l9.8-11.3c7.2-8.3,12.4-12.5,15.8-12.5
			c0.6,0,1.2,0.2,1.6,0.6c0.4,0.4,0.7,0.9,0.6,1.5c0,1.6-1.1,3.7-3.2,6c-2.2,2.4-5.2,4.9-9,7.6c-4,2.8-8.3,5.3-12.7,7.4
			c-0.1,0-0.1,0.1-0.2,0.1l-8.3,10c-0.2,0.2-0.1,0.5,0.1,0.7c0,0,0.1,0.1,0.1,0.1c0.7,0.3,1.5,0.5,2.4,0.6c2,0,3.5-0.4,4.7-1.1
			c1.6-1.1,3.1-2.3,4.5-3.6V89c0,0.1-0.1,0.3-0.2,0.4c-1.7,1.6-3.1,2.8-4.4,3.4c-1.2,0.6-2.8,0.9-4.6,0.9c-1.1,0-2.1-0.2-3.1-0.6
			c-0.2-0.1-0.4,0-0.6,0.1l-19.4,23c-0.1,0.1-0.2,0.2-0.4,0.2h-2c-0.3,0-0.5-0.2-0.5-0.5c0-0.1,0-0.2,0.1-0.3l6.9-7.8
			c1.3-1.5,2.8-3.4,4.6-5.8c1.8-2.4,3.3-4.5,4.6-6.4s2.5-3.8,3.6-5.7c0.1-0.1,0.1-0.2,0.1-0.3l0-0.4c0-0.3-0.2-0.5-0.5-0.4
			c-0.1,0-0.2,0-0.2,0.1c-0.2,0.1-0.4,0.2-0.5,0.3C439.4,89.2,439,89.5,438.6,89.8z M442,91.4l-0.2-0.4c-0.1-0.2-0.4-0.3-0.6-0.2
			c-0.1,0-0.1,0.1-0.2,0.2c-0.2,0.4-0.6,0.9-1,1.6c-0.9,1.4-1.6,2.5-2.2,3.4c-0.6,0.9-1.2,1.9-1.9,3l6.1-7
			C442,91.8,442,91.6,442,91.4z M446.8,84.7c-0.8,0.4-1.7,0.9-2.7,1.4c-0.1,0.1-0.2,0.2-0.2,0.3c-0.1,0.2-0.1,0.4-0.2,0.6
			c-0.1,0.3-0.3,0.6-0.5,0.8c-0.2,0.2-0.4,0.6-0.6,0.9c-0.3,0.3-0.5,0.6-0.6,1V90c0.1,0.2,0.2,0.4,0.3,0.6c0.2,0.2,0.5,0.3,0.7,0.1
			c0,0,0.1,0,0.1-0.1c0.5-0.6,1.4-1.7,2.8-3.2c0.7-0.8,1.2-1.4,1.7-2c0.2-0.2,0.2-0.5,0-0.7C447.3,84.6,447,84.6,446.8,84.7
			L446.8,84.7z M457.7,75.9l-2.4,2.9c-0.2,0.2-0.1,0.5,0.1,0.7c0.2,0.1,0.4,0.1,0.5,0c2.3-1.2,4.5-2.5,6.6-3.9
			c2.6-1.7,5.1-3.5,7.4-5.5c1.9-1.6,3.7-3.3,5.2-5.2c1.3-1.6,1.9-3,1.9-4.1c0-0.4-0.1-0.8-0.4-1.1c-0.3-0.3-0.8-0.4-1.2-0.4
			c-1.8,0-4.1,1.5-7,4.4C465.6,66.6,462,70.7,457.7,75.9L457.7,75.9z"/>
		<path class="st10" d="M503.1,80.6l0.5-0.8c0.1-0.2,0.1-0.5-0.2-0.7c-0.1-0.1-0.2-0.1-0.4-0.1c-1.9,0.4-3.9,0.6-5.8,0.6
			c-2.4,0.1-4.7-0.4-6.9-1.3c-1.8-0.7-3.3-2-4.4-3.6c-1-1.5-1.5-3.3-1.5-5.1c0-2.8,1.2-5.5,3.4-8.1c2.3-2.6,5.5-4.7,9.6-6.3
			s8.7-2.4,13.9-2.4V53c0,0.3-0.2,0.5-0.5,0.5c-4.3,0-8.6,0.8-12.7,2.3c-4,1.5-7,3.5-9.3,6s-3.3,5.2-3.3,8.1c0,2.7,1,4.9,3.2,6.4
			s5.1,2.4,8.9,2.5c2.4,0,4.7-0.3,7-1c0.1,0,0.2-0.1,0.2-0.2c2.6-3.5,5.4-7,8.4-10.5c3.2-3.6,6.7-6.9,10.6-9.8
			c3.9-3,7.6-4.5,10.9-4.5c2,0,3.1,0.9,3.1,2.6c0,1.3-0.7,3-2.1,4.9c-1.7,2.3-3.7,4.4-6,6.1c-2.9,2.3-6,4.4-9.3,6.1
			c-3.7,1.9-7.5,3.5-11.5,4.8c-0.1,0-0.2,0.1-0.2,0.2l-0.6,0.8c-2.4,3.4-4,5.6-4.8,6.6c-1,1.3-2.2,2.6-3.4,3.8
			c-1.6,1.6-3.3,3-5.1,4.3c-1.9,1.3-3.9,2.5-5.9,3.5c-0.2,0.1-0.3,0.4-0.2,0.6c0.1,0.1,0.2,0.2,0.3,0.2c3,0.9,6.1,1.4,9.2,1.4
			c1.7,0,3.3-0.3,4.9-0.8c1.8-0.7,3.5-1.8,5-3c1.9-1.4,4.9-4,9-7.7v0.5c0,0.1-0.1,0.3-0.2,0.4c-2.8,2.6-5.1,4.6-6.8,6
			c-1.4,1.2-2.9,2.3-4.5,3.3c-2.3,1.4-4.9,2.1-7.6,2c-3.1,0-6.8-0.6-11-1.9c-0.1,0-0.2,0-0.3,0c-1.7,0.6-3.5,1.1-5.3,1.4
			c-1.9,0.3-3.8,0.4-5.6,0.4c-4.6,0-6.8-0.8-6.8-2.5c0-1.7,2-2.6,6.1-2.6c1.5,0,3.1,0.1,4.6,0.4c1.8,0.3,3.6,0.8,5.3,1.5l1.6,0.5
			c0.1,0,0.3,0,0.4,0c3-1.7,5.8-3.8,8.3-6.2C498,88,500.5,84.8,503.1,80.6z M484.6,97.6c0.3-0.1,0.4-0.4,0.3-0.6
			c0-0.1-0.2-0.3-0.3-0.3c-1.5-0.4-3-0.8-4.5-1.1c-1.6-0.4-3.3-0.6-4.9-0.6c-1.2,0-2.4,0.1-3.6,0.6c-0.8,0.4-1.3,0.8-1.3,1.4
			c0,1.3,2,1.9,5.9,1.9C479,98.9,481.9,98.5,484.6,97.6z M509.9,75.6c-0.1,0.2-0.1,0.5,0.2,0.6c0.1,0.1,0.3,0.1,0.4,0
			c3.7-1.3,7.3-2.9,10.7-4.9c3.1-1.8,6-3.8,8.7-6.1c2-1.7,3.7-3.6,5.2-5.6c1.2-1.7,1.8-3,1.8-3.8c0-0.6-0.2-1.2-0.5-1.7
			c-0.3-0.5-0.9-0.7-1.5-0.6c-3,0.2-6.2,1.6-9.6,4.1c-3.5,2.7-6.6,5.8-9.4,9.2C513.8,69.6,511.7,72.5,509.9,75.6z"/>
		<text transform="matrix(0.91 0 0 1 537.9111 122.9893)" class="st10 st11 st12 st13">F</text>
		<text transform="matrix(0.91 0 0 1 546.2246 122.9893)" class="st10 st11 st12">A</text>
		<text transform="matrix(0.91 0 0 1 557.0283 122.9893)" class="st10 st11 st12">S</text>
		<text transform="matrix(0.91 0 0 1 565.6191 122.9893)" class="st10 st11 st12 st13">T</text>
		<text transform="matrix(0.91 0 0 1 574.3262 122.9893)" class="st10 st11 st12">-</text>
		<text transform="matrix(0.91 0 0 1 580.2188 122.9893)" class="st10 st11 st12">F</text>
		<text transform="matrix(0.91 0 0 1 589.6172 122.9893)" class="st10 st11 st12">OOD</text>
		<path class="st1" d="M601.4,82.4c0.2-1.6,0.2-3.3,0.3-4.9c0.2-1.6,0.2-3.2,0.3-4.8c0.1-3.3,0-6.6,0.1-10l0,0c0-0.1,0-0.3,0-0.4
			c-0.2-0.3-0.4-0.5-0.6-0.8c-0.2-0.2-0.6-0.6-0.9-0.7c0,0-0.1,0-0.1,0.1c-0.3,0.1-0.6,0.3-0.9,0.4c-0.2,0.1-0.4,0.2-0.6,0.4
			c0,0-0.1,0-0.1,0s0,0.1-0.1,0.2c0,0,0,0,0,0c-0.4,3.6-0.4,7.3-0.6,11c-0.1,1.8-0.1,3.5-0.2,5.3c-0.1,1.8-0.3,3.7-0.1,5.5
			c0,0.1,0,0.2,0.1,0.1c0.8-0.3,1.6-0.4,2.3-0.7C600.7,83,601.3,83,601.4,82.4C601.5,82.4,601.4,82.4,601.4,82.4z"/>
		<path class="st2" d="M599.8,83.1c0.5-3.2,0.5-6.6,0.6-9.9c0.1-3.4,0.1-6.9,0.2-10.3c0-0.2,0-0.4-0.1-0.6l0,0
			c-0.3,3.4-0.2,6.8-0.4,10.2c-0.1,1.9-0.1,3.8-0.2,5.6c-0.1,1.6-0.4,3.4-0.3,5c-0.5,0.1-1.1,0.3-1.6,0.5c0.3-7.2,0.4-14.5,0.8-21.7
			v0l0,0c0.5-0.3,1.1-0.6,1.7-0.8h0c0.2,0.2,0.5,0.5,0.6,0.7c0.2,0.3,0.4,0.5,0.6,0.8c0,0,0,0,0,0.1c-0.2,3.1,0,6.2-0.1,9.4
			c0,1.8-0.2,3.7-0.3,5.5c-0.2,1.6-0.1,3.3-0.3,4.9C600.7,82.8,600.3,83,599.8,83.1z"/>
		<path class="st3" d="M601.6,75.2c-0.4-4.4-0.3-9-1.2-13.4c-1,5.8-1.6,11.7-2.2,17.5c0,1.4-0.1,2.9-0.2,4.3c0.5-0.2,1-0.4,1.6-0.5
			c0-1.6,0.2-3.4,0.3-5c0.1-1.9,0.1-3.8,0.2-5.6c0.1-3.4,0.1-6.8,0.4-10.2c0,0,0,0,0,0c0.1,0.2,0.1,0.4,0.1,0.6
			c-0.1,3.4-0.2,6.9-0.2,10.3c0,3.3-0.1,6.6-0.6,9.9c0.5-0.1,0.9-0.3,1.3-0.6c0.2-1.6,0.1-3.3,0.3-4.9
			C601.5,76.8,601.6,76,601.6,75.2z"/>
		<path class="st1" d="M599.8,85.8c0.5-1.5,0.8-3.1,1.3-4.7s0.9-3.1,1.2-4.6c0.8-3.2,1.3-6.5,2-9.7l0,0v-0.4
			c-0.1-0.3-0.3-0.6-0.4-0.9c-0.2-0.3-0.4-0.8-0.7-0.9c0,0-0.1,0-0.1,0c-0.3,0-0.6,0.1-1,0.2c-0.2,0-0.5,0.1-0.7,0.2
			c0,0-0.1,0-0.1,0s-0.1,0.1-0.1,0.2c0,0,0,0,0,0c-1.1,3.4-1.9,7-2.8,10.5c-0.4,1.7-0.8,3.4-1.2,5.1c-0.4,1.8-1,3.5-1.2,5.4
			c-0.1,0.1-0.1,0.2,0.1,0.2c0.8-0.1,1.6,0,2.4-0.1c0.4,0,1,0,1.3-0.4C599.8,85.8,599.8,85.8,599.8,85.8z"/>
		<path class="st2" d="M598.2,86c1.1-3,1.8-6.3,2.5-9.5c0.7-3.3,1.4-6.7,2.2-10c0-0.2,0-0.5,0-0.7l0,0c-1,3.2-1.6,6.6-2.4,9.8
			c-0.4,1.8-0.8,3.6-1.3,5.5c-0.4,1.6-1,3.2-1.3,4.8c-0.5,0-1.1,0-1.6,0.1c1.7-7,3.3-14,5.1-20.9v0l0,0c0.6-0.2,1.2-0.3,1.8-0.4h0
			c0.2,0.3,0.3,0.6,0.5,0.8c0.2,0.3,0.3,0.6,0.4,1c0,0,0,0,0,0c-0.8,3-1.2,6.1-1.9,9.1c-0.4,1.8-0.9,3.6-1.4,5.3
			c-0.5,1.6-0.8,3.2-1.2,4.7C599.1,86,598.6,86.1,598.2,86z"/>
		<path class="st3" d="M601.4,78.8c0.5-4.4,1.5-8.8,1.5-13.3c-2.2,5.4-3.9,11-5.6,16.5c-0.3,1.4-0.7,2.8-1,4.2
			c0.6-0.1,1.1-0.1,1.6-0.1c0.3-1.6,0.9-3.2,1.3-4.8c0.5-1.8,0.8-3.6,1.3-5.5c0.8-3.3,1.4-6.6,2.4-9.8l0,0v0.7
			c-0.8,3.3-1.5,6.7-2.2,10c-0.7,3.2-1.4,6.4-2.5,9.5c0.5,0,1-0.1,1.4-0.2c0.5-1.6,0.8-3.2,1.2-4.7C601,80.3,601.2,79.6,601.4,78.8z
			"/>
		<path class="st1" d="M604.6,87.1c0.5-1.5,0.8-3.2,1.3-4.7c0.5-1.5,0.9-3.1,1.2-4.6c0.8-3.2,1.3-6.5,2-9.7l0,0c0-0.1,0-0.3,0-0.4
			c-0.1-0.3-0.3-0.6-0.4-0.9c-0.2-0.3-0.4-0.8-0.7-0.9c0,0-0.1,0-0.1,0c-0.3,0-0.6,0.1-1,0.2c-0.2,0-0.5,0.1-0.7,0.2
			c0,0-0.1,0-0.1,0s-0.1,0.1-0.1,0.2c0,0,0,0,0,0c-1.1,3.4-1.9,7-2.8,10.6c-0.4,1.7-0.8,3.4-1.2,5.1c-0.4,1.8-1,3.5-1.2,5.4
			c-0.1,0.1-0.1,0.2,0.1,0.2c0.8-0.1,1.6,0,2.4-0.1c0.4,0,1,0,1.3-0.4C604.6,87.1,604.6,87.1,604.6,87.1z"/>
		<path class="st2" d="M602.9,87.4c1.1-3,1.8-6.3,2.5-9.5c0.7-3.3,1.4-6.7,2.2-10c0-0.2,0-0.5,0-0.7l0,0c-1,3.2-1.6,6.6-2.4,9.8
			c-0.4,1.8-0.8,3.6-1.3,5.5c-0.4,1.6-1,3.2-1.3,4.8c-0.5,0-1.1,0-1.6,0.1c1.7-7,3.3-14,5.1-20.9v0l0,0c0.6-0.2,1.2-0.3,1.8-0.4h0
			c0.2,0.3,0.3,0.6,0.5,0.8c0.2,0.3,0.3,0.6,0.4,1c0,0,0,0,0,0c-0.8,3-1.2,6.1-1.9,9.1c-0.4,1.8-0.9,3.6-1.4,5.3
			c-0.5,1.6-0.8,3.2-1.2,4.7C603.9,87.3,603.4,87.4,602.9,87.4z"/>
		<path class="st3" d="M606.2,80.1c0.5-4.4,1.5-8.8,1.5-13.3c-2.2,5.4-3.9,11-5.6,16.5c-0.3,1.4-0.7,2.8-1,4.2
			c0.6-0.1,1.1-0.1,1.6-0.1c0.3-1.6,0.9-3.2,1.3-4.8c0.5-1.8,0.8-3.6,1.3-5.5c0.8-3.3,1.4-6.6,2.4-9.8c0,0,0,0,0,0v0.7
			c-0.8,3.3-1.5,6.6-2.2,10c-0.7,3.2-1.4,6.4-2.5,9.5c0.5,0,1-0.1,1.4-0.2c0.5-1.6,0.8-3.2,1.2-4.7C605.8,81.6,606,80.9,606.2,80.1z
			"/>
		<path class="st1" d="M599.6,84.6c0-1.6-0.3-3.2-0.4-4.9s-0.2-3.2-0.4-4.8c-0.4-3.3-1-6.6-1.4-9.8l0,0l-0.1-0.4
			c-0.2-0.2-0.4-0.4-0.7-0.6c-0.3-0.2-0.6-0.5-1-0.5c0,0-0.1,0-0.1,0.1c-0.3,0.2-0.6,0.4-0.8,0.6c-0.2,0.1-0.4,0.3-0.6,0.5
			c0,0-0.1,0-0.1,0c0,0.1,0,0.1,0,0.2c0,0,0,0,0,0.1c0.2,3.7,0.6,7.3,1,11c0.2,1.8,0.4,3.5,0.6,5.3c0.1,1.8,0.3,3.7,0.7,5.5
			c0,0.1,0,0.2,0.1,0.1c0.7-0.4,1.4-0.8,2.2-1.2c0.4-0.2,0.9-0.4,1-1C599.7,84.6,599.6,84.6,599.6,84.6z"/>
		<path class="st2" d="M598.2,85.6c0-3.3-0.4-6.6-0.9-9.8c-0.4-3.4-0.9-6.8-1.3-10.2c0-0.2-0.1-0.4-0.2-0.6c0,0,0,0,0,0.1
			c0.2,3.4,0.8,6.8,1.1,10.2c0.2,1.9,0.5,3.7,0.6,5.6c0.2,1.6,0.1,3.4,0.4,5c-0.5,0.2-1,0.5-1.5,0.8c-0.8-7.2-1.6-14.4-2.3-21.6
			c0,0,0,0,0,0l0,0c0.5-0.4,1-0.8,1.5-1.2l0,0c0.3,0.2,0.5,0.4,0.8,0.6c0.3,0.2,0.5,0.5,0.7,0.7c0,0,0,0,0,0.1
			c0.3,3.1,0.9,6.2,1.3,9.3c0.2,1.8,0.4,3.7,0.5,5.5c0.1,1.6,0.4,3.3,0.4,4.9C599,85.1,598.6,85.4,598.2,85.6z"/>
		<path class="st3" d="M598.8,77.5c-1-4.3-1.6-8.8-3-13c-0.2,5.9,0.1,11.8,0.3,17.7c0.2,1.4,0.3,2.8,0.5,4.3c0.5-0.3,1-0.6,1.5-0.8
			c-0.3-1.6-0.3-3.4-0.4-5c-0.2-1.9-0.4-3.8-0.6-5.6c-0.4-3.4-0.9-6.8-1.1-10.2c0,0,0,0,0-0.1c0.1,0.2,0.2,0.4,0.2,0.6
			c0.4,3.4,0.8,6.8,1.3,10.2c0.4,3.2,0.9,6.6,0.9,9.8c0.5-0.2,0.9-0.5,1.2-0.8c-0.1-1.6-0.4-3.3-0.4-4.9
			C598.9,79,598.8,78.2,598.8,77.5z"/>
		<path class="st14" d="M608.8,96.2L608.8,96.2c0.9-2.5,1.8-5.1,2.5-7.7c0.4-1.3,0.7-2.7,1.2-4c0.3-0.9,0.5-2,0.8-2.9c0,0,0,0,0,0
			c0-0.1,0.1-0.3,0.2-0.4c0.1-0.2,0.2-0.4,0.3-0.6c0-0.1,0-0.1,0-0.1c0-0.1,0.1-0.2,0.1-0.3c0.1-0.3,0.6-1,0.6-1.3
			c0-0.3-0.1-0.4-0.4-0.3c-0.1,0-0.3,0.1-0.4,0.2c-0.4,0.3-0.5,0-0.7-0.4c-0.1-0.3-0.4-0.4-0.7-0.3c0,0,0,0,0,0
			c-0.2,0.1-0.4,0.2-0.5,0.3c-0.6,0.4-0.6-0.6-0.9-0.8s-0.6-0.1-0.9,0.1c-0.6,0.4-0.7-0.5-1.3-0.6c-0.3-0.1-0.7,0.5-0.9,0.5l0,0
			c-0.4-0.2-0.6-1.1-1-1.2c-0.2,0-0.4,0-0.6,0.1c-0.5,0.2-0.7,0-1.1-0.3c-0.4-0.3-1,0.4-1.4,0c-0.3-0.3-0.4-0.8-0.9-0.7
			c-0.2,0.1-0.5,0.2-0.7,0.4c-0.1,0.1-0.5-0.6-0.6-0.7c-0.2-0.2-0.6,0-0.8,0.1c-0.5,0.4-0.6,0.6-1.2-0.2c-0.2-0.2-0.2-0.4-0.5-0.4
			c-0.4-0.1-1,0.8-1.4,0.4c-0.2-0.4-0.4-1-0.8-0.8c-0.6,0.1-1,0.7-1.4,0c-0.2-0.3-0.4-0.4-0.7-0.2c-0.3,0.2-0.6,0.5-1,0.2
			c-0.2-0.1-0.2-0.3-0.4-0.4c-0.1,0-0.1,0-0.2,0c0,0.1,0,0.1,0,0.2h0c0,0-0.1,0-0.2,0.1c-0.6,3-1.1,5.9-1.3,9c-0.2,3-0.7,6-0.7,9.1
			v0c-0.3,0.6-0.9,1.1-1.1,1.8v0.1c0.3,0.4,0.8,0.2,1.2,0.1c1.2-0.2,2.2,0.6,3.3,1c1,0.4,2,0.6,3,0.9c1.1,0.3,2.1,0.7,3.2,1
			c1.9,0.5,3.8,0.7,5.8,0.6c0.5-0.1,1.1,0,1.6,0.2c0.1,0,0.2,0,0.3,0C608.8,97.7,608.8,96.6,608.8,96.2z"/>
		<path class="st15" d="M608,97.4c-0.2-0.1-0.3-0.2-0.5-0.2c-0.3,0-0.6,0.1-0.9,0.1c-0.4,0-0.9,0-1.3,0c-2,0-4-0.4-5.9-1
			c-2-0.7-4.1-1.1-6.1-2.1c-0.6-0.3-0.9-0.6-1.6-0.4c-0.3,0.1-1.5,0.4-1-0.4c0.3-0.3,0.5-0.7,0.6-1.1c0,0,0.1-0.1,0.1-0.1
			c0.2-3,0.4-5.9,0.7-8.8c0.3-3.1,0.6-6.2,1.1-9.3v0c0.2,0.2,0.3,0.7,0.6,0.7c0.5,0,0.8-0.8,1.2-0.2c0.2,0.3,0.5,0.5,0.9,0.4
			c0.2-0.1,0.4-0.2,0.5-0.3c0.2-0.2,0.7,0.5,0.9,0.7h0.1c0.1,0.2,0.2,0.2,0.5,0.1c0.2-0.1,0.4-0.2,0.6-0.4c0.6-0.4,0.6,0.5,1,0.8
			s0.6,0.1,1-0.1c0.5-0.3,0.8-0.4,1.1,0.4c0,0.1,0.1,0.1,0.2,0.2c0.1,0,0.2,0,0.3-0.1c0.4-0.3,0.8-0.3,1.2,0.2
			c0.3,0.4,0.6,0.3,1,0.1c0.4-0.2,0.8,0.5,1.3,0.4c0.5-0.1,1.1,0,1.4,0.5c0.1,0.1,0.2,0.2,0.3,0.3c0,0,0,0.1,0,0.2
			c0,0,0.1,0.1,0.1,0.1c0,0,0,0,0,0c0.3-0.1,0.6-0.2,0.9-0.4c0.4-0.2,0.6,0.6,0.8,0.8c0.3,0.1,0.5-0.1,0.7-0.2
			c1-0.6,0.7,0.9,1.3,0.8c0.3,0,1.1-0.5,1.3-0.4c0.2,0.2,0.2,0.9,0.6,0.9s1.3-0.9,0.7,0.2c-0.3,0.5-0.5,1.1-0.6,1.7
			c-0.3,0.9-0.6,1.8-0.8,2.7c-0.4,1.4-0.9,2.9-1.3,4.4c-0.7,2.8-2,5.4-2.6,8.2v0.1c-0.1,0.3-0.1,0.5-0.2,0.8
			C608.3,97.6,608.2,97.6,608,97.4z"/>
		<path class="st6" d="M594.6,74.9c0.1,0,0.2,0,0.2,0c0.3,0.3,0.5,0.6,0.7,0.9c0.3-0.3,0.7-0.8,1-0.7c0.4,0.1,0.9,1.5,1.1,1.3
			c0.2-0.2,0.8-1,1.2-0.8c0.4,0.3,0.6,0.9,0.9,1.3c0.3-0.4,0.7-0.7,1.1-0.9c0.1,0,0.2,0,0.2,0c0,0,0,0,0,0c0.2,0.4,0.4,0.7,0.6,1.1
			c0.3,0.3,0.7-0.2,0.9-0.4c0.2-0.2,0.7,0,0.9,0.2c0.2,0.3,0.4,1,1,0.5c0.2-0.2,0.4-0.3,0.6-0.4c0.4-0.1,0.6,0.2,0.8,0.6
			c0.4,0.7,0.8-0.2,1.2,0.1c0.4,0.2,0.4,1.5,1.1,0.8c0.2-0.2,0.6-0.5,0.9-0.4c0.2,0.1,0.3,0.6,0.4,0.8c0.3,0.4,0.8-0.1,1-0.2
			c0.1,0,0.2,0,0.2,0c0,0,0,0,0,0c0.2,0.5,0.4,1.1,0.9,0.7c0.1-0.1,0.4-0.2,0.6-0.2c0.2,0.1,0.4,0.2,0.4,0.4c0.1,0.4,0.3,0.7,0.6,1
			c0.1-0.4,0.3-0.9,0.5-1.3c0.6-1.1-0.3-0.2-0.7-0.2c-0.4,0-0.4-0.7-0.6-0.9c-0.2-0.2-1,0.4-1.3,0.4c-0.6,0-0.3-1.4-1.3-0.8
			c-0.2,0.1-0.5,0.3-0.7,0.2c-0.3-0.1-0.5-1-0.8-0.8c-0.2,0.2-0.5,0.4-0.9,0.4c0,0-0.1,0-0.1,0c0,0,0-0.1,0-0.2
			c-0.1,0-0.3-0.1-0.3-0.3c-0.3-0.5-0.8-0.6-1.4-0.5c-0.5,0-0.9-0.7-1.3-0.4c-0.4,0.2-0.7,0.3-1-0.1c-0.2-0.4-0.7-0.5-1-0.3
			c-0.1,0-0.1,0.1-0.2,0.1c-0.1,0.1-0.2,0.1-0.3,0.1c-0.1,0-0.2-0.1-0.2-0.2c-0.3-0.7-0.6-0.7-1.1-0.4c-0.4,0.2-0.6,0.4-1,0.1
			c-0.4-0.2-0.4-1.2-1-0.8c-0.2,0.1-0.4,0.3-0.6,0.4c-0.2,0.1-0.4,0.1-0.5-0.1h-0.1c-0.2-0.2-0.7-0.8-0.9-0.7
			c-0.2,0.1-0.3,0.2-0.5,0.3c-0.3,0.1-0.7,0-0.9-0.4c-0.4-0.6-0.8,0.2-1.2,0.2c-0.3,0-0.4-0.4-0.6-0.7v0c-0.1,0.6-0.2,1.3-0.3,1.9
			C593.5,75.6,594.1,75.2,594.6,74.9z"/>
		<path class="st4" d="M596.4,79.8c-0.4-0.4-0.9-0.7-1.4-1.2c1.2,2.8,3.2,5.1,5.9,6.5c-0.7-0.9-1.3-1.8-2-2.7
			C598.2,81.4,597.3,80.6,596.4,79.8z"/>
		<path class="st4" d="M600.9,87.2c1,0.1,1.9,0,2.8-0.3c1.2-0.4,2-1,2.4-2.2C604.6,85.9,602.8,86.6,600.9,87.2z"/>
		<path class="st16" d="M608.3,97.2c0-0.3,0.1-0.6,0.2-0.8c0,0,0-0.1,0-0.1c0,0,0,0,0,0c0.6-2.8,1.8-5.4,2.6-8.2
			c0.4-1.5,0.9-2.9,1.3-4.4c0.2-0.9,0.5-1.8,0.8-2.7c0.1-0.6,0.3-1.2,0.6-1.7c0.6-1.1-0.3-0.2-0.7-0.2c-0.4,0-0.4-0.7-0.6-0.9
			c-0.1,0-0.3,0-0.4,0c-0.6,0.9-1.4,1.6-2.4,2.2c-1.1,0.7-2.3,1.2-3.4,1.8c-0.8,0.4-1.8,0.6-2.5,1.2c1.9,0.6,3.9-0.4,5.6-1.2
			c0.1,0,0.2,0.1,0.2,0.2c0,0,0,0,0,0.1c-0.7,2.2-2.2,4.6-3.9,5.8c-1.6,1-3.5,1.4-5.4,1c-3.4-0.6-6.8-3.5-6.6-7.7
			c0-0.1,0.1-0.2,0.2-0.2c0.1,0,0.1,0,0.2,0.1c0.7,1.2,1.7,2.3,2.8,3.1c0.7,0.6,1.6,1.3,2.5,1.5c-0.5-0.9-1.6-1.6-2.2-2.3
			c-0.8-1-1.6-2-2.2-3.1c-1-1.8-1.6-3.8-1.9-5.8c-0.4,2.8-0.6,5.6-1,8.4c-0.3,3-0.6,5.8-0.7,8.8c0,0,0,0.1-0.1,0.1
			c-0.2,0.4-0.4,0.8-0.6,1.1c-0.6,0.7,0.7,0.4,1,0.4c0.7-0.2,1,0.1,1.6,0.4c1.9,1,4,1.4,6.1,2.1c1.9,0.7,3.9,1,5.9,1
			c0.4,0,0.9,0.1,1.3,0c0.3-0.1,0.6-0.1,0.9-0.1c0.2,0,0.4,0.1,0.5,0.2C608.2,97.6,608.3,97.6,608.3,97.2z"/>
		<path class="st4" d="M595.4,82c0.9,1.7,2.3,3.1,4,4c-0.6-0.8-1.5-1.5-2.1-2.2c-1.4-1.6-2.5-3.5-3.2-5.6
			C594.2,79.6,594.7,80.9,595.4,82z"/>
		<path class="st16" d="M608.3,97.2c0-0.3,0.1-0.6,0.2-0.8c0,0,0-0.1,0-0.1c0,0,0,0,0,0c0.6-2.8,1.8-5.4,2.6-8.2
			c0.4-1.5,0.9-2.9,1.3-4.4c0.2-0.5,0.3-1,0.4-1.6l-0.2,0.5c-0.9,2-1.8,4-3.1,5.6c-1,1.4-2.1,2.6-3.6,3.2c-1.4,0.4-2.9,0.5-4.3,0.2
			c-2.8-0.3-6.4-1.3-8-4.2c-0.9-1.7-1.2-3.6-1.3-5.5l-0.1,1.3c-0.3,3-0.6,5.8-0.7,8.8c0,0,0,0.1-0.1,0.1c-0.2,0.4-0.4,0.8-0.6,1.1
			c-0.6,0.7,0.7,0.4,1,0.4c0.7-0.2,1,0.1,1.6,0.4c1.9,1,4,1.4,6.1,2.1c1.9,0.7,3.9,1,5.9,1c0.4,0,0.9,0.1,1.3,0
			c0.3-0.1,0.6-0.1,0.9-0.1c0.2,0,0.4,0.1,0.5,0.2C608.2,97.6,608.3,97.6,608.3,97.2z"/>
		<path class="st17" d="M552.8,99.1c-1.4,0-3.9-0.1-4-1.2c-1-4-5.9-23.9-5.9-24.1v-0.2l20.8-3.2l0,0.2c0,0.1,0,0.2,0,24.1v0.8
			c0,0,0,0.1,0,0.1c0.2,1.4-3.6,2.7-7.2,3.2C555.3,98.9,554.1,99,552.8,99.1z"/>
		<path class="st18" d="M543.3,73.9c0.4,1.9,4,16.2,5.8,23.9c0,0.5,1.2,0.9,3.7,0.9c1.2,0,2.4-0.1,3.6-0.3c4.4-0.7,7-2.1,6.9-2.8
			l0-0.1v-0.9c0-18.1,0-22.8,0-23.8L543.3,73.9z"/>
		<path class="st6" d="M546.9,85.5c-0.6-2.7-1.3-5.4-2-8.1c-0.3-1.2-0.6-2.5-0.9-3.7l-0.8,0.1c0.4,1.9,4,16.2,5.8,23.9
			c0,0.2,0.3,0.4,0.9,0.6C549.2,94,547.9,89.8,546.9,85.5z"/>
		<path class="st18" d="M563.2,94.6c0-18.1,0-22.8,0-23.8l-20,3.1c0.1,0.3,0.2,1,0.5,2c1.1,0.6,2.4,1,3.6,1c1.7,0.2,3.5,0.2,5.2,0
			c1-0.1,2.5-0.6,3.4,0.2c0.8,0.7,1.1,1.8,1.3,2.8c0.6,2.8,0.6,5.6,0.8,8.4c0.2,2.5,0.5,5,0.8,7.5c0.1,0.6,0.2,1.3,0.3,2
			c2.6-0.7,4.1-1.6,4-2.2l0-0.1L563.2,94.6z"/>
		<path class="st5" d="M548.3,75.8L548.3,75.8c-1.7,0-5.7-0.1-5.9-1.8l-1-3.6l23.1-3.6l-0.1,3.8c0.1,1-1.6,2-3,2.6
			c-2.4,1-5,1.6-7.6,2C551.9,75.7,550.1,75.8,548.3,75.8z"/>
		<path class="st19" d="M541.8,70.9l0.9,3.1c0.1,0.8,1.8,1.4,5.6,1.4c1.8,0,3.6-0.2,5.4-0.5c2.6-0.4,5.1-1,7.5-2
			c1.8-0.8,2.9-1.6,2.8-2.2l0.1-3.3L541.8,70.9z"/>
		<path class="st19" d="M541.8,70.9l0,0.1c1.1,1.2,2.8,1.6,4.3,1.9c2.2,0.4,4.5,0.3,6.7-0.1c1.4-0.3,3.1-0.6,4.2,0.8
			c0.1,0.2,0.2,0.4,0.3,0.6c1.3-0.3,2.6-0.7,3.8-1.2c1.8-0.8,2.9-1.6,2.8-2.2l0.1-3.3L541.8,70.9z"/>
		<path class="st20" d="M593.6,97c0.1-0.2,0.2-0.4,0.3-0.5c0.2-0.4,0.3-0.8,0.5-1.1c0.7-1.6,1-3.4,0.8-5.1c-0.2-2.3-1.3-4.5-2.5-6.3
			c-2.6-3.9-6.8-5.7-10.9-6.6c-4.4-1-9.1-0.4-13.1,1.6c-3.5,1.7-6.9,4.5-8.4,8.6c-0.7,2.1-0.9,4.4-0.5,6.6c0.2,1.2,0.7,2.4,1.5,3.4
			c0,0-0.1,0.1,0,0.1c1,1.1,2.2,2.1,3.5,2.8c1.4,0.7,2.9,1.3,4.4,1.8c3,1,6.3,1,9.4,0.8c3.1-0.2,6.2-0.9,9.2-2.1
			c1.3-0.6,2.6-1.3,3.7-2.2C592.4,98.3,593,97.7,593.6,97z"/>
		<path class="st21" d="M588.1,80.1c-4.2-2.4-9.1-3.4-13.9-2.6c-2.4,0.4-4.7,1.3-6.8,2.6c-2,1.2-4,2.7-5.3,4.8
			c-1.5,2.2-2.2,4.9-2,7.6c0.1,1.4,0.4,2.8,1,4c0.5,0.9,1.1,1.6,1.8,2.3c2,1.4,4.1,2.2,6.4,3c2.9,1,6,1.1,9,0.9c3-0.2,6-0.8,8.9-1.8
			c1.4-0.5,2.7-1.2,4-2.1c1-0.7,1.9-1.5,2.7-2.4c0.6-1.3,1.1-2.7,1.2-4.2C595.3,87,591.9,82.3,588.1,80.1z"/>
		<path class="st22" d="M588.1,80.1c-4.2-2.4-9.1-3.4-13.9-2.6c-2.4,0.4-4.7,1.3-6.8,2.6c-1.2,0.7-2.3,1.5-3.4,2.5
			c3.4-1.4,7-1.3,10.5-0.2c2.3,0.7,4.4,2,6.8,2.6c2.6,0.7,5,0.2,7.5-0.9c0.1,0,0.2,0,0.2,0.1c0.2,1.2-0.5,2.4-1.2,3.2
			c-0.8,0.9-1.6,1.8-2.5,2.6c0.9-0.2,1.6-1,2.2-1.8c0.6-0.7,1.2-1.5,1.7-2.4c0.1-0.2,0.5-0.3,0.7-0.2c0.1,0.1,0.2,0.1,0.2,0.2
			c0.4,0.8,0.5,1.6,0.5,2.4c-0.2,4.2-3.6,7.9-6.8,9.4c-3.2,1.5-6.8,2.1-10.3,1.6c-1.5-0.2-3.1-0.6-4.3-1.7c-0.9-0.8-1.8-2-1.6-3.5
			c0.4-2.6,3.2-4.4,5.4-5.2c-1.4-0.2-2.9,0.6-4.3,1.1c-0.1,0-0.2,0-0.2-0.1c-0.2-0.6-0.2-1.2-0.2-1.9c-0.1-0.8-0.3-1.6-0.7-2.3
			c-0.5-1-1.3-1.7-2.3-2.1c-0.7-0.3-1.3-0.4-2-0.5c-0.4,0.5-0.8,1-1.2,1.5c-1.5,2.2-2.2,4.9-2,7.6c0.1,1.4,0.4,2.8,1,4
			c0.5,0.9,1.1,1.6,1.8,2.3c2,1.4,4.1,2.2,6.4,3c2.9,1,6,1.1,9,0.9c3-0.2,6-0.8,8.9-1.8c1.4-0.5,2.7-1.2,4-2.1
			c1-0.7,1.9-1.5,2.7-2.4c0.6-1.3,1.1-2.7,1.2-4.2C595.3,87,591.9,82.3,588.1,80.1z"/>
		<path class="st22" d="M565.8,81.5c1.3-0.1,2.5-0.4,3.8-0.6c1.2-0.2,2.4-0.2,3.6,0c1.2,0.3,2.3,0.7,3.4,1.2c2.6,1,5.3,1.8,8,1.8
			c1.4,0,2.8-0.2,4.1-0.7c0.7-0.3,1.3-0.6,1.9-1.1l0,0c-0.8-0.7-1.6-1.4-2.5-1.9c-4.2-2.4-9.1-3.4-13.9-2.6
			c-2.4,0.4-4.7,1.3-6.8,2.6c-0.7,0.4-1.4,0.9-2.1,1.4C565.4,81.5,565.6,81.5,565.8,81.5z"/>
		<path class="st22" d="M594.4,93.6c-0.7,1.9-2.3,3.2-3.8,4.3c-3.9,2.6-8.5,4-13.2,3.8c-2.6-0.1-5.2-0.5-7.7-1.1
			c-1.8-0.5-4.7-1.3-5.3-3.6c-0.8-3.2,3-5,2.7-8.1c-0.3-3.2-2.8-3.9-5.3-3.8c-1.3,2.2-1.9,4.7-1.8,7.2c0.1,1.4,0.4,2.8,1,4
			c0.5,0.9,1.1,1.6,1.8,2.3c2,1.4,4.1,2.2,6.4,3c2.9,1,6,1.1,9,0.9c3-0.2,6-0.8,8.9-1.8c1.4-0.5,2.7-1.2,4-2.1
			c1-0.7,1.9-1.5,2.7-2.4c0.6-1.3,1.1-2.7,1.2-4.2c0-0.5,0-0.9,0-1.4C594.9,91.8,594.7,92.7,594.4,93.6z"/>
		<path class="st23" d="M582,99.7c0.4,0.4,0.9,0.6,1.5,0.5c0.6,0,0.8-0.6,1-1.1c0.2-0.3,0.3-0.6,0.6-0.6c0.1,0,0.3,0,0.4,0l0,0
			c0.4,0.2,0.6,0.7,0.8,1.1c0,0,0.1,0.1,0.2,0.1c0.5,0.2,1,0.2,1.4,0c0.5-0.1,0.9-0.5,1-1c0.2-0.7-0.6-1.5-0.2-2.2
			c0.5-1.1,2,0.6,2.5,0.8c0.4,0.2,0.9,0.1,1.2-0.2c1.2-0.7,1.5-2.2,1.1-3.6c-0.3-1,0-1.9,1.2-1.7c0.3,0.1,0.6,0.1,0.9,0.2
			c0.5,0,0.8-0.2,0.9-0.8c0.2-0.7-0.4-1.4-0.6-2c-0.2-0.5-0.4-1.3-0.2-1.8c0.1-0.2,0.3-0.4,0.5-0.6c0.3-0.2,0.7-0.4,1-0.4
			c-1.1-0.7-2.4-1.1-3.7-1.2c-1.4-0.2-2.7-0.3-4.1-0.2c0,0,0,0,0,0.1l0,0c0,0,0,0,0,0.1c-0.1,0.2-0.2,0.4-0.3,0.6
			c0,0.1-0.1,0.3-0.2,0.4c-0.2,0.5-0.5,1-0.8,1.5c-0.5,1-1.2,1.9-1.9,2.7c-0.9,1.1-1.8,2.2-3,3c-0.4,0.3-0.8,0.6-1.2,0.9
			c-0.4,0.2-0.7,0.4-1.1,0.6h-0.1c0.3,0.8,0.6,1.6,0.6,2.4v0c0.1,0.3,0.1,0.7,0.1,1C581.8,98.5,581.6,99.3,582,99.7z"/>
		<path class="st24" d="M582,98.7v-0.4c0-0.4,0-0.9-0.1-1.3c-0.1-0.6-0.3-1.2-0.4-1.7c0.1,0,0.1,0,0.1-0.1c0-0.1-0.1-0.2-0.2-0.3v0
			c0-0.1,0.5-0.3,0.5-0.4c0.5-0.3,1-0.6,1.4-1c1.1-0.8,2-1.7,2.8-2.7c0.8-0.9,1.7-1.8,2.2-3c0.2-0.5,0.5-1,0.7-1.4
			c0.2-0.6,0.4-1.1,0.7-1.6l0,0c1.3,0,2.6,0.1,3.9,0.4c1.1,0.2,2.2,0.5,3.2,1c-0.3,0-0.5,0.1-0.8,0.2c-0.4,0.3-0.7,0.8-0.6,1.4
			c0.1,1,0.5,1.6,0.8,2.5c0.1,0.3,0.1,0.5,0.1,0.8c-1-0.8-2.1-1.4-3.2-2.1c-0.5-0.3-1-0.6-1.6-0.9c0.4,0.3,0.8,0.6,1.1,0.9l0.6,0.4
			c1,0.6,2,1.4,3,1.9l0,0c-0.1,0.3-0.4,0.4-0.6,0.4c-0.2,0-0.4,0-0.6-0.1c-0.2,0-0.4-0.1-0.6-0.1c-0.5,0-0.9,0.3-1,0.7
			c-0.3,0.8,0.2,1.5,0.2,2.4c0,1.2-0.4,2-1.4,2.5c-0.8,0.4-1.3-0.4-2-0.7c-0.7-0.3-1.7-0.4-1.5,0.8c0,0.1,0,0.2,0,0.3
			c-0.4-0.7-0.8-1.4-1.2-2l0.2,0.6c0.1,0.2,0.2,0.4,0.4,0.6c0.2,0.3,0.3,0.6,0.5,1v0l0.2,0.4l0,0c0.1,0.7,0,1.2-0.8,1.6
			c-0.7,0.2-1.3,0.2-1.7-0.6c-0.1-0.2-0.2-0.3-0.4-0.4c-0.2-0.4-0.4-0.8-0.6-1.2c-0.1-0.1-0.1-0.2-0.2-0.3l-0.2-0.2
			c-0.1-0.1-0.3-0.3-0.4-0.4c0.4,0.6,0.8,1.3,1.1,1.9c-0.2,0-0.5,0-0.6,0.1c-0.5,0.4-0.6,1-1,1.4c-0.5,0.4-1.2,0.4-1.6-0.1
			C582.1,99.3,582,99,582,98.7z"/>
		<path class="st25" d="M581.8,98c0-0.3,0-0.7-0.1-1v0c0-0.8-0.3-1.7-0.6-2.4c0,0,0,0,0.1,0c0.3-0.2,0.7-0.4,1.1-0.6
			c0.4-0.3,0.8-0.6,1.2-0.9c1.1-0.8,2-2,3-3c0.7-0.8,1.3-1.7,1.9-2.7c0.3-0.5,0.6-1,0.8-1.5c0.1-0.1,0.1-0.3,0.2-0.4
			c0.1-0.2,0.2-0.4,0.3-0.6c0,0,0,0,0-0.1l0,0c0,0,0,0,0-0.1c1.3,0,2.7,0,4,0.2c-0.2,0-0.5,0.1-0.7,0.2c-0.1,0-0.2,0.3,0,0.3
			c1.3,0.6,2.4,1.7,3,3c0,0.2,0.1,0.3,0.2,0.5c0.1,0.2,0.2,0.5,0.3,0.7c0.2,0.6,0.2,1.2,0.2,1.8c-0.2,0.3-0.5,0.4-0.8,0.4
			c-0.3,0-0.6-0.1-0.9-0.2c-1.1-0.2-1.5,0.7-1.2,1.7c0.1,0.5,0.2,1.1,0.2,1.6c-0.8-0.4-2-0.6-2.4,0.3c-0.2,0.4-0.2,1,0.2,1.3
			c0.2,0.2,0.4,0.4,0.6,0.6c-0.3,0.1-0.6,0.1-0.9,0c-0.5-0.2-2-1.8-2.5-0.8c-0.3,0.6,0.2,1.3,0.2,1.9c-0.5-0.6-1-1.2-1.6-1.8
			c-0.4-0.5-0.8-0.9-1.4-1.2c-0.1,0-0.1,0-0.2,0.1c0,0,0,0,0,0.1c-0.2,0.8,0.4,1.6,0.7,2.2c0.3,0.6,0.8,1.4,1.2,2.1
			c-0.4,0.1-0.8,0.1-1.2,0c0,0-0.1,0-0.2-0.1c-0.2-0.4-0.5-0.9-0.8-1.1l0,0c-0.1,0-0.1-0.1-0.2,0c-0.2-0.5-0.5-1-0.9-1.4
			c-0.3-0.3-0.8-0.7-1.2-0.2c-0.4,0.5-0.3,1.4-0.2,2.1c0,0.4,0.1,0.8,0.2,1.3c-0.5,0-1-0.2-1.3-0.5C581.6,99.3,581.8,98.5,581.8,98z
			"/>
		<path class="st26" d="M585.6,96.6c0.3-0.5,0.5-1.1,0.6-1.6c0.1-0.8,0.1-1.6,0.1-2.4c0-0.1-0.2-1,0-1.1c0.2-0.1,0.4-0.2,0.5-0.3
			c0.4,1.7,0.4,3.9-0.8,5.2c-0.4,0.4-0.8,0.7-1.4,0.8C585,97.2,585.3,96.9,585.6,96.6z"/>
		<path class="st27" d="M591,81.1c-0.1,0-0.1,0.1,0,0.2c0,0.3,0,0.6,0,1c0,0.1,0,0.1,0.1,0.2c0,0.3,0,0.6,0.1,0.9
			c0.1,0.3,0.7,0.3,0.9,0.4c0.7,0.2,1.4,0.6,2,1c0.6,0.4,1,0.9,1.1,1.6c0,0.3,0.1,0.6,0.2,1c0,0,0,0,0,0c-0.2,1-0.8,1.8-1.6,2.4
			c-1.2,0.9-2.6,0.6-3.9,0.4c-0.7-0.1-0.8,0.4-0.6,1.1v0c0.1,2,3,1.6,4.1,1.2c1.1-0.2,2.1-0.9,2.7-1.8c0.5-0.7,0.6-1.8,0.6-2.7
			c0-0.3,0.1-0.6,0.1-0.8C596.8,84.1,593.8,80.9,591,81.1z"/>
		<path class="st28" d="M596.4,87.2C596.4,87.2,596.4,87.2,596.4,87.2l0,0.6c0,0.1,0,0.2,0,0.4c-0.2,1.5-1.2,2.7-2.6,3.3
			c-1.4,0.7-2.9,0.4-4.3,0c-0.1,0,0,0.1,0,0.2c1.7,0.6,3.2,0.8,4.9,0c0.9-0.5,1.6-1.3,1.9-2.3c0,0.2-0.1,0.4-0.1,0.6
			c-0.3,0.9-1,1.6-1.8,2c-0.8,0.3-1.6,0.6-2.4,0.7c-0.7,0.1-2.4,0.1-2.6-1l0,0c-0.1-0.5-0.1-1.1,0.5-1c0.4,0.1,0.7,0.1,1.1,0.2
			c0.7,0.1,1.4,0.1,2.1-0.2c1.3-0.4,2.2-1.6,2.6-3.1c0.8-3-2.2-5-4.4-5.4v-0.1c0-0.2,0-0.5,0-0.7C593.9,81.4,596.4,84.1,596.4,87.2z
			"/>
		<path class="st27" d="M587.8,90.4c0-0.1-0.1,0-0.2,0c-0.3,0.1-0.5,0.2-0.8,0.4c0,0-0.1,0.1-0.1,0.2c-0.3,0.1-0.5,0.2-0.7,0.4
			c-0.2,0.2,0,0.8,0,1.1c0.1,0.9,0,1.7-0.1,2.6c0,0.7-0.4,1.3-0.9,1.8c-0.3,0.1-0.5,0.3-0.7,0.5l0,0c-0.9,0.1-1.8-0.2-2.6-0.8
			c-1.2-1-1.4-2.5-1.8-4c-0.2-0.8-0.6-0.6-1.1-0.3h0c-1.6,0.8-0.2,3.8,0.5,4.8s1.4,1.9,2.4,2.3c0.8,0.3,1.6,0,2.4-0.4
			c0.2,0,0.5-0.1,0.7-0.2C587.5,97.7,588.9,93.3,587.8,90.4z"/>
		<path class="st28" d="M584.8,98.4C584.8,98.4,584.8,98.4,584.8,98.4l-0.5,0.2c-0.1,0-0.2,0-0.3,0.1c-1.4,0.3-2.6-0.4-3.6-1.5
			c-1-1.2-1.4-2.9-1.6-4.6c0-0.1-0.1,0-0.1,0.1c0.1,2,0.6,3.7,1.8,5.2c0.6,0.8,1.6,1.2,2.6,1.2c-0.2,0-0.4,0.1-0.6,0.1
			c-0.9,0.1-1.7-0.6-2.3-1.2c-0.6-0.7-1-1.5-1.4-2.3c-0.4-0.7-1-2.5-0.1-3.1l0,0c0.4-0.3,0.8-0.5,1,0.2c0.1,0.4,0.2,0.8,0.2,1.2
			c0.1,0.8,0.4,1.5,0.9,2.2c0.7,1.1,2.1,1.8,3.4,1.6c2.8-0.3,3.3-4.2,2.7-6.7c0,0,0,0,0,0l0,0c0.2-0.1,0.4-0.2,0.6-0.3
			C588.6,93.6,587.3,97.3,584.8,98.4z"/>
		<path class="st23" d="M579.9,95.4c-0.2-0.3-0.3-0.6-0.4-0.9l0,0c-0.3-0.8-0.6-1.6-0.6-2.4c0,0,0,0-0.1,0c-0.4,0-0.8,0.1-1.2,0.1
			c-0.5,0-1,0-1.5,0c-1.3,0-2.6-0.4-3.9-0.7c-1-0.3-1.9-0.6-2.8-1.1c-0.5-0.2-0.9-0.5-1.4-0.8c-0.1-0.1-0.2-0.2-0.3-0.2
			c-0.2-0.1-0.4-0.2-0.5-0.3c0,0,0,0-0.1,0v0l0,0c-1.2,0.8-2.3,1.7-3.3,2.7c-1,0.9-1.9,2.1-2.6,3.3c0.3-0.2,0.7-0.3,1.1-0.3
			c0.2,0,0.5,0.1,0.7,0.2c0.4,0.3,0.6,1.1,0.7,1.6c0.1,0.7,0,1.6,0.4,2.1c0.2,0.3,0.7,0.5,1,0.2c0.1,0,0.1-0.1,0.1-0.1
			c0.2-0.2,0.4-0.4,0.7-0.7c0.8-0.9,1.6-0.3,1.8,0.7c0.3,1.5,1.3,2.5,2.6,2.4c0.4,0,0.9-0.2,1.1-0.6c0.4-0.5,0.8-2.8,1.7-2.2
			c0.6,0.4,0.4,1.5,0.9,2c0.3,0.3,0.9,0.5,1.3,0.3c0.5-0.1,0.9-0.4,1.2-0.9c0,0,0.1-0.1,0.1-0.2c-0.1-0.5,0-1,0.2-1.4l0,0
			c0.1-0.1,0.2-0.2,0.3-0.3c0.3-0.1,0.6-0.1,0.8,0.2c0.4,0.2,0.9,0.6,1.4,0.3c0.5-0.3,0.8-0.8,1-1.4
			C580.6,96.4,580.2,95.9,579.9,95.4z"/>
		<path class="st24" d="M578.9,98.2c-0.5-0.1-0.9-0.6-1.5-0.6c-0.2,0-0.5,0.1-0.6,0.3c0-0.8,0-1.5,0-2.3c0,0.2-0.1,0.4-0.2,0.6
			c0,0.1,0,0.2-0.1,0.3c0,0.1,0,0.3,0,0.4c0,0.5,0,0.9,0,1.4c-0.1,0.2-0.1,0.4-0.1,0.6c0.1,0.7-0.4,1.4-1.1,1.6
			c-0.9,0.3-1.2-0.2-1.4-0.8v0c0-0.1,0-0.3,0-0.4v0c0-0.4,0-0.7,0-1.1c0-0.2,0-0.5,0-0.8c0-0.2,0-0.4-0.1-0.6c0,0.8-0.1,1.6-0.1,2.4
			c0-0.1-0.1-0.2-0.1-0.3c-0.4-1.2-1.2-0.5-1.7,0.2c-0.4,0.7-0.5,1.7-1.4,1.8c-1.1,0.2-1.8-0.3-2.4-1.2c-0.4-0.7-0.3-1.6-0.9-2.1
			c-0.4-0.3-0.9-0.2-1.2,0.1c-0.2,0.1-0.4,0.3-0.5,0.5c-0.1,0.2-0.3,0.3-0.4,0.4c-0.3,0.2-0.5,0.2-0.7,0.1l0,0
			c0.6-1.1,1-2.4,1.6-3.5c0.1-0.2,0.2-0.4,0.3-0.7c0.2-0.5,0.4-1,0.6-1.4c-0.3,0.6-0.6,1.2-0.9,1.8c-0.7,1.2-1.2,2.5-1.8,3.7
			c-0.2-0.2-0.3-0.5-0.3-0.7c-0.2-0.9-0.1-1.7-0.5-2.6c-0.2-0.5-0.7-0.8-1.2-0.8c-0.3,0-0.5,0.1-0.8,0.3c0.6-1,1.4-1.9,2.2-2.8
			c1-1,2-1.9,3.1-2.7l0,0c0.4,0.2,0.9,0.7,1.4,1s0.9,0.5,1.3,0.8c1,0.6,2.2,0.9,3.3,1.2c1.2,0.3,2.4,0.5,3.7,0.5
			c0.5,0,1.1,0,1.6-0.1c0.2,0,0.4,0,0.6,0v0.1c0,0.1,0,0.2,0,0.4c0,0.1,0,0.1,0.1,0c0.1,0.6,0.3,1.2,0.4,1.7
			c0.1,0.4,0.3,0.8,0.5,1.2l0.2,0.4C580.5,97.1,579.7,98.3,578.9,98.2z"/>
		<path class="st25" d="M579.9,95.4c-0.2-0.3-0.3-0.6-0.4-0.9l0,0c-0.3-0.8-0.6-1.6-0.6-2.4c0,0,0,0-0.1,0c-0.4,0-0.8,0.1-1.2,0.1
			c-0.5,0-1,0-1.5,0c-1.3,0-2.6-0.4-3.9-0.7c-1-0.3-1.9-0.6-2.8-1.1c-0.5-0.2-0.9-0.5-1.4-0.8c-0.1-0.1-0.2-0.2-0.3-0.2
			c-0.2-0.1-0.4-0.2-0.5-0.3c0,0,0,0-0.1,0v0l0,0c-1.1,0.8-2.2,1.7-3.3,2.6c0.2-0.1,0.4-0.2,0.7-0.2c0.1,0,0.2,0,0.2,0.1
			c0,0,0,0.1,0,0.1c-0.8,1.3-1.2,2.9-1.1,4.4c0,0.2,0.1,0.4,0.1,0.5c0,0.3,0,0.5,0,0.8c0.1,0.6,0.3,1.1,0.6,1.6
			c0.3,0.2,0.5,0.1,0.9-0.1c0.2-0.2,0.4-0.4,0.7-0.7c0.8-0.9,1.6-0.3,1.8,0.7c0.1,0.5,0.3,1,0.6,1.4c0.5-0.8,1.4-1.7,2.2-1.3
			c0.4,0.3,0.6,0.7,0.5,1.2c0,0.3-0.2,0.6-0.2,1c0.3-0.1,0.5-0.3,0.7-0.5c0.4-0.5,0.8-2.8,1.7-2.2c0.5,0.4,0.4,1.2,0.7,1.8
			c0.1-0.8,0.3-1.7,0.5-2.5c0.1-0.6,0.3-1.2,0.6-1.8c0-0.1,0.1-0.1,0.2-0.1c0,0,0,0,0,0c0.5,0.6,0.5,1.6,0.5,2.3
			c0,0.8-0.1,1.7,0,2.5c0.4-0.2,0.7-0.4,1-0.8c0,0,0.1-0.1,0.1-0.2c-0.1-0.5,0-1,0.2-1.4l0,0c0,0,0.1-0.1,0.2-0.2
			c-0.1-0.6,0-1.1,0.1-1.7c0.1-0.4,0.4-1.1,0.9-0.9c0.6,0.2,0.9,1,1.2,1.6c0.2,0.4,0.3,0.8,0.4,1.2c0.4-0.3,0.7-0.8,0.9-1.2
			C580.6,96.4,580.2,95.9,579.9,95.4z"/>
		<path class="st23" d="M571.7,95.4c0-0.3,0-0.7,0.1-1v0c0-0.8,0.3-1.7,0.6-2.4c0,0,0,0-0.1,0c-0.3-0.2-0.7-0.4-1.1-0.6
			c-0.4-0.3-0.8-0.6-1.2-0.9c-1.1-0.8-2-2-3-3c-0.7-0.8-1.3-1.7-1.9-2.7c-0.3-0.5-0.6-1-0.8-1.5c-0.1-0.1-0.1-0.3-0.2-0.4
			c-0.1-0.2-0.2-0.4-0.3-0.6c0,0,0,0,0-0.1l0,0c0,0,0,0,0-0.1c-1.4,0-2.7,0-4.1,0.2c-1.3,0.1-2.6,0.6-3.7,1.2c0.6,0.1,1.2,0.5,1.5,1
			c0.2,0.5,0,1.3-0.2,1.8c-0.2,0.6-0.8,1.3-0.6,2c0,0.5,0.4,0.9,0.9,0.8c0.3,0,0.6-0.1,0.9-0.2c1.1-0.2,1.5,0.7,1.2,1.7
			c-0.4,1.4-0.1,2.9,1.1,3.6c0.4,0.3,0.8,0.3,1.2,0.2c0.5-0.2,2-1.8,2.5-0.8c0.3,0.7-0.4,1.5-0.2,2.2c0.1,0.5,0.5,0.9,1,1
			c0.5,0.2,1,0.2,1.4,0c0.1,0,0.1,0,0.2-0.1c0.2-0.4,0.5-0.9,0.8-1.1l0,0c0.1-0.1,0.3-0.1,0.4,0c0.3,0,0.5,0.4,0.6,0.6
			c0.3,0.4,0.5,1.1,1,1.1c0.5,0,1.1-0.2,1.5-0.5C571.8,96.7,571.7,95.9,571.7,95.4z"/>
		<path class="st24" d="M569.6,97c-0.4-0.4-0.5-1-1-1.4c-0.2-0.1-0.4-0.2-0.6-0.1c0.3-0.7,0.7-1.3,1.1-1.9c-0.1,0.2-0.3,0.3-0.4,0.4
			l-0.2,0.2c-0.1,0.1-0.1,0.2-0.2,0.3c-0.3,0.4-0.5,0.8-0.6,1.2c-0.2,0.1-0.3,0.3-0.4,0.4c-0.2,0.6-0.9,0.9-1.5,0.7
			c0,0-0.1,0-0.1-0.1c-0.9-0.3-0.9-0.9-0.8-1.6l0,0l0.2-0.4v0l0.5-1c0.1-0.2,0.2-0.4,0.4-0.7c0.1-0.2,0.2-0.4,0.2-0.6
			c-0.4,0.6-0.8,1.3-1.2,2c0-0.1,0-0.2,0-0.3c0.2-1.3-0.8-1.2-1.5-0.8c-0.7,0.4-1.2,1.1-2,0.7c-1-0.5-1.4-1.3-1.4-2.5
			c0-0.8,0.5-1.5,0.2-2.4c-0.1-0.4-0.6-0.7-1-0.7c-0.2,0-0.4,0-0.6,0.1l-0.6,0.1c-0.3,0.1-0.5-0.1-0.6-0.4l0,0c1-0.6,2-1.3,3-1.9
			l0.6-0.4l1.1-0.9c-0.6,0.3-1.1,0.6-1.6,0.9c-1.1,0.6-2.2,1.3-3.2,2.1c0-0.3,0-0.5,0.1-0.8c0.3-0.9,0.7-1.5,0.8-2.5
			c0.1-0.5-0.2-1.1-0.6-1.4c-0.2-0.2-0.5-0.2-0.8-0.2c1-0.4,2.1-0.7,3.2-1c1.3-0.2,2.6-0.3,3.9-0.4l0,0c0.3,0.5,0.5,1.1,0.7,1.6
			c0.2,0.5,0.5,1,0.7,1.4c0.5,1.2,1.4,2.1,2.2,3c0.9,1,1.8,1.9,2.8,2.7c0.5,0.4,0.9,0.7,1.4,1c0.2,0.1,0.4,0.2,0.5,0.4v0
			c-0.1,0.1-0.1,0.2-0.2,0.3c0,0.1,0,0.1,0.1,0.1c-0.2,0.6-0.3,1.1-0.4,1.7c-0.1,0.4-0.1,0.9-0.1,1.3v0.4
			C571.5,97.2,570.2,97.7,569.6,97z"/>
		<path class="st25" d="M571.7,95.4c0-0.3,0-0.7,0.1-1v0c0-0.8,0.3-1.7,0.6-2.4c0,0,0,0-0.1,0c-0.3-0.2-0.7-0.4-1.1-0.6
			c-0.4-0.3-0.8-0.6-1.2-0.9c-1.1-0.8-2-2-3-3c-0.7-0.8-1.3-1.7-1.9-2.7c-0.3-0.5-0.6-1-0.8-1.5c-0.1-0.1-0.1-0.3-0.2-0.4
			c-0.1-0.2-0.2-0.4-0.3-0.6c0,0,0,0,0-0.1l0,0c0,0,0,0,0-0.1c-1.3,0-2.7,0-4,0.2c0.2,0,0.5,0.1,0.7,0.2c0.1,0,0.1,0.2,0.1,0.2
			c0,0,0,0.1-0.1,0.1c-1.3,0.6-2.4,1.7-3,3c0,0.2-0.1,0.3-0.2,0.5c-0.1,0.2-0.2,0.5-0.3,0.7c-0.2,0.6-0.2,1.2-0.2,1.8
			c0.2,0.3,0.4,0.4,0.8,0.4c0.3,0,0.6-0.1,0.9-0.2c1.1-0.2,1.5,0.7,1.2,1.7c-0.2,0.5-0.2,1.1-0.2,1.6c0.8-0.4,2-0.6,2.4,0.3
			c0.2,0.4,0.2,1-0.2,1.3c-0.2,0.2-0.4,0.4-0.7,0.6c0.3,0.1,0.6,0.1,0.9,0c0.5-0.2,2-1.8,2.5-0.8c0.3,0.6-0.2,1.3-0.2,1.9
			c0.5-0.6,1-1.2,1.6-1.8c0.4-0.5,0.8-0.9,1.4-1.2c0.1,0,0.1,0,0.2,0.1c0,0,0,0,0,0.1c0.2,0.8-0.4,1.6-0.7,2.2
			c-0.3,0.6-0.8,1.4-1.2,2.1c0.4,0.1,0.8,0.1,1.2,0c0.1,0,0.1,0,0.2-0.1c0.2-0.4,0.5-0.9,0.8-1.1l0,0c0.1,0,0.1-0.1,0.2,0
			c0.2-0.5,0.5-1,0.9-1.4c0.3-0.3,0.8-0.7,1.2-0.2c0.4,0.5,0.3,1.4,0.2,2.1c0,0.4-0.1,0.8-0.2,1.3c0.5,0,1-0.2,1.3-0.5
			C571.8,96.7,571.7,95.9,571.7,95.4z"/>
		<path class="st23" d="M569.5,93.3c-0.2,0.9-0.4,1.7-0.7,2.6c-0.2,0.7-0.4,1.3-0.6,2c0.2-0.4,0.4-0.8,0.5-1.2
			c0.2-0.9,0.5-1.8,0.7-2.8V93.3z"/>
		<path class="st29" d="M594.4,85.7c0,0-0.1,0.1-0.2,0.1c-1-0.2-2.1,0.1-3,0.4c-1.2,0.4-2.3,0.9-3.3,1.6c-1.8,1.2-3.6,2.7-4.6,4.8
			c-0.9,2-0.6,4.6,1.4,5.4c1.6,0.6,4.2-0.2,5-2c0.8,0.3,1.8-0.7,2.2-1.3c0.2-0.2,0.3-0.7,0.5-0.8c0.2-0.1,0.4-0.2,0.6-0.4
			c0.6-0.6,0.7-1.7,1.4-2.2c0.3-0.3,0.6-0.6,0.7-1c0.1-0.2,0.1-0.5,0.1-0.8c0-0.2,0-0.3,0-0.4c-0.1-0.4,0.2-0.6,0.3-0.9
			C596,87.1,595.3,85.8,594.4,85.7z"/>
		<path class="st30" d="M595,88.6c-0.1,0.3-0.1,0.7,0,1c0.1,0.9-0.6,1.2-1,1.7c-0.2,0.3-0.4,0.6-0.4,1c-0.2,0.8-0.7,0.9-1.2,1.4
			c-0.2,0.2-0.3,0.3-0.4,0.6c-0.2,0.6-1.4,1.9-2.1,1.4c-0.1,0-0.2,0.1-0.2,0.2c-0.4,1.3-1.8,1.8-2.9,2c-0.9,0.2-1.8,0-2.5-0.5
			c-1.9-1.4-0.8-4.5,0.2-6.1c1.1-1.6,2.6-2.6,4.2-3.5c0.8-0.5,1.7-0.9,2.6-1.2c1-0.3,2.4-0.6,3.4-0.2c0,0,0.1,0,0.1-0.1
			c0.2,0.2,0.4,0.5,0.5,0.8C595.6,87.7,595.1,88,595,88.6z"/>
		<path class="st30" d="M595,88.6c0.2-0.6,0.6-1,0.3-1.7c-0.1-0.3-0.3-0.6-0.5-0.8c0,0-0.1,0.1-0.1,0.1c-1-0.4-2.4-0.1-3.4,0.2
			c-0.9,0.3-1.8,0.7-2.6,1.2c-1.5,0.9-3.1,2-4.2,3.5c-0.7,1.1-1.2,2.3-1.3,3.6c1-0.7,2.6-0.6,2.4,1c-0.1,0.7-0.4,1.3-1,1.7
			c0.6,0.3,1.4,0.4,2,0.2c1.1-0.2,2.5-0.7,2.9-2c0-0.1,0.1-0.2,0.2-0.2c0.7,0.5,1.9-0.8,2.1-1.4c0.1-0.2,0.2-0.4,0.4-0.6
			c0.5-0.4,1-0.6,1.2-1.4c0.1-0.4,0.2-0.7,0.4-1c0.4-0.5,1.1-0.8,1-1.7C594.9,89.3,594.9,88.9,595,88.6z M587,96.7
			c-0.6,0.1-1.1-0.5-1-1.2c0-0.7,0.5-1.1,1.1-1h0c0.4-0.1,0.8,0.2,0.9,0.6c0.2,0.6-0.1,1.3-0.8,1.5C587.1,96.7,587,96.7,587,96.7z
			 M589.1,95.4c0,0.1-0.2,0.2-0.3,0.3s-0.2,0.1-0.2,0c0-0.1-0.1-0.3,0-0.4c0-0.1,0.1-0.1,0.2-0.2v0c0-0.1,0.1-0.1,0.2-0.2
			c0.1,0,0.2,0,0.2,0.1c0,0,0,0,0,0C589.1,95.1,589.2,95.2,589.1,95.4L589.1,95.4z M589.4,94.4c-0.4,0-0.6-0.4-0.4-0.9
			c0.1-0.4,0.5-0.6,0.9-0.5c0,0,0.1,0,0.1,0c0,0,0.1,0,0.1,0.1c0.1,0.1,0.2,0.3,0.2,0.5C590.1,94.2,589.8,94.4,589.4,94.4
			L589.4,94.4z M592.3,93C592.3,93,592.2,93,592.3,93c-0.1,0.2-0.3,0.3-0.4,0.4c-0.4,0.1-0.8,0-0.9-0.4c0,0,0,0,0,0
			c-0.1-0.3-0.1-0.6,0.2-0.9c0.2-0.4,0.6-0.6,0.9-0.4l0.1,0.1c0.1,0.1,0.3,0.2,0.3,0.4C592.5,92.5,592.5,92.8,592.3,93L592.3,93z
			 M593.4,90.8c-0.1,0.1-0.1,0.2-0.2,0.2v0.1c0,0.1-0.1,0.1-0.2,0.1c-0.1,0-0.1-0.1-0.1-0.1l0,0c0-0.1,0-0.2,0-0.3
			c0-0.1,0.1-0.1,0.1-0.1v0c0-0.1,0.2-0.1,0.2-0.1l0.1,0C593.4,90.6,593.4,90.8,593.4,90.8L593.4,90.8z M594.1,90
			c-0.2,0-0.2-0.4,0-0.4S594.3,90,594.1,90L594.1,90z"/>
		<path class="st31" d="M575.6,92.6c-1-0.3-2-0.6-2.9-1c-2.1-1-4.4-1.4-6.4-2.7c-0.1,0-0.2,0-0.2,0.1c-1,1.5-2.2,3.3-2.1,5.3
			c0,1.8,1,3.4,2.6,4.2c1.7,0.8,4,0.2,5.6-0.7s2.6-2.8,3.5-4.5c0,0,0.1-0.1,0.2-0.1C575.8,92.9,575.9,92.7,575.6,92.6z"/>
		<path class="st32" d="M572.5,92L572.5,92c-0.9,2-2.7,3.4-4.7,3.2c-0.8,0-1.6-0.5-1.9-1.3c-0.6-1.3,0.3-3,0.9-4c0,0,0-0.1,0-0.1
			c1.3,0.8,2.8,1.2,4.2,1.7C571.6,91.5,572.1,91.7,572.5,92z"/>
		<path class="st33" d="M566.2,89.2c0.2,0.2,0.4,0.3,0.6,0.4c0,0,0,0-0.1,0.1c-1.2,1.9-2.1,5,0.6,5.7c2.2,0.6,4.3-1,5.4-3.2
			c0,0,0.1-0.1,0.1-0.2c0.3,0.2,0.7,0.3,1,0.4c0.1,0,0.2,0.1,0.3,0.1l-0.1,0.1c-0.3,1-1.1,1.8-1.7,2.5c-0.7,0.9-1.7,1.5-2.8,1.8
			c-1.9,0.6-4.5,0-5.2-2.3C564,92.7,565.2,90.7,566.2,89.2z"/>
		<path class="st34" d="M575.5,93.2C575.5,93.2,575.5,93.2,575.5,93.2c-1,1.5-1.7,3-3,4c-1.5,1.2-3.5,1.6-5.4,1.1
			c-1.1-0.4-2-1.2-2.5-2.3c1,1.4,3,1.8,4.5,1.3c1.2-0.3,2.3-1,3.2-2c0.8-0.8,1.4-1.8,1.8-2.8v0c0.3,0.1,0.6,0.2,0.9,0.3
			S575.6,92.9,575.5,93.2z"/>
		<path class="st35" d="M575.7,92.6c-1-0.3-2-0.6-2.9-1c-2.1-1-4.4-1.4-6.4-2.7c-0.1,0-0.2,0-0.2,0.1c-0.9,1.2-1.6,2.5-2,3.9
			c0.1-0.1,0.2-0.3,0.4-0.4c0.1-0.1,0.2,0,0.2,0.1c0.2,0.7,0.1,1.6,0.6,2.1c0.5,0.5,1.1,0.8,1.8,0.9c1.4,0.4,2.4-0.2,3.7-0.6
			c0.1,0,0.2,0,0.2,0.1c0,0,0,0.1,0,0.1c-0.5,1.7-2.8,1.8-4.2,1.7c1.2,1,3.2,0.4,4.4-0.2c0.8-0.4,1.2,0.1,1.4,0.8
			c1.4-1,2.2-2.6,3-4.2c0,0,0.1-0.1,0.2-0.1C576,92.9,576,92.7,575.7,92.6z"/>
		<path class="st23" d="M581.6,92.2c0.4,0.8,0.7,1.6,1.1,2.4c0.3,0.6,0.6,1.2,0.9,1.8c-0.3-0.3-0.5-0.7-0.7-1.1
			c-0.4-0.8-0.8-1.7-1.2-2.6C581.6,92.5,581.6,92.3,581.6,92.2z"/>
		<path class="st31" d="M575.4,93.5c0,0.1,0.1,0.1,0.2,0.1c1.2,1.5,2.4,3,4.2,3.6s4,0.6,5.6-0.6c1.4-1.1,2.1-2.9,1.8-4.7
			c-0.3-2-1.7-3.5-3-4.7c0-0.1-0.1-0.2-0.2-0.1c-1.6,1.8-3.9,2.7-5.8,4.1c-0.9,0.6-1.8,1.2-2.7,1.7C575.2,93,575.3,93.2,575.4,93.5z
			"/>
		<path class="st32" d="M579.7,90.6c1.2-0.8,2.7-1.6,3.8-2.6c0,0,0,0.1,0,0.1c0.8,0.9,1.9,2.3,1.6,3.8c-0.2,0.8-0.8,1.5-1.6,1.7
			c-1.9,0.7-3.9-0.2-5.1-2l0,0L579.7,90.6z"/>
		<path class="st33" d="M587,92.3c-0.2,2.4-2.7,3.6-4.7,3.4c-1.1-0.1-2.2-0.5-3.1-1.1c-0.8-0.5-1.5-1.3-2.1-2.1l-0.1-0.1
			c0.1,0,0.2-0.1,0.3-0.2c0.3-0.2,0.6-0.4,0.9-0.6c0,0,0.1,0.1,0.1,0.1c1.4,1.9,3.8,3,5.8,1.9c2.4-1.3,1.1-4.2-0.4-5.7
			c0,0,0,0-0.1,0c0.2-0.2,0.4-0.4,0.5-0.6C585.4,88.6,586.9,90.3,587,92.3z"/>
		<path class="st36" d="M576,93c0.3-0.1,0.5-0.3,0.8-0.5c0,0,0,0,0,0c0.5,1,1.5,1.7,2.3,2.3c1,0.8,2.2,1.2,3.5,1.2
			c1.6,0.1,3.4-0.8,4.2-2.3c-0.3,1.2-1,2.2-2,2.8c-1.7,0.9-3.7,0.9-5.4,0.1c-1.4-0.7-2.5-2-3.6-3.2c0,0,0,0-0.1,0
			C575.6,93.1,575.8,93.2,576,93z"/>
		<path class="st35" d="M575.4,92.9c0.9-0.5,1.8-1.1,2.7-1.7c1.9-1.4,4.1-2.4,5.8-4.1c0,0,0.2,0,0.2,0.1c1.1,1,2,2.1,2.6,3.4
			c-0.1-0.1-0.3-0.2-0.4-0.3c-0.1,0-0.2,0-0.2,0.1c-0.1,0.7,0.2,1.6-0.3,2.2c-0.4,0.6-1,1-1.6,1.3c-1.3,0.6-2.4,0.4-3.7,0.3
			c-0.1,0-0.2,0.1-0.2,0.2c0,0,0,0,0,0.1c0.8,1.6,3.1,1.1,4.5,0.7c-1,1.2-3,1.1-4.3,0.8c-0.9-0.2-1.1,0.4-1.2,1.1
			c-1.5-0.7-2.6-2.1-3.7-3.4c-0.1,0-0.1-0.1-0.2-0.1C575.2,93.2,575.1,93,575.4,92.9z"/>
		<path class="st37" d="M594.1,86.3c-0.2-0.6-1,0.4-1,0.8c0,0.1-0.1,0.1-0.1,0.2c-0.4,1.1-0.4,1.6-1.5,1.9c-0.7,0.2-1.3,0.7-1.7,1.4
			c-0.3,0.7,0,2.4-0.9,1.7c-0.6-0.5-1.5-0.8-2.2-0.4c-0.8,0.4-1.4,1-1.8,1.8c-0.1,0.1-0.2,0.2-0.3,0.3c-0.4,0.5-0.7,1.1-1,1.8
			c-0.2,0.4-0.5,0.7-0.8,0.8c-0.9-0.3-1.8-2-2.2-2.5c-0.5-0.8-1.4-1.2-2.4-1.2c-1.6,0-2.6,2.5-3.2,3.8c0,0-0.1,0.1-0.1,0.2
			c-0.7,0.8-1.6,1.2-2.9,0.4c-1.4-0.9-1.9-3.3-2.8-4.6c-0.4-0.7-1-1.3-1.8-1.7c-0.5-0.3-1.1-0.3-1.6-0.1c-0.1,0-0.2,0-0.2,0.1
			c-0.1,0-0.1,0.1-0.2,0.2c-1.2,0.7-1.9,1.9-2.2,3.5c-0.2,0.8,0.8,0.1,0.9-0.2c0.6-1.8,2.3-2.6,3.3-0.6c0.5,1,0.9,2.1,1.5,3.1
			c1,1.7,2.1,3,4,3c1,0,1.8-0.7,2.5-1.6l0,0c0.6-0.6,1.3-2.6,2.1-2.7c1.3-0.3,2.2,1.3,3.3,2.1c0.4,0.4,0.9,0.7,1.5,0.7
			c1.4,0.1,2.4-1.5,2.9-2.8c0.1-0.2,0.2-0.5,0.3-0.8c0.6-0.5,1.2-0.6,2,0c0.5,0.5,0.8,1,1.5,1c0.7-0.1,1.3-0.7,1.8-1.3
			c0.4-0.6,0.7-1.4,0.7-2.2c0-0.5,0-1,0-1.5v-0.1c0.2-0.1,0.4-0.1,0.6-0.2c0.6-0.3,1.1-0.8,1.4-1.4
			C594.3,88.5,594.5,87.3,594.1,86.3z"/>
		<path class="st38" d="M565.2,91.8c1.1-0.6,2.3,0.2,3,1.1c0.9,1.2,1.2,3,2.2,4.1c0.7,0.7,1.9,1.6,2.8,1c0.1-0.1,0.3-0.2,0.4-0.3
			c-0.5,0.1-1.1-0.1-1.5-0.4c-1.4-0.9-1.9-3.3-2.8-4.6c-0.4-0.7-1-1.3-1.8-1.7c-0.5-0.3-1.1-0.3-1.6-0.1c-0.1,0-0.2,0-0.2,0.1
			c-0.1,0-0.1,0.1-0.2,0.2c-1.2,0.7-1.9,1.9-2.2,3.5c0,0.1,0,0.2,0,0.3C563.6,93.5,564.2,92.3,565.2,91.8z"/>
		<path class="st38" d="M578.2,94.1c1.2,0.3,1.9,1.2,2.7,2c0.9,0.9,2.1,1.6,2.8,0.1c0.3-0.6,0.5-1.3,0.7-1.9
			c-0.2,0.4-0.5,0.9-0.6,1.3c-0.2,0.4-0.5,0.7-0.8,0.8c-0.9-0.3-1.8-2-2.2-2.5c-0.5-0.8-1.4-1.2-2.4-1.2c-0.9,0-1.6,0.8-2.2,1.8
			C576.8,94.2,577.5,94,578.2,94.1z"/>
		<path class="st38" d="M593.4,89.4c-0.2,0.2-0.5,0.4-0.8,0.5c-0.3,0.2-0.9,0.2-1.1,0.6c-0.2,0.5-0.1,1.2-0.2,1.8
			c-0.1,1.1-0.9,2.7-2.1,2.6c-0.6,0-1-0.4-1.4-0.8c-0.6-0.4-1.1-0.2-1.4,0.3c0.4-0.1,0.9,0.1,1.2,0.4c0.5,0.5,0.8,1,1.5,1
			c0.7-0.1,1.3-0.7,1.8-1.3c0.4-0.6,0.7-1.4,0.7-2.2c0-0.5,0-1,0-1.5v-0.1c0.2-0.1,0.4-0.1,0.6-0.2c0.6-0.3,1.1-0.8,1.4-1.4l0,0
			C593.6,89.2,593.5,89.3,593.4,89.4z"/>
		<path class="st6" d="M574.3,98.6c-0.8,0.2-1.6,0.2-2.4,0c-0.9-0.3-1.8-1.2-2.2-2.2c-0.1-0.2-0.3,0.1-0.3,0.3
			c0.8,2.1,3,3.9,4.9,2.2C574.3,98.8,574.4,98.5,574.3,98.6z"/>
		<path class="st6" d="M581.3,96.7c-0.4-0.4-0.8-0.8-1.3-1.1c-0.4-0.4-0.9-0.6-1.4-0.8c-0.1,0-0.3,0.3-0.2,0.4
			c0.6,0.3,1.1,0.7,1.5,1.2c0.4,0.3,0.7,0.8,1.2,0.8C581.3,97,581.4,96.8,581.3,96.7z"/>
		<path class="st6" d="M590.2,93.2c-0.7,0.6-1.3-0.1-1.9-0.4c-0.4-0.2-0.8-0.3-1.3-0.2c-0.8,0.1-1.4,1-1.7,1.7
			c-0.2,0.3,0.2,0.3,0.3,0.1c0.6-1.1,1.6-1.3,2.5-0.7c0.4,0.2,0.7,0.6,1.2,0.6c0.5,0,1-0.3,1.1-0.8
			C590.4,93.2,590.3,93.1,590.2,93.2z"/>
		<path class="st6" d="M590.7,90.7L590.7,90.7c-0.1,0-0.2,0.1-0.3,0.2c-0.1,0.1-0.1,0.2-0.1,0.4c0,0,0,0,0,0.1s0,0.1,0,0.2
			c0,0.2,0.1,0.3,0.3,0.2c0.3-0.1,0.4-0.4,0.5-0.7C591.1,90.9,591,90.6,590.7,90.7z"/>
		<path class="st20" d="M593.6,89c0.1-0.2,0.2-0.4,0.3-0.5c0.2-0.4,0.3-0.8,0.5-1.1c0.7-1.6,1-3.4,0.8-5.1c-0.2-2.3-1.3-4.5-2.5-6.3
			c-2.6-3.9-6.8-5.7-10.9-6.6c-4.4-1-9.1-0.4-13.1,1.6c-3.5,1.7-6.9,4.5-8.4,8.6c-0.7,2.1-0.9,4.4-0.5,6.6c0.2,1.2,0.7,2.4,1.5,3.4
			c0,0-0.1,0.1,0,0.1c1,1.1,2.2,2.1,3.5,2.8c1.4,0.7,2.9,1.3,4.4,1.8c3,1,6.3,1,9.4,0.8c3.1-0.2,6.2-0.9,9.2-2.1
			c1.3-0.6,2.6-1.3,3.7-2.2C592.4,90.2,593,89.6,593.6,89z"/>
		<path class="st39" d="M588.1,72c-4.2-2.4-9.1-3.4-13.9-2.6c-2.4,0.4-4.7,1.3-6.8,2.6c-2,1.2-4,2.7-5.3,4.8c-1.5,2.2-2.2,4.9-2,7.6
			c0.1,1.4,0.4,2.8,1,4c0.5,0.9,1.1,1.6,1.8,2.3c2,1.4,4.1,2.2,6.4,3c2.9,1,6,1.1,9,0.9c3-0.2,6-0.8,8.9-1.8c1.4-0.5,2.7-1.2,4-2.1
			c1-0.7,1.9-1.5,2.7-2.4c0.6-1.3,1.1-2.7,1.2-4.2C595.3,79,591.9,74.2,588.1,72z"/>
		<path class="st39" d="M560.2,85.6c0.1-1.7,0.3-3.3,0.8-4.9c0.6-1.7,1.5-3.2,2.8-4.4c2.8-2.8,6.2-4.9,9.8-5.7
			c3.6-0.8,7.6-1,11.1,0.1c1.7,0.5,3.3,1.3,4.8,2.2c0.1,0,0.1,0.1,0.2,0.1c-0.5-0.4-1-0.8-1.6-1.1c-4.2-2.4-9.1-3.4-13.9-2.6
			c-2.4,0.4-4.7,1.3-6.8,2.6c-2,1.2-4,2.7-5.3,4.8c-1.5,2.2-2.2,4.9-2,7.6C560,84.8,560.1,85.2,560.2,85.6z"/>
		<path class="st40" d="M588.1,72c-2.1-1.2-4.4-2-6.7-2.5c1.8,0.6,3.4,1.5,4.9,2.6c1.8,1.4,3.4,3.6,3.2,6.4
			c-0.4,6.4-7.6,8.9-12.2,9.7c-2.3,0.4-4.7,0.3-7-0.2c-2.4-0.6-5.3-1.5-7-3.8c-1.8-2.5-1.2-5.6,0.2-8.1c0.4-0.7,0.8-1.4,1.3-2
			c-1,0.8-1.9,1.8-2.6,2.9c-1.5,2.2-2.2,4.9-2,7.6c0.1,1.4,0.4,2.8,1,4c0.5,0.9,1.1,1.6,1.8,2.3c2,1.4,4.1,2.2,6.4,3
			c2.9,1,6,1.1,9,0.9c3-0.2,6-0.8,8.9-1.8c1.4-0.5,2.7-1.2,4-2.1c1-0.7,1.9-1.5,2.7-2.4c0.6-1.3,1.1-2.7,1.2-4.2
			C595.3,79,591.9,74.2,588.1,72z"/>
		<path class="st40" d="M589.4,72.9c0.4,0.5,0.7,1,1,1.6c0.8,1.3,1.3,2.7,1.6,4.2c0.3,2.7-0.4,5.3-2,7.5c-2.6,3.3-6.5,4.4-10.2,4.8
			c-2.1,0.2-4.2,0.3-6.4,0.2c-1.8,0-3.6-0.3-5.4-0.8c-3.1-1-6.5-3.5-7.4-7.3c-0.2-1.1-0.3-2.2-0.2-3.2c-0.5,1.5-0.7,3-0.6,4.6
			c0.1,1.4,0.4,2.8,1,4c0.5,0.9,1.1,1.6,1.8,2.3c2,1.4,4.1,2.2,6.4,3c2.9,1,6,1.1,9,0.9c3-0.2,6-0.8,8.9-1.8c1.4-0.5,2.7-1.2,4-2.1
			c1-0.7,1.9-1.5,2.7-2.4c0.6-1.3,1.1-2.7,1.2-4.2C595.3,79.6,592.7,75.4,589.4,72.9z"/>
		<path class="st6" d="M578.7,77.8c-0.3,0-0.4,0.4-0.4,0.9V79c0,0.2,0,0.5,0.2,0.5c0.2,0,0.3-0.4,0.4-0.6
			C578.9,78.6,579.1,77.8,578.7,77.8z"/>
		<path class="st6" d="M575.7,76.2c-0.2-0.1-0.5,0.2-0.6,0.4c-0.1,0.1-0.2,0.3-0.2,0.4c0,0.2,0.5-0.1,0.6-0.2
			C575.6,76.8,575.9,76.3,575.7,76.2z"/>
		<path class="st6" d="M571.3,75.5c0,0-0.1,0-0.2,0c0,0-0.1,0-0.1,0c-0.1,0-0.1,0-0.2,0.1h0c-0.2,0-0.3,0.1-0.4,0.3l-0.1,0.1
			c-0.1,0.1-0.1,0.2,0,0.3c0,0,0,0,0.1,0c0.1,0.1,0.4,0,0.5,0c0.2-0.1,0.4-0.2,0.5-0.3C571.5,75.7,571.4,75.6,571.3,75.5z"/>
		<path class="st6" d="M576.7,80c0,0-0.1,0-0.1,0c0,0,0,0,0,0c0,0-0.1,0-0.2,0c-0.1,0.2-0.2,0.4-0.2,0.6c0,0.2,0,0.4,0.2,0.4
			c0.2,0,0.3-0.3,0.4-0.4C576.8,80.4,576.8,80.1,576.7,80z"/>
		<path class="st6" d="M582.7,79.4c0-0.2-0.2-0.6-0.4-0.5c-0.1,0-0.2,0.1-0.2,0.2v0.1c0,0.1,0,0.3,0,0.4c0,0.1,0.1,0.2,0.2,0.4
			c0.1,0.1,0.1,0.2,0.2,0.3c0.1,0,0.2,0,0.2-0.1c0,0,0,0,0,0C582.8,80,582.8,79.7,582.7,79.4z"/>
		<path class="st6" d="M584.4,77.6L584.4,77.6C584.4,77.5,584.4,77.5,584.4,77.6L584.4,77.6c-0.2,0-0.3,0.2-0.2,0.2
			c0,0.2,0,0.4,0.2,0.4c0.1,0,0.2-0.1,0.2-0.2C584.5,77.9,584.5,77.7,584.4,77.6z"/>
		<path class="st6" d="M586.2,76.5L586.2,76.5C586.2,76.5,586.1,76.5,586.2,76.5c-0.1-0.1-0.3,0-0.2,0.1c0.1,0.2,0.3,0.6,0.5,0.6
			c0.1,0,0.2-0.1,0.2-0.2C586.6,77,586.5,76.4,586.2,76.5z"/>
		<path class="st6" d="M581.2,75.7c0-0.1-0.2,0.1-0.2,0.2c0,0.2,0.1,0.5,0.3,0.4C581.5,76.1,581.4,75.6,581.2,75.7z"/>
		<path class="st6" d="M575,73.7C574.9,73.7,574.9,73.7,575,73.7c-0.1,0-0.1,0-0.2,0c-0.1,0-0.2,0.1-0.3,0.2c0,0-0.1,0.2-0.1,0.2
			c0.1,0.2,0.4,0,0.6-0.1C575,73.9,575.1,73.7,575,73.7z"/>
		<path class="st6" d="M572.1,77.7c-0.1,0-0.2,0-0.3,0.1c-0.3,0.1-0.6,0.4-0.5,0.6c0,0,0,0,0,0c0.1,0,0.2,0,0.3-0.1
			c0.1-0.1,0.2-0.1,0.2-0.2C572.1,78.1,572.2,77.9,572.1,77.7C572.2,77.7,572.2,77.7,572.1,77.7z"/>
		<path class="st6" d="M568.7,74.8c0.1,0,0.1-0.2,0-0.2c-0.2,0.1-0.3,0.2-0.4,0.4v0.1c0.1,0.1,0.2,0,0.2,0c0.1,0,0.1-0.1,0.2-0.2
			V74.8C568.7,74.9,568.7,74.9,568.7,74.8z"/>
		<path class="st6" d="M574.4,82.7C574.4,82.7,574.3,82.7,574.4,82.7c-0.2,0-0.2,0-0.3,0.2c-0.2,0.2-0.3,0.5-0.2,0.8c0,0,0,0,0,0
			C574.3,83.7,574.5,83,574.4,82.7z"/>
		<path class="st6" d="M579.2,82.6c-0.1,0-0.1,0-0.2,0c-0.1,0.1-0.2,0.2-0.2,0.3v0c0,0.1,0,0.3,0.1,0.4c0.1,0.1,0.2-0.1,0.2-0.2V83
			C579.3,82.8,579.4,82.6,579.2,82.6z"/>
		<path class="st6" d="M583.3,82.9c0-0.1-0.1-0.1-0.1-0.2c0,0,0,0,0,0c0,0,0-0.1,0,0v0c0-0.1,0-0.1-0.1-0.1
			c-0.2-0.1-0.2,0.2-0.2,0.4c0,0.2,0.1,0.5,0.3,0.6c0.1,0,0.2,0,0.2-0.1C583.4,83.2,583.4,83.1,583.3,82.9z"/>
		<path class="st6" d="M585.9,81.8L585.9,81.8C585.9,81.7,585.9,81.7,585.9,81.8c-0.2-0.2-0.4,0.1-0.3,0.2l0,0v0
			c0,0.1,0.1,0.2,0.2,0.2s0.1-0.1,0.2-0.1C586,82,586,81.9,585.9,81.8z"/>
		<path class="st6" d="M587.4,78.7C587.4,78.7,587.4,78.7,587.4,78.7c0-0.1-0.1-0.1-0.1-0.1c0,0,0,0,0,0c-0.1-0.1-0.2,0.2-0.2,0.2
			l0,0c0,0.1,0,0.2,0.1,0.2h0c0.1,0,0.2,0,0.2-0.1C587.4,78.9,587.5,78.8,587.4,78.7z"/>
		<path class="st6" d="M569.8,80c-0.1-0.1-0.2-0.2-0.4-0.1c0,0-0.1,0.1-0.2,0.1h0c-0.1,0.1-0.2,0.2-0.2,0.4c0,0.3,0.4,0.2,0.6,0.1
			c0.1,0,0.2-0.1,0.2-0.2C569.7,80.2,569.8,80,569.8,80z"/>
		<path class="st6" d="M569.6,84.5L569.6,84.5c0-0.2-0.2-0.1-0.3,0c-0.1,0-0.1,0.2-0.2,0.2c0,0.2,0.1,0.2,0.2,0.2
			C569.5,84.9,569.6,84.7,569.6,84.5L569.6,84.5z"/>
	</g>
</g>
</svg>
