<?xml version="1.0" encoding="utf-8"?>
<!-- Generator: Adobe Illustrator 24.0.1, SVG Export Plug-In . SVG Version: 6.00 Build 0)  -->
<svg version="1.1" id="Layer_1" xmlns="http://www.w3.org/2000/svg" xmlns:xlink="http://www.w3.org/1999/xlink" x="0px" y="0px"
	 viewBox="0 0 327 90.2" style="enable-background:new 0 0 327 90.2;" xml:space="preserve">
<style type="text/css">
	.st0{fill:#DA9100;}
	.st1{fill-rule:evenodd;clip-rule:evenodd;fill:#DA9100;}
	.st2{font-family:'Cambria';}
	.st3{font-size:15.332px;}
</style>
<title>house of L logo</title>
<g>
	<g id="Layer_2_1_">
		<path class="st0" d="M39.2,22.7c0.2-0.1,0.4-0.2,0.5,0l0.2,0.1c-1.8,1.5-3.7,2.8-5.8,3.8c-1.8,0.8-3.7,1.2-5.6,1.2
			c-4,0-6-1.6-6-4.9c0-1.2,0.4-2.3,0.9-3.4c0.7-1.3,1.6-2.5,2.8-3.5c1.4-1.2,3.1-2.2,4.9-2.8c2.3-0.8,4.8-1.1,7.2-1
			c2.1,0,3.8,0.4,5.2,1.2c1.3,0.8,1.9,1.8,1.9,3.1c0,0.6-0.1,1.2-0.2,1.8c0,0.4-0.1,0.8-0.2,1.2c0,0.7,0.6,1,1.9,1
			c1.6,0,3.1-0.5,4.4-1.2c2-1.2,3.8-2.6,5.4-4.2c1.8-1.6,2.9-2.4,3.3-2.4c0.3,0,0.4,0.1,0.4,0.2c0,0.3-0.3,0.6-0.8,0.9
			c-1.1,0.7-3.1,2.4-6.1,4.8c-3.7,3.1-7.8,8.4-12.1,15.8c-0.1,0.2,0,0.5,0.2,0.6c0.1,0.1,0.2,0.1,0.4,0l8.2-1.8
			c0.1,0,0.2-0.1,0.2-0.1l4.2-4.2l2.3-2.2c4-3.8,8.3-7.3,12.8-10.4c4.2-2.8,7.6-4.2,10.3-4.2c0.8,0,1.5,0.2,2.2,0.6
			c0.5,0.4,0.8,1,0.8,1.7c0,2.2-1.4,4.6-4.2,7c-2.8,2.4-6.4,4.7-10.8,6.7s-8.9,3.5-13.5,4.6c-0.1,0-0.2,0.1-0.2,0.2
			c-1.6,2-3.4,4.3-5.3,6.8s-3.6,4.8-5,6.8c-1.2,1.8-2.3,3.6-3.3,5.4c-0.8,1.6-1.2,2.9-1.2,4c0,0.6,0.2,1.2,0.7,1.6
			c0.4,0.4,0.9,0.7,1.5,0.7c1.3,0,2.6-0.4,3.8-1c1.6-0.8,3.1-1.7,4.6-2.8c1.6-1.2,3.2-2.4,4.8-3.8l4.8-4.1V47c0,0.1-0.1,0.3-0.2,0.4
			c-2,1.7-3.6,3.2-5,4.3c-1.3,1.1-2.8,2.3-4.3,3.4c-1.4,1-2.8,1.9-4.4,2.6c-1.2,0.6-2.6,0.9-3.9,1c-1,0-2-0.4-2.7-1.1
			c-0.7-0.8-1-1.8-1-2.8c0-5.2,3.5-11.8,10.5-19.7c0.2-0.2,0.2-0.5,0-0.7c-0.1-0.1-0.3-0.2-0.4-0.1l-7.5,1.6c-0.2,0-0.3,0.1-0.3,0.2
			c-0.6,1-1.2,1.9-2,2.8c-1.2,1.6-2.8,3.3-4.8,5.4c-2.2,2.2-4.6,4.4-7,6.3c-2.5,2-5.1,3.8-7.8,5.3c-3.1,1.8-6.1,2.8-9,2.8
			c-1.5,0-2.4-0.3-2.9-0.8c-0.5-0.6-0.8-1.4-0.7-2.2c0-2.1,1.3-4.5,3.9-7.2c2.6-2.7,6.3-5.2,11-7.5c4.9-2.4,10.1-4,15.5-4.8
			c0.1,0,0.2-0.1,0.3-0.2l1.2-1.5c2.6-3.3,4.6-5.6,5.8-7c1.1-1.2,3.1-3.3,6.1-6.3c0.2-0.2,0.2-0.5,0-0.7c-0.1-0.1-0.3-0.2-0.5-0.1
			c-1,0.3-1.9,0.4-2.9,0.5c-2.2,0-3.3-0.9-3.3-2.7c0,0,0.1-0.6,0.2-1.5c0.2-0.9,0.2-1.4,0.2-1.4c0-1.8-1.7-2.6-5.1-2.6
			c-3.6,0-6.5,0.6-8.8,1.8s-4,2.6-5,4.1s-1.5,3-1.5,4.2s0.4,2.4,1.4,3.2c0.9,0.8,2.2,1.2,4,1.2s3.7-0.4,5.4-1.1
			C35.8,25.2,37.5,24,39.2,22.7z M35.1,38c0.2-0.2,0.1-0.5-0.1-0.7c-0.1-0.1-0.2-0.1-0.4-0.1c-5,1-9.8,2.6-14.4,4.9
			c-4.4,2.3-7.8,4.7-10.2,7.2s-3.5,4.6-3.5,6.3c0,1.7,1.1,2.6,3.3,2.6c1.7,0,3.8-0.6,6.4-1.8c2.6-1.2,5.6-3.4,9-6.5
			C28.5,46.9,31.8,43,35.1,38z M55.7,31c-0.2,0.2-0.1,0.5,0.1,0.7c0.1,0.1,0.3,0.1,0.4,0.1c6.6-2,11.8-4,15.6-6.2
			c4.1-2.4,6.8-4.5,8.4-6.4c1.5-1.9,2.2-3.4,2.2-4.4c0-1.3-0.7-1.9-2.2-1.9c-1.8,0-4,0.8-6.4,2.2c-2.8,1.7-5.4,3.6-7.8,5.7
			c-2.7,2.3-5,4.5-6.9,6.4C57.7,28.6,56.6,29.9,55.7,31L55.7,31z"/>
		<path class="st0" d="M76.6,46.6v0.5c0,0.1,0,0.2-0.1,0.3C75,49.1,73.4,50,71.6,50h-0.1H71h-0.4c-0.2,0-0.3,0-0.4,0.2
			c-4.3,4.4-8,6.6-11.1,6.6c-1.2,0-2.3-0.6-2.8-1.7c-0.3-0.6-0.4-1.2-0.4-1.8c0-1.8,0.8-3.6,2.4-5.3c1.6-1.8,3.6-3.2,5.8-4.2
			c2.3-1.1,4.2-1.6,6-1.6s2.8,0.8,2.8,2.6c0,1.2-0.5,2.6-1.6,4.2c-0.2,0.2-0.1,0.5,0.2,0.7c0.1,0,0.2,0.1,0.2,0.1h0.1
			C73.4,49.4,75.1,48.5,76.6,46.6z M70.2,42.5c-1.5,0-3.2,0.8-5.2,2.6c-2,1.7-3.7,3.6-5.3,5.7c-1.6,2-2.3,3.3-2.3,3.8
			c0,0.4,0.2,0.8,0.6,1.1c0.4,0.3,1,0.4,1.5,0.4c1.4,0,3.2-0.7,5.2-2.1s3.8-3.1,5.4-5s2.3-3.5,2.3-4.6c0-0.5-0.2-1-0.6-1.3
			C71.2,42.6,70.7,42.4,70.2,42.5z"/>
		<path class="st0" d="M75.7,48.3v-0.4c0-0.1,0-0.2,0.2-0.4c2.2-2,4.6-3.7,7.2-5.2c0.1,0,0.2-0.1,0.2-0.1h2.2c0.3,0,0.5,0.2,0.5,0.5
			c0,0.1,0,0.2-0.1,0.3l-8.4,9.5c-1.5,1.7-2.3,2.7-2.3,3s0.2,0.4,0.7,0.4c1.5,0,3.9-1.3,7.3-4s7.1-5.8,11.1-9.6
			c0.1-0.1,0.2-0.1,0.3-0.1h2c0.3,0,0.5,0.2,0.5,0.5c0,0.1,0,0.2-0.1,0.3l-8.8,10c-0.1,0.1-0.3,0.4-0.7,0.8c-0.3,0.3-0.6,0.7-0.8,1
			c-0.2,0.2-0.2,0.5-0.2,0.8s0.2,0.4,0.6,0.4c1,0,2.9-0.9,5.6-2.7c2.9-2,5.6-4.2,8.1-6.7V47c0,0.1,0,0.2-0.2,0.4
			c-2.4,2.4-5,4.6-7.9,6.5c-2,1.3-3.6,2.2-4.8,2.5c-1.8,0.5-2.8-0.6-2.3-2.4c0.2-0.8,0.6-1.6,1.1-2.3c1.2-1.8,2.4-3.6,3.8-5.2
			l0.8-0.9L90,47c-3.3,2.9-6.1,5.2-8.5,7c-2.4,1.7-4.2,2.6-5.6,2.6c-1,0-1.5-0.6-1.5-1.8c0-0.9,0.3-1.7,0.7-2.5c0.5-1,1.1-2,1.8-2.8
			c0.8-1,1.5-1.9,2.4-2.9c0.8-0.9,1.7-1.9,2.6-2.9l-2,1.2l0,0C78.3,46,77,47.1,75.7,48.3z"/>
		<path class="st0" d="M100.1,47.5l8.3-7.2l0,0c0.6-0.8,1.2-1.5,1.8-2.2s0.9-1,1.2-1c0.2,0,0.4,0.1,0.6,0.2s0.3,0.3,0.3,0.6
			c0,0.4-0.6,1-1.8,1.7c-0.2,0.1-0.3,0.4-0.2,0.6l0,0c0.6,0.9,1.2,1.9,1.6,3c0.4,1.2,0.6,2.4,0.7,3.6v0.1c-0.1,0.7-0.1,1.3-0.2,1.8
			c0,0.2,0.1,0.5,0.4,0.6l0,0c0.7,0.1,1.5,0.1,2.2-0.2c0.8-0.3,1.9-1.1,3.3-2.6V47c0,0.1,0,0.2-0.1,0.3c-1,1.3-2,2.1-2.9,2.4
			s-1.9,0.3-2.8,0c-0.2,0-0.4,0-0.6,0.2c-0.7,1.4-1.7,2.5-3,3.4c-1.4,1-2.9,1.8-4.5,2.3c-1.3,0.4-2.6,0.7-4,0.8
			c-0.9,0-1.8-0.2-2.6-0.6c-0.6-0.4-1-1-1-1.8c0-0.6,0.2-1.2,0.6-1.6c0.5-0.4,1.1-0.7,1.7-0.6c0.4,0,0.9,0.1,1.2,0.4
			c0.3,0.2,0.5,0.6,0.5,1s-0.2,0.7-0.5,0.9c-0.3,0.2-0.7,0.4-1.1,0.4c-0.3,0-0.6-0.2-0.8-0.4c-0.2-0.2-0.4-0.3-0.7-0.2
			c-0.1,0.1-0.2,0.2-0.2,0.4v0.1c0,0.3,0.3,0.6,0.8,1c0.6,0.4,1.2,0.6,1.9,0.5c1.4,0,3-0.6,4.6-1.8c1.6-1.3,3-2.8,4-4.6
			c1-1.6,1.6-3.5,1.6-5.4c0-1.2-0.3-2.3-0.9-3.3c-0.1-0.2-0.4-0.3-0.6-0.2h-0.1l-8.8,7.6v-0.4C100,47.7,100,47.6,100.1,47.5z"/>
		<path class="st0" d="M134.7,46.6v0.5c0,0.1,0,0.2-0.2,0.4c-3,3-5.7,5.2-8.2,6.8c-2.5,1.6-5.1,2.4-7.6,2.4c-2.3,0-3.4-1.3-3.4-3.9
			c0-2.2,0.9-4.2,2.4-5.7c1.6-1.6,3.6-2.9,5.8-3.8c2.2-0.9,4-1.3,5.4-1.3c0.7,0,1.3,0.2,1.8,0.6c0.4,0.4,0.7,0.9,0.7,1.4
			c0,0.9-0.5,1.8-1.5,2.6c-1.3,0.9-2.7,1.6-4.2,1.9c-2,0.5-4,0.8-6.1,0.9c-0.1,0-0.2,0.1-0.4,0.2c-2,2.2-3,4-3,5.2
			c0,0.4,0.3,0.9,0.7,1.1c0.5,0.3,1.1,0.4,1.7,0.4C123.1,56,128.4,52.9,134.7,46.6z M121,47.6c-0.2,0.2-0.2,0.5,0,0.7
			c0.1,0.1,0.2,0.1,0.3,0.1c1.6,0,3.1-0.3,4.6-0.8c1.3-0.4,2.5-1.1,3.5-2c0.8-0.8,1.2-1.4,1.2-1.9c0-0.8-0.5-1.2-1.4-1.2
			c-1.2,0-2.6,0.5-4.3,1.6C123.6,45.1,122.2,46.3,121,47.6z"/>
		<path class="st0" d="M162.3,33.9c-0.1,0.3-0.4,0.4-0.7,0.4l0,0c1.2-3.1,2.9-6,5-8.7c1.8-2.4,4-4.4,6.4-6.2c2-1.5,4.1-2.7,6.4-3.6
			c2-0.8,3.8-1.2,5.1-1.2c1.2,0,2.4,0.4,3.2,1.3c0.9,1,1.3,2.3,1.2,3.6c-0.1,2.8-1.2,6.1-3.5,10.3c-2.6,4.6-5.6,8.8-9.1,12.8
			s-7.4,7.6-11.8,10.5c-4.2,2.8-8,4.2-11.4,4.2c-2.1,0-3.8-0.6-5.1-1.9c-1.3-1.2-2-3.1-2-5.6c0-3,0.8-6,2.1-8.8
			c1.4-3,3.5-6.2,6.4-9.4c3.2-3.6,6.6-6.9,10.4-9.8c4.6-3.6,9-6.4,13.1-8.3c4.1-1.8,8-2.8,11.8-2.8c2.3,0,4.2,0.5,5.5,1.4s2,2.4,2,4
			c0,1.9-0.6,3.4-1.8,4.4c-1.2,1.1-2.9,2-5.2,2.6V23c0-0.3,0.2-0.5,0.6-0.6c1.9-0.5,3.3-1.3,4.2-2.4c1-1,1.6-2.5,1.6-3.9
			s-0.7-2.8-1.9-3.6c-1.3-0.8-3-1.2-5.2-1.2c-4,0-8.2,1-12.4,3.2c-4.5,2.2-8.6,5.3-12,8.9c-2.2,2.3-4.4,4.7-6.4,7.3
			c-2.1,2.6-4,5.2-5.6,7.9c-1.5,2.4-2.9,4.8-4.1,7.4c-1,2.2-1.5,4.1-1.5,5.6c0,1.4,0.5,2.7,1.4,3.6c1,1,2.3,1.5,4,1.5
			c3.4,0,7.1-1.4,11.2-4.1c4.3-3,8.3-6.4,11.7-10.4c3.5-3.8,6.6-8.1,9.1-12.6c2.4-4.2,3.5-7.6,3.5-10.1c0.1-1.2-0.3-2.3-1-3.2
			c-0.7-0.8-1.7-1.3-2.8-1.2c-1.4,0-3.1,0.4-5.2,1.3c-2.3,0.9-4.4,2.2-6.3,3.6c-2.3,1.8-4.4,3.8-6.1,6.1
			C164.9,28.5,163.4,31.1,162.3,33.9z"/>
		<path class="st0" d="M180,46.3v-0.5c0-0.2,0.1-0.3,0.2-0.4c0.2-0.2,0.6-0.4,1.1-0.7c0.5-0.3,0.9-0.6,1.1-0.7
			c0.1-0.1,0.2-0.2,0.2-0.4c0-0.8,0.3-1.5,0.7-2.1c0.4-0.7,0.9-1.1,1.4-1.1c0.4,0,0.8,0.3,0.8,0.7v0.1c0,0.3,0.2,0.5,0.5,0.4
			c0.1,0,0.1,0,0.2,0l5.2-2.6c0,0,0.1-0.1,0.2-0.1l9.8-11.3c7.2-8.3,12.4-12.5,15.8-12.5c0.6,0,1.2,0.2,1.6,0.6
			c0.4,0.4,0.7,0.9,0.6,1.5c0,1.6-1.1,3.7-3.2,6c-2.2,2.4-5.2,4.9-9,7.6c-4,2.8-8.3,5.2-12.7,7.4c0,0-0.1,0.1-0.2,0.1l-8.3,10
			c-0.2,0.2-0.2,0.5,0,0.7c0,0,0.1,0,0.1,0.1c0.8,0.3,1.6,0.5,2.4,0.6c2,0,3.5-0.4,4.7-1.1c1.6-1.1,3.1-2.3,4.5-3.6v0.5
			c0,0.1,0,0.2-0.2,0.4c-1.7,1.6-3.1,2.8-4.4,3.4c-1.4,0.7-3,1-4.6,0.9c-1.1,0-2.1-0.2-3.1-0.6c-0.2-0.1-0.4,0-0.6,0.1l-19.3,23
			c-0.1,0.1-0.2,0.2-0.4,0.2h-2c-0.3,0-0.5-0.2-0.5-0.5c0-0.1,0-0.2,0.1-0.3l6.9-7.8c1.3-1.5,2.8-3.4,4.6-5.8s3.3-4.5,4.6-6.4
			c1.3-1.9,2.5-3.8,3.6-5.7c0-0.1,0.1-0.2,0.1-0.3v-0.4c0-0.3-0.2-0.5-0.5-0.4c-0.1,0-0.2,0-0.2,0.1l-0.5,0.3
			C180.8,45.8,180.4,46,180,46.3z M183.3,47.9l-0.2-0.4c-0.2-0.2-0.4-0.3-0.7-0.2l-0.1,0.1l-1,1.6c-0.9,1.4-1.6,2.5-2.2,3.4
			s-1.2,1.9-1.9,3l6.1-7C183.4,48.3,183.4,48.1,183.3,47.9L183.3,47.9z M188.2,41.2c-0.8,0.4-1.7,0.9-2.7,1.4
			c-0.1,0.1-0.2,0.2-0.2,0.3c0,0.2-0.1,0.4-0.2,0.6c-0.2,0.3-0.3,0.6-0.5,0.8c-0.2,0.2-0.4,0.6-0.6,0.9c-0.3,0.3-0.5,0.6-0.6,1
			c0,0.1,0,0.1,0,0.2c0.1,0.2,0.2,0.4,0.3,0.6c0.2,0.2,0.4,0.3,0.7,0.1c0,0,0.1,0,0.1-0.1c0.5-0.6,1.4-1.7,2.8-3.2
			c0.7-0.8,1.2-1.4,1.7-2c0.2-0.2,0.1-0.5-0.1-0.7C188.6,41.2,188.4,41.2,188.2,41.2z M199,32.5l-2.4,2.9c-0.2,0.2-0.1,0.5,0.1,0.7
			c0.2,0.1,0.4,0.1,0.5,0c2.3-1.2,4.5-2.5,6.6-3.9c2.6-1.7,5.1-3.5,7.4-5.5c1.9-1.6,3.7-3.3,5.2-5.2c1.3-1.6,1.9-3,1.9-4.1
			c0-0.4-0.1-0.8-0.4-1.1s-0.8-0.4-1.2-0.4c-1.8,0-4.1,1.5-7,4.4C206.8,23.2,203.4,27.2,199,32.5L199,32.5z"/>
		<path class="st0" d="M244.5,37.1l0.5-0.8c0.1-0.2,0.1-0.5-0.2-0.6c-0.1-0.1-0.2-0.1-0.4,0c-1.9,0.4-3.9,0.6-5.8,0.6
			c-2.4,0.1-4.7-0.4-6.9-1.3c-1.8-0.8-3.3-2-4.4-3.6c-1-1.5-1.5-3.3-1.5-5.1c0-2.8,1.2-5.5,3.4-8.1s5.5-4.7,9.6-6.3
			c4.2-1.6,8.8-2.4,14-2.4v0.1c0,0.3-0.2,0.5-0.5,0.5l0,0c-4.3,0-8.6,0.8-12.7,2.3c-4,1.5-7,3.5-9.3,6c-2.2,2.5-3.3,5.2-3.3,8.1
			c0,2.7,1,4.9,3.2,6.4c2.1,1.6,5.1,2.4,8.9,2.5c2.4,0,4.7-0.3,7-1c0.1,0,0.2-0.1,0.2-0.2c2.6-3.5,5.4-7,8.4-10.5
			c3.2-3.6,6.7-6.9,10.6-9.8c3.9-3,7.5-4.5,10.8-4.5c2,0,3.1,0.9,3.1,2.6c0,1.3-0.7,3-2.1,4.9c-1.7,2.3-3.8,4.4-6,6.1
			c-2.9,2.3-6,4.4-9.3,6.1c-3.7,1.9-7.6,3.6-11.5,4.8c-0.1,0-0.2,0.1-0.2,0.2l-0.6,0.8c-2.4,3.4-4,5.6-4.8,6.6
			c-1,1.3-2.2,2.6-3.4,3.8c-1.6,1.6-3.3,3-5.2,4.4c-1.9,1.3-3.8,2.5-5.9,3.5c-0.2,0.1-0.3,0.4-0.2,0.6c0,0.1,0.2,0.2,0.3,0.2
			c3,0.9,6.1,1.4,9.2,1.4c1.7,0,3.4-0.3,4.9-0.8c1.8-0.8,3.5-1.8,5-3c1.9-1.4,4.9-4,9-7.7v0.5c0,0.1,0,0.3-0.2,0.4
			c-2.8,2.6-5.1,4.6-6.8,6c-1.4,1.2-2.9,2.3-4.5,3.3c-1.2,0.7-2.4,1.2-3.7,1.6c-1.3,0.3-2.6,0.5-3.9,0.5c-3.1,0-6.8-0.6-11-1.9
			c-0.1,0-0.2,0-0.3,0c-1.7,0.6-3.5,1.1-5.3,1.4s-3.8,0.4-5.6,0.4c-4.5,0-6.8-0.8-6.8-2.5s2-2.6,6.1-2.6c1.5,0,3.1,0.1,4.6,0.4
			c1.8,0.4,3.6,0.8,5.3,1.5l1.6,0.5c0.1,0,0.3,0,0.4,0c3-1.7,5.8-3.8,8.3-6.2C239.4,44.6,241.9,41.3,244.5,37.1z M226,54.1
			c0.2-0.1,0.4-0.4,0.3-0.6c0-0.2-0.2-0.3-0.3-0.3c-1.5-0.4-3-0.8-4.5-1.1c-1.6-0.4-3.3-0.6-4.9-0.6c-1.2,0-2.4,0.1-3.6,0.6
			c-0.8,0.4-1.3,0.8-1.3,1.4c0,1.3,2,1.9,5.9,1.9C220.4,55.4,223.2,55,226,54.1z M251.3,32.2c-0.1,0.2,0,0.5,0.2,0.6
			c0.1,0.1,0.3,0.1,0.4,0c3.7-1.3,7.3-2.9,10.7-4.9c3.1-1.8,6-3.8,8.7-6.1c2-1.7,3.7-3.6,5.2-5.6c1.2-1.7,1.8-3,1.8-3.8
			c0-0.6-0.2-1.2-0.5-1.7c-0.4-0.5-0.9-0.7-1.5-0.6c-3,0.2-6.2,1.6-9.6,4.1c-3.5,2.7-6.6,5.8-9.4,9.2
			C255.2,26.1,253.1,29,251.3,32.2L251.3,32.2z"/>
		<path class="st1" d="M312.8,54V31.4l-4.4-3.4v9.4c0,0.6-0.1,1.3-0.2,1.9c-0.2,0.6-0.2,1.2-0.2,1.8c0,0.5,0,10,0,12.7L312.8,54z
			 M287.2,54H280V31.4l16.4-12.7l8.8,6.7c-0.2,1.2-0.3,2.5-0.3,3.7c0,0,0,8,0,8.4s0.2,0.6,0.9,1s0.7,1.6,0.7,1.6v13.3h-9.1
			c-0.1-4.3-0.1-8.8-0.2-13.3c0,0-0.2-3.1,1.5-4.6s1.5-4.2,1.5-4.2c0-1.5-0.4-3-1.1-4.3c-1.1-2-2.5-2-2.5-2s-1.4,0.1-2.5,2
			c-0.7,1.4-1.1,2.8-1.1,4.3c0,0-0.2,2.8,1.5,4.2c1.7,1.5,1.5,4.6,1.5,4.6v13.3h-8l-0.1-8.6V44c0-0.6,0.2-1.3,0.6-1.8
			c0.6-0.8,1.1-1.2,1.2-3.5c0.1-2.2-0.6-8-0.6-8l-0.1-0.6c0,0,0-0.1-0.1-0.1s-0.2,0-0.2,0c0,0.1,0,6.6,0,6.6s0,1-0.2,1.2
			c-0.2,0.1-0.2-1.2-0.2-1.2l-0.2-6.5c0,0,0-0.2-0.1-0.2s-0.2,0-0.2,0.1c0,0,0,0,0,0.1c0,0.2-0.2,7.2-0.2,7.2s0,0.4-0.2,0.5
			c-0.2-0.1-0.2-0.5-0.2-0.5s-0.2-7-0.2-7.2c0-0.1-0.1-0.2-0.2-0.2c0,0,0,0-0.1,0s-0.1,0.2-0.1,0.2l-0.2,6.5c0,0,0,1.3-0.2,1.2
			c-0.2-0.1-0.2-1.2-0.2-1.2V30c0-0.1-0.1,0-0.2,0s-0.1,0.1-0.1,0.1l-0.1,0.6c0,0-0.6,5.8-0.6,8c0.1,2.2,0.6,2.7,1.2,3.5
			c0.4,0.5,0.6,1.2,0.6,1.8v0.2l0.4,9.4L287.2,54L287.2,54z M308.4,21.7v3.7l6,4.6c0.3,0.2,0.4,0.5,0.4,0.8v23.9h0.4l0,0
			c-0.4,0.5-1.3,0.8-1.3,0.8h-34.5c-0.5,0-1-0.3-1-0.8v-0.1V30.8l0,0c0-0.3,0.1-0.6,0.4-0.8L296,16.6c0.4-0.3,0.8-0.3,1.2,0l8.4,6.6
			c0.1-0.5,0.3-1,0.5-1.5c1.2-2.7,2.2-1.2,2.2-1.2S308.4,20.7,308.4,21.7L308.4,21.7z"/>
	</g>
	<text transform="matrix(0.91 0 0 1 231.7344 76.5786)" class="st0 st2 st3">RE</text>
	<text transform="matrix(0.91 0 0 1 248.4277 76.5786)" class="st0 st2 st3">S</text>
	<text transform="matrix(0.91 0 0 1 255.1758 76.5786)" class="st0 st2 st3">T</text>
	<text transform="matrix(0.91 0 0 1 262.3477 76.5786)" class="st0 st2 st3">A</text>
	<text transform="matrix(0.91 0 0 1 270.7119 76.5786)" class="st0 st2 st3">URANT</text>
</g>
</svg>
