<?xml version="1.0" encoding="utf-8"?>
<!-- Generator: Adobe Illustrator 24.0.1, SVG Export Plug-In . SVG Version: 6.00 Build 0)  -->
<svg version="1.1" id="Layer_1" xmlns="http://www.w3.org/2000/svg" xmlns:xlink="http://www.w3.org/1999/xlink" x="0px" y="0px"
	 viewBox="0 0 1280 1024" style="enable-background:new 0 0 1280 1024;" xml:space="preserve">
<style type="text/css">
	.st0{fill:#DA9100;}
	.st1{fill-rule:evenodd;clip-rule:evenodd;fill:#DA9100;}
	.st2{font-family:'Cambria';}
	.st3{font-size:38.3323px;}
</style>
<g id="Layer_1_1_">
</g>
<g>
	<g id="Layer_2_1_">
		<g>
			<g>
				<g>
					<path class="st0" d="M340.9,214.8c0.4-0.3,0.9-0.4,1.3-0.1l0.6,0.3c-5.2,4.3-10.1,7.5-14.6,9.4c-4.5,2-9.2,2.9-14,2.9
						c-10,0-14.9-4.1-14.9-12.2c0-2.6,0.7-5.4,2.2-8.4c1.5-3,3.8-5.9,7-8.8c3.2-2.8,7.3-5.1,12.2-6.9s11-2.6,18-2.6
						c5.4,0,9.6,1,12.9,2.9c3.2,1.9,4.8,4.5,4.8,7.7c0,0.6-0.2,2.1-0.6,4.4s-0.6,3.4-0.6,3.1c0,1.8,1.6,2.6,4.7,2.6
						c3.7,0,7.4-1.1,11.1-3.1c3.7-2.1,8.2-5.6,13.4-10.4c4.4-4,7.2-6,8.3-6c0.7,0,1,0.2,1,0.6c0,0.8-0.7,1.5-2,2.2
						c-2.6,1.8-7.7,5.9-15.2,12.1c-9.4,7.7-19.4,20.9-30.2,39.5c-0.5,0.9,0.3,2,1.3,1.8l20.6-4.5c0.2-0.1,0.4-0.2,0.6-0.3l10.5-10.6
						l5.8-5.6c11-10.4,21.8-19.1,32.1-26s19-10.4,25.8-10.4c2.3,0,4.1,0.5,5.4,1.5s2,2.4,2,4.3c0,5.6-3.5,11.5-10.6,17.6
						c-7,6.1-16.1,11.7-27.1,16.7c-10.9,5-22.2,8.8-33.8,11.5c-0.3,0.1-0.5,0.2-0.6,0.4c-4.1,5.1-8.5,10.7-13.3,16.8
						c-4.8,6.3-9,12-12.4,17.1c-3.5,5.1-6.3,9.6-8.3,13.6c-2,4-3,7.3-3,9.9c0,1.5,0.6,2.8,1.7,3.9s2.4,1.7,3.7,1.7
						c2.9,0,6.1-0.8,9.6-2.4c3.5-1.6,7.3-3.9,11.4-6.9c4.1-3,8.1-6.1,12-9.4c3.9-3.3,7.9-6.7,12-10.3v1.2c0,0.4-0.2,0.7-0.4,0.9
						c-5,4.3-9.1,7.9-12.4,10.7c-3.4,2.9-7,5.8-10.8,8.6c-3.8,2.8-7.5,5-11,6.6s-6.8,2.4-9.8,2.4c-2.8,0-5.1-0.9-6.8-2.7
						c-1.7-1.8-2.5-4.2-2.5-7c0-13,8.8-29.4,26.3-49.3c0.8-0.9,0-2.2-1.1-2l-18.7,4.1c-0.4,0.1-0.6,0.3-0.8,0.6
						c-0.6,1.3-2.3,3.6-5,7c-3.1,3.9-7.1,8.3-12,13.4c-4.9,5.1-10.8,10.3-17.5,15.7c-5.4,4.3-11.9,8.8-19.6,13.3
						c-7.8,4.5-15.3,6.8-22.6,6.8c-3.7,0-6.1-0.7-7.3-2.1s-1.8-3.2-1.8-5.5c0-5.3,3.3-11.3,9.8-18s15.7-13,27.4-18.7
						c11.6-5.7,24.5-9.6,38.7-12c0.3-0.1,0.6-0.2,0.7-0.4l3-3.8c6.6-8.2,11.5-14,14.6-17.4c2.7-2.9,7.8-8.2,15.2-15.7
						c0.9-0.9,0-2.3-1.1-2c-2.9,0.8-5.3,1.2-7.2,1.2c-5.5,0-8.3-2.2-8.3-6.7c0-0.1,0.2-1.4,0.6-3.7c0.4-2.3,0.6-3.5,0.6-3.6
						c0-4.4-4.2-6.6-12.7-6.6c-8.9,0-16.3,1.5-22,4.4c-5.8,2.9-9.9,6.4-12.4,10.3s-3.8,7.4-3.8,10.5c0,3.3,1.1,5.9,3.5,7.9
						c2.3,1.9,5.6,2.9,9.9,2.9c4.7,0,9.2-0.9,13.5-2.8C331.8,221.4,336.2,218.6,340.9,214.8z M330.8,253.1c0.6-0.9-0.2-2.1-1.2-1.8
						c-13.5,2.7-25.5,6.7-35.9,12.1c-11.1,5.8-19.6,11.8-25.5,18.1c-5.9,6.3-8.8,11.5-8.8,15.7c0,4.3,2.8,6.4,8.3,6.4
						c4.2,0,9.6-1.5,16.1-4.5c6.5-3,14-8.5,22.5-16.3C314.3,275.4,322.4,265.5,330.8,253.1z M382.2,235.6c-0.7,0.9,0.2,2.2,1.3,1.9
						c16.5-4.9,29.6-10.1,39.1-15.6c10.2-5.9,17.1-11.2,20.9-15.9s5.6-8.5,5.6-11.1c0-3.2-1.8-4.8-5.4-4.8c-4.5,0-9.9,1.9-16.1,5.6
						c-6.3,3.7-12.9,8.5-19.6,14.3s-12.6,11.2-17.3,16.1C387.2,229.6,384.4,232.8,382.2,235.6z"/>
					<path class="st0" d="M434.7,274.6v1.3c0,0.3-0.1,0.6-0.3,0.8c-3.7,4.3-7.8,6.4-12.3,6.5c-0.1,0-0.1,0-0.2,0
						c-0.4-0.1-0.9-0.1-1.3-0.2c-0.3,0-0.7-0.1-1-0.1c-0.4,0-0.7,0.1-1,0.4c-10.7,11-19.9,16.4-27.7,16.4c-1.5,0-2.9-0.4-4.1-1.2
						s-2.2-1.8-2.8-3.1c-0.6-1.3-1-2.8-1-4.5c0-4.5,2-9,6-13.3s8.8-7.9,14.5-10.6s10.6-4.1,14.9-4.1c4.6,0,6.9,2.1,6.9,6.4
						c0,3.1-1.3,6.6-4,10.6c-0.5,0.8,0,1.8,0.9,1.9c0.1,0,0.2,0,0.3,0C426.6,281.7,430.7,279.4,434.7,274.6z M418.5,264.3
						c-3.8,0-8.1,2.1-13,6.5c-4.9,4.3-9.3,9-13.2,14.2c-3.9,5.1-5.8,8.3-5.8,9.5c0,1.1,0.5,2,1.5,2.7s2.2,1.1,3.7,1.1
						c3.6,0,7.9-1.8,13-5.3c5-3.5,9.5-7.8,13.4-12.6s5.8-8.6,5.8-11.4c0-1.4-0.5-2.5-1.5-3.3C421.2,264.7,420,264.3,418.5,264.3z"/>
					<path class="st0" d="M432.2,278.8v-1.1c0-0.3,0.1-0.6,0.4-0.9c4.4-4.2,10.4-8.5,18-13c0.2-0.1,0.4-0.2,0.6-0.2h5.6
						c1,0,1.6,1.2,0.9,2l-20.9,23.8c-3.8,4.3-5.7,6.8-5.7,7.5s0.6,1,1.7,1c3.7,0,9.8-3.3,18.3-9.9c8.4-6.5,17.6-14.6,27.8-24.1
						c0.2-0.2,0.5-0.3,0.8-0.3h4.9c1,0,1.6,1.2,0.9,2l-21.9,25c-0.3,0.3-0.8,1-1.7,1.9c-0.9,1-1.5,1.8-1.9,2.6s-0.6,1.4-0.6,2
						c0,0.7,0.5,1,1.6,1c2.5,0,7.2-2.3,14.1-6.8s13.6-10.1,20.2-16.8v1.2c0,0.3-0.1,0.6-0.4,0.9c-6.6,6.5-13.1,12-19.7,16.3
						c-5,3.3-9.1,5.4-12.1,6.2c-4.4,1.2-7-1.5-5.7-5.9c0.5-1.7,1.4-3.6,2.7-5.7c2.1-3.4,5.3-7.7,9.6-13l1.9-2.2l-3.8,3.4
						c-8.2,7.3-15.3,13.1-21.2,17.4c-5.9,4.3-10.6,6.5-14,6.5c-2.5,0-3.8-1.5-3.8-4.4c0-1.9,0.6-4,1.7-6.3s2.6-4.6,4.5-7.1
						s3.8-4.8,5.9-7.2s4.2-4.7,6.4-7.2l-5.1,3c0,0-0.1,0-0.1,0.1C437.7,274.1,434.3,276.8,432.2,278.8z"/>
					<path class="st0" d="M493.4,276.8l20.7-17.9c0,0,0.1-0.1,0.1-0.1c1.6-1.9,3.1-3.7,4.4-5.4c1.3-1.7,2.3-2.5,3-2.5
						c0.5,0,1,0.1,1.5,0.5c0.4,0.3,0.7,0.8,0.7,1.4c0,1.1-1.5,2.5-4.5,4.2c-0.6,0.3-0.8,1.1-0.4,1.7c1.8,2.8,3.1,5.3,4,7.4
						c0.9,2.4,1.5,5.5,1.7,9.1c0,0.1,0,0.1,0,0.2c-0.2,1.7-0.3,3.3-0.6,4.6c-0.1,0.7,0.3,1.3,1,1.4c2,0.3,3.8,0.2,5.4-0.4
						c2-0.7,4.8-2.8,8.3-6.4v1.3c0,0.3-0.1,0.5-0.3,0.8c-2.6,3.2-5,5.2-7.2,6c-2.1,0.7-4.4,0.8-7.1,0.1c-0.6-0.1-1.1,0.1-1.4,0.6
						c-1.6,3.3-4.1,6.1-7.5,8.5c-3.7,2.6-7.4,4.5-11.3,5.8s-7.2,1.9-10,1.9c-2.6,0-4.8-0.5-6.5-1.6c-1.7-1-2.5-2.5-2.5-4.4
						c0-1.7,0.5-3.1,1.5-4.1s2.4-1.6,4.3-1.6c1.2,0,2.2,0.3,3,1c0.8,0.6,1.2,1.5,1.2,2.6c0,0.9-0.4,1.7-1.3,2.3
						c-0.9,0.7-1.7,1-2.7,1c-0.8,0-1.4-0.4-2-1.1c-0.7-1-2.2-0.6-2.2,0.6c0,0,0,0.1,0,0.2c0,0.8,0.7,1.6,2.1,2.4
						c1.4,0.9,3,1.3,4.8,1.3c3.6,0,7.4-1.5,11.4-4.6c4-3.1,7.3-7,10-11.6s4-9.2,4-13.5c0-2.7-0.7-5.4-2.2-8.2
						c-0.4-0.7-1.3-0.9-1.8-0.4l-22.1,19v-1.1C493,277.4,493.1,277,493.4,276.8z"/>
					<path class="st0" d="M579.9,274.6v1.2c0,0.3-0.1,0.6-0.4,0.9c-7.5,7.4-14.3,13.1-20.5,17c-6.3,4-12.7,5.9-19.1,5.9
						c-5.7,0-8.5-3.3-8.5-9.8c0-5.4,2-10.2,6.1-14.3c4.1-4.1,8.9-7.2,14.4-9.5c5.5-2.2,10-3.3,13.5-3.3c2,0,3.5,0.5,4.6,1.4
						s1.7,2.1,1.7,3.6c0,2.3-1.3,4.4-3.8,6.4s-6,3.5-10.5,4.8c-4.3,1.2-9.4,1.9-15.2,2.2c-0.3,0-0.7,0.2-0.9,0.4
						c-4.9,5.6-7.4,9.9-7.4,12.9c0,1.1,0.6,2,1.7,2.7s2.5,1.1,4.2,1.1C550.9,298.2,564.2,290.3,579.9,274.6z M545.6,277.1
						c-0.7,0.8-0.1,2.1,0.9,2c4.4-0.2,8.3-0.9,11.5-2.1c3.9-1.4,6.8-3.1,8.8-5.1c2-2,3-3.5,3-4.8c0-2-1.2-3-3.5-3
						c-3,0-6.6,1.3-10.7,4C552.3,270.5,548.9,273.5,545.6,277.1z"/>
				</g>
				<path class="st0" d="M648.7,242.9c-0.3,0.7-0.9,1.1-1.7,1.1l0,0c3.3-8.1,7.4-15.4,12.5-21.7s10.4-11.6,15.9-15.6
					c5.5-4,10.8-7,16-9c5.1-2,9.4-2.9,12.8-2.9c3.4,0,6.1,1.1,8.1,3.3c2,2.2,3.2,4.9,3,9c-0.3,7-2.9,15.2-8.7,25.8
					s-13.4,21.3-22.8,31.9c-9.3,10.6-19.2,19.4-29.5,26.3s-19.9,10.4-28.6,10.4c-5.2,0-9.5-1.6-12.8-4.7c-3.3-3.1-4.9-7.8-4.9-14
					c0-7,1.8-14.3,5.3-21.9c3.5-7.6,8.8-15.4,16-23.6s15.8-16.4,26-24.6c11.5-9.1,22.4-16,32.8-20.7s20.1-7,29.4-7
					c5.8,0,10.4,1.2,13.8,3.6c3.3,2.4,5,5.7,5,9.9c0,4.7-1.5,8.4-4.5,11.1c-3,2.7-7.3,4.9-13,6.4l0-0.3c0.1-0.7,0.6-1.3,1.4-1.5
					c4.7-1.2,8.2-3.2,10.6-5.9c2.6-2.9,3.9-6.1,3.9-9.8c0-3.9-1.6-6.8-4.8-8.9s-7.5-3.1-13.1-3.1c-10,0-20.4,2.6-31.1,7.9
					c-10.7,5.3-20.7,12.7-30.1,22.3c-5.5,5.6-10.8,11.7-16,18.2s-9.8,13.1-14.1,19.8c-4.3,6.7-7.7,12.8-10.2,18.4
					c-2.5,5.6-3.8,10.3-3.8,14.1c0,3.5,1.2,6.5,3.6,9.1c2.4,2.5,5.7,3.8,9.9,3.8c8.4,0,17.7-3.4,27.9-10.2c10.2-6.8,20-15.5,29.3-26
					c9.4-10.5,17-21,22.8-31.4c5.9-10.5,8.8-18.9,8.8-25.3c0-3.4-0.8-6.1-2.5-8.1c-1.7-2-4-3-7-3c-3.5,0-7.8,1.1-13.1,3.2
					s-10.6,5.2-15.8,9.1s-10.4,9-15.3,15.2C655.5,229.3,651.7,235.8,648.7,242.9z"/>
				<path class="st0" d="M693,273.9v-1.2c0-0.4,0.2-0.8,0.5-1c0.5-0.4,1.4-1,2.7-1.8c1.3-0.9,2.3-1.5,2.8-1.8
					c0.3-0.2,0.5-0.5,0.5-0.9c0.2-1.9,0.7-3.7,1.8-5.3c1.1-1.8,2.3-2.7,3.4-2.7c1.3,0,2,0.7,2.1,2c0.1,0.9,1,1.4,1.7,1
					c7.4-3.7,11.7-5.8,12.9-6.5c0.1-0.1,0.3-0.2,0.4-0.3l24.4-28.2c17.9-20.8,31-31.2,39.4-31.2c1.6,0,2.9,0.5,4,1.4
					c1.1,0.9,1.6,2.2,1.6,3.8c0,4.1-2.7,9.2-8.1,15.1c-5.4,6-13,12.3-22.6,19c-9.6,6.7-20.1,12.8-31.7,18.5
					c-0.2,0.1-0.3,0.2-0.4,0.3L707.6,279c-0.5,0.6-0.3,1.6,0.5,1.9c2.1,0.9,4.1,1.4,5.9,1.4c4.9,0,8.8-0.9,11.8-2.7
					c2.9-1.8,6.7-4.8,11.3-9v1.2c0,0.3-0.1,0.6-0.4,0.9c-4.2,4.1-7.8,7-10.9,8.5c-3.1,1.6-7,2.3-11.6,2.3c-2.7,0-5.3-0.5-7.8-1.6
					c-0.5-0.2-1.1-0.1-1.4,0.3l-48.4,57.5c-0.2,0.3-0.6,0.4-0.9,0.4h-5c-1,0-1.6-1.2-0.9-2l17.2-19.6c3.3-3.8,7.1-8.6,11.6-14.5
					c4.4-5.9,8.3-11.2,11.5-16c3.2-4.7,6.2-9.4,9-14.3c0.1-0.2,0.2-0.4,0.2-0.7l-0.1-1c-0.1-0.9-1.1-1.4-1.8-0.9
					c-0.4,0.3-0.9,0.5-1.3,0.8C695,272.5,694,273.1,693,273.9z M701.4,277.8l-0.5-0.9c-0.5-0.8-1.5-0.8-2,0
					c-0.6,0.9-1.5,2.2-2.5,3.9c-2.2,3.4-4,6.2-5.5,8.5c-1.5,2.3-3.1,4.8-4.8,7.6l15.3-17.6C701.6,278.8,701.6,278.2,701.4,277.8z
					 M713.6,261.1c-2,1-4.2,2.2-6.7,3.6c-0.3,0.2-0.5,0.4-0.6,0.8c-0.1,0.5-0.3,1-0.6,1.6c-0.4,0.8-0.8,1.4-1.3,2s-1,1.4-1.6,2.2
					c-1,1.1-1.5,2-1.6,2.6c0,0.1,0,0.3,0,0.5c0.1,0.5,0.4,1,0.7,1.5c0.5,0.6,1.4,0.7,1.9,0.1c1.2-1.5,3.5-4.2,6.9-8.1
					c1.7-1.9,3.1-3.6,4.2-4.9C715.9,262,714.8,260.5,713.6,261.1z M740.7,239.2l-6.1,7.3c-0.8,1,0.3,2.4,1.5,1.8
					c5.7-3.1,11.3-6.3,16.5-9.7c6.9-4.4,13.1-9,18.6-13.7c5.5-4.7,9.9-9.1,13.1-13.1c3.2-4.1,4.8-7.5,4.8-10.3
					c0-1.2-0.4-2.2-1.1-2.8c-0.8-0.7-1.8-1-3-1c-4.5,0-10.3,3.7-17.4,11C760.4,216,751.5,226.2,740.7,239.2z"/>
				<path class="st0" d="M854.3,250.8l1.2-2c0.5-0.9-0.2-2-1.3-1.8c-4.9,1-9.8,1.5-14.6,1.5c-6.7,0-12.4-1.1-17.2-3.3
					s-8.4-5.1-10.9-8.9c-2.5-3.8-3.7-8.1-3.7-12.8c0-7,2.9-13.7,8.6-20.3c5.7-6.5,13.7-11.8,24-15.7s21.8-5.9,34.8-5.9v0.3
					c0,0.6-0.5,1.2-1.2,1.2c-11.6,0.2-22.2,2.1-31.7,5.8c-9.9,3.8-17.6,8.8-23.2,15c-5.5,6.2-8.3,12.9-8.3,20.3
					c0,6.8,2.6,12.2,7.9,16.1s12.7,5.9,22.3,6.2c5.2,0.2,11-0.6,17.5-2.5c0.3-0.1,0.5-0.2,0.6-0.4c6.4-8.7,13.4-17.4,21.1-26.2
					c7.8-8.9,16.6-17,26.5-24.5c9.8-7.4,18.9-11.2,27.3-11.2c5.1,0,7.7,2.2,7.7,6.6c0,3.3-1.8,7.4-5.3,12.3c-3.5,4.9-8.5,10-15,15.3
					c-6.5,5.4-14.2,10.4-23.2,15.2c-8.9,4.7-18.5,8.7-28.8,12c-0.2,0.1-0.5,0.2-0.6,0.4l-1.4,1.9c-6.1,8.4-10.1,13.9-12.1,16.5
					c-2,2.6-4.8,5.8-8.4,9.5s-7.9,7.3-12.8,10.8c-4.3,3-9.2,5.9-14.8,8.7c-1,0.5-0.8,1.9,0.2,2.2c7.5,2.3,15.1,3.4,23,3.4
					c4.5,0,8.6-0.7,12.3-2.1s8-3.9,12.6-7.6c4.7-3.6,12.2-10,22.5-19.3v1.2c0,0.3-0.2,0.7-0.4,0.9c-7.1,6.4-12.7,11.4-17,15
					c-4.3,3.7-8.1,6.4-11.2,8.2c-3.1,1.8-6.2,3.1-9.2,3.9s-6.3,1.2-9.7,1.2c-7.8,0-16.9-1.6-27.4-4.7c-0.2-0.1-0.5-0.1-0.7,0
					c-4.6,1.6-9,2.8-13.2,3.5c-4.3,0.7-9,1.1-14.1,1.1c-11.4,0-17.1-2.1-17.1-6.2c0-4.3,5.1-6.5,15.2-6.5c3.9,0,7.7,0.3,11.4,1
					c3.7,0.6,8.1,1.9,13.3,3.7l3.9,1.3c0.3,0.1,0.7,0.1,1-0.1c7.8-4.4,14.7-9.6,20.7-15.5C841.5,269.5,847.8,261.3,854.3,250.8z
					 M808,293.4c1.1-0.4,1.1-2,0-2.3c-3.8-1.1-7.5-2.1-11.3-2.8c-5-1-9.1-1.5-12.3-1.5c-3.9,0-6.9,0.5-9,1.4s-3.2,2.1-3.2,3.5
					c0,3.2,4.9,4.8,14.7,4.8C794.4,296.6,801.5,295.5,808,293.4z M871.3,238.5c-0.5,1,0.4,2.1,1.4,1.7c9.8-3.4,18.7-7.5,26.8-12.2
					c8.8-5.1,16.1-10.3,21.8-15.3s10-9.8,13-14.1c3-4.3,4.5-7.6,4.5-9.6c0-1.7-0.4-3.1-1.3-4.3c-0.8-1.1-2.1-1.7-3.7-1.6
					c-7.5,0.5-15.5,3.9-23.9,10.3s-16.2,14-23.4,23C880.3,224.2,875.2,231.6,871.3,238.5z"/>
			</g>
			<path class="st1" d="M1025,293v-56.3l-11-8.4v23.6c0,0-0.1,3.2-0.4,4.8c-0.3,1.6-0.7,3.4-0.6,4.6c0.1,1.2,0,25,0,31.7H1025
				L1025,293z M961,293l-18,0v-56.3l41.1-31.7l21.8,16.8c-0.8,4.9-0.8,9.3-0.8,9.3s-0.1,20.1,0,21.1s0.4,1.5,2.2,2.5
				c1.8,1.1,1.7,4.1,1.7,4.1V292h-22.7c-0.2-10.7-0.3-22-0.5-33.3c0,0-0.5-7.7,3.8-11.4c4.3-3.7,3.8-10.6,3.8-10.6s0-6-2.8-10.8
				s-6.2-5.1-6.2-5.1s-3.4,0.2-6.2,5.1c-2.8,4.9-2.8,10.8-2.8,10.8s-0.5,6.9,3.8,10.6c4.3,3.7,3.8,11.4,3.8,11.4V292l-20,0
				l-0.3-21.5l0.1-2c0,0-0.1-2.5,1.4-4.5c1.5-2,2.8-3.1,2.9-8.7c0.2-5.6-1.4-20.1-1.4-20.1l-0.2-1.4c0,0-0.1-0.2-0.2-0.2
				s-0.4-0.1-0.4,0.1c0,0.2-0.1,16.6-0.1,16.6s0.1,2.6-0.5,2.9s-0.6-2.9-0.6-2.9l-0.6-16.2c0,0,0-0.5-0.2-0.5
				c-0.2-0.1-0.5,0-0.5,0.4c0,0.4-0.4,18-0.4,18s0,1.1-0.6,1.3c-0.5-0.2-0.6-1.3-0.6-1.3s-0.4-17.6-0.4-18c0-0.4-0.3-0.4-0.5-0.4
				c-0.2,0.1-0.2,0.5-0.2,0.5l-0.6,16.2c0,0,0,3.2-0.6,2.9s-0.5-2.9-0.5-2.9s0-16.4-0.1-16.6c0-0.2-0.3-0.1-0.4-0.1
				c-0.2,0-0.2,0.2-0.2,0.2l-0.2,1.4c0,0-1.5,14.5-1.4,20.1c0.2,5.5,1.5,6.7,2.9,8.7c1.5,2,1.4,4.5,1.4,4.5l0,0.4l1,23.6L961,293
				L961,293z M1014,212.4v9.3l14.9,11.5c0.7,0.4,1.1,1.2,1.1,2.1V295h1v0c-0.9,1.3-3.3,2-3.3,2l-86.2,0c-0.7,0.1-1.4-0.2-1.9-0.7
				c-0.5-0.5-0.7-1.1-0.7-1.7V235h0c0-0.7,0.3-1.4,0.9-1.9l42.9-33.4c0.8-0.7,2-0.7,2.9,0l21.1,16.4c0.4-1.4,0.8-2.6,1.3-3.8
				c3.1-6.8,5.4-2.9,5.4-2.9S1014,209.8,1014,212.4L1014,212.4z"/>
		</g>
	</g>
	<text transform="matrix(0.9083 0 0 1 817.5283 349.5542)" class="st0 st2 st3">RESTAURANT</text>
</g>
</svg>
