<?xml version="1.0" encoding="utf-8"?>
<!-- Generator: Adobe Illustrator 24.0.1, SVG Export Plug-In . SVG Version: 6.00 Build 0)  -->
<svg version="1.1" id="Layer_1" xmlns="http://www.w3.org/2000/svg" xmlns:xlink="http://www.w3.org/1999/xlink" x="0px" y="0px"
	 viewBox="0 0 372 94" style="enable-background:new 0 0 372 94;" xml:space="preserve">
<style type="text/css">
	.st0{fill:#80471C;}
	.st1{fill:#3C280D;}
	.st2{font-family:'FootlightMTLight';}
	.st3{font-size:19.512px;}
</style>
<title>house of L CAFETERIA</title>
<g>
	<path class="st0" d="M49,24.8c0.1-0.1,0.4-0.1,0.5-0.1l0.2,0.1c-1.8,1.5-3.7,2.8-5.8,3.8c-1.8,0.8-3.7,1.2-5.6,1.2
		c-4,0-6-1.6-6-4.9c0-1.2,0.3-2.3,0.9-3.4c0.7-1.3,1.7-2.5,2.8-3.5c1.4-1.2,3.1-2.2,4.9-2.7c2.3-0.7,4.8-1.1,7.2-1
		c2.1,0,3.8,0.4,5.1,1.2c1.3,0.8,1.9,1.8,1.9,3.1c0,0.6-0.1,1.2-0.2,1.8c0,0.4-0.1,0.8-0.2,1.2c0,0.7,0.6,1.1,1.9,1.1
		c1.6,0,3.1-0.5,4.4-1.3c1.9-1.2,3.8-2.6,5.4-4.2c1.8-1.6,2.9-2.4,3.3-2.4c0.3,0,0.4,0.1,0.4,0.2c0,0.3-0.3,0.6-0.8,0.9
		c-1.1,0.7-3.1,2.3-6.1,4.8c-3.7,3.1-7.8,8.4-12.1,15.8C51,36.7,51,37,51.3,37.2c0.1,0.1,0.2,0.1,0.3,0.1l8.2-1.8
		c0.1,0,0.2-0.1,0.2-0.1l4.2-4.2l2.3-2.2c4-3.8,8.3-7.3,12.9-10.4c4.2-2.8,7.6-4.1,10.3-4.1c0.8,0,1.5,0.2,2.2,0.6
		c0.5,0.4,0.8,1,0.8,1.7c0,2.2-1.4,4.6-4.2,7c-2.8,2.5-6.4,4.7-10.9,6.7c-4.3,2-8.9,3.5-13.5,4.6c-0.1,0-0.2,0.1-0.3,0.2
		c-1.7,2-3.4,4.3-5.3,6.7c-1.9,2.5-3.6,4.8-5,6.8c-1.2,1.7-2.3,3.6-3.3,5.4c-0.8,1.6-1.2,2.9-1.2,3.9c0,0.6,0.2,1.2,0.7,1.6
		c0.4,0.4,0.9,0.7,1.5,0.7c1.3,0,2.6-0.4,3.8-1c1.6-0.8,3.1-1.7,4.6-2.7c1.6-1.2,3.2-2.4,4.8-3.8l4.8-4.1v0.5c0,0.1-0.1,0.3-0.2,0.4
		c-2,1.7-3.6,3.2-5,4.3c-1.3,1.1-2.7,2.3-4.3,3.4c-1.4,1-2.8,1.9-4.4,2.6c-1.2,0.6-2.5,0.9-3.9,1c-1,0.1-2-0.4-2.7-1.1
		c-0.7-0.8-1-1.8-1-2.8c0-5.2,3.5-11.8,10.5-19.7c0.2-0.2,0.2-0.5,0-0.7c-0.1-0.1-0.3-0.2-0.4-0.1l-7.5,1.6c-0.1,0-0.3,0.1-0.3,0.3
		c-0.6,1-1.3,1.9-2,2.8c-1.2,1.5-2.8,3.3-4.8,5.4c-2.2,2.2-4.5,4.3-7,6.3s-5.1,3.7-7.9,5.3c-3.1,1.8-6.1,2.7-9,2.7
		c-1.5,0-2.4-0.3-2.9-0.8c-0.5-0.6-0.8-1.4-0.7-2.2c0-2.1,1.3-4.5,3.9-7.2s6.3-5.2,10.9-7.5c4.9-2.4,10.1-4,15.5-4.8
		c0.1,0,0.2-0.1,0.3-0.2l1.2-1.5c2.7-3.3,4.6-5.6,5.8-6.9c1.1-1.2,3.1-3.3,6.1-6.3c0.2-0.2,0.2-0.5,0-0.7c-0.1-0.1-0.3-0.2-0.5-0.1
		C58,23.1,57,23.2,56,23.3c-2.2,0-3.3-0.9-3.3-2.7c0-0.1,0.1-0.5,0.2-1.5s0.2-1.4,0.2-1.4c0-1.8-1.7-2.6-5.1-2.6
		c-3.6,0-6.5,0.6-8.8,1.8s-3.9,2.6-5,4.1c-1,1.6-1.5,3-1.5,4.2c-0.1,1.2,0.5,2.4,1.4,3.1c0.9,0.8,2.2,1.2,3.9,1.2
		c1.9,0,3.7-0.4,5.4-1.1C45.7,27.3,47.4,26.2,49,24.8z M45,40.1c0.1-0.2,0.1-0.5-0.1-0.7c-0.1-0.1-0.2-0.1-0.4-0.1
		c-5,0.9-9.8,2.5-14.4,4.8c-4.5,2.3-7.9,4.7-10.2,7.2s-3.5,4.6-3.5,6.3c0,1.7,1.1,2.6,3.3,2.6c1.7,0,3.8-0.6,6.4-1.8
		c2.6-1.2,5.6-3.4,9-6.5C38.4,49,41.7,45.1,45,40.1z M65.6,33.1c-0.2,0.2-0.1,0.5,0.1,0.7c0.1,0.1,0.3,0.1,0.4,0.1
		c6.6-2,11.8-4,15.6-6.2c4.1-2.3,6.8-4.5,8.3-6.4s2.3-3.4,2.3-4.4c0-1.3-0.7-1.9-2.2-1.9c-1.8,0-3.9,0.7-6.5,2.2
		c-2.8,1.7-5.4,3.6-7.9,5.7c-2.7,2.3-5,4.5-6.9,6.5C67.6,30.8,66.4,32,65.6,33.1L65.6,33.1z"/>
	<path class="st0" d="M86.5,48.7v0.5c0,0.1,0,0.2-0.1,0.3c-1.5,1.7-3.1,2.6-4.9,2.6h-0.1L80.9,52l-0.4-0.1c-0.1,0-0.3,0-0.4,0.1
		c-4.3,4.4-8,6.6-11.1,6.6c-1.2,0-2.3-0.7-2.8-1.7c-0.3-0.6-0.4-1.2-0.4-1.8c0-1.8,0.8-3.6,2.4-5.3c1.6-1.8,3.6-3.2,5.8-4.2
		c2.3-1.1,4.2-1.6,6-1.6s2.8,0.9,2.8,2.6c0,1.2-0.5,2.7-1.6,4.3c-0.1,0.2-0.1,0.5,0.1,0.7c0.1,0,0.2,0.1,0.2,0.1h0.1
		C83.3,51.6,85,50.6,86.5,48.7z M80.1,44.6c-1.5,0-3.3,0.9-5.2,2.6c-1.9,1.7-3.7,3.6-5.3,5.7c-1.6,2.1-2.3,3.3-2.3,3.8
		c0,0.4,0.2,0.8,0.6,1.1c0.4,0.3,1,0.4,1.5,0.4c1.4,0,3.2-0.7,5.2-2.1s3.8-3.1,5.3-5s2.3-3.5,2.3-4.6c0-0.5-0.2-1-0.6-1.3
		C81.2,44.8,80.6,44.6,80.1,44.6z"/>
	<path class="st0" d="M85.6,50.4V50c0-0.1,0.1-0.3,0.1-0.3c2.2-2,4.6-3.7,7.2-5.2c0.1,0,0.2-0.1,0.2-0.1h2.2c0.3,0,0.5,0.2,0.5,0.5
		c0,0.1,0,0.2-0.1,0.3l-8.4,9.5c-1.5,1.7-2.3,2.7-2.3,3s0.2,0.4,0.7,0.4c1.5,0,3.9-1.3,7.3-4c3.4-2.6,7.1-5.8,11.1-9.6
		c0.1-0.1,0.2-0.1,0.3-0.1h2c0.3,0,0.5,0.2,0.5,0.5c0,0.1,0,0.2-0.1,0.3l-8.8,10c-0.1,0.1-0.3,0.4-0.7,0.8c-0.3,0.3-0.6,0.7-0.8,1
		c-0.2,0.2-0.2,0.5-0.2,0.8s0.2,0.4,0.7,0.4c1,0,2.9-0.9,5.6-2.7c2.9-1.9,5.6-4.2,8.1-6.7v0.5c0,0.1-0.1,0.3-0.1,0.3
		c-2.4,2.4-5,4.6-7.9,6.5c-2,1.3-3.6,2.2-4.8,2.5c-1.8,0.5-2.8-0.6-2.3-2.3c0.3-0.8,0.6-1.6,1.1-2.3c1.2-1.8,2.4-3.6,3.8-5.2
		l0.8-0.9l-1.5,1.3c-3.3,2.9-6.1,5.3-8.5,7s-4.2,2.6-5.6,2.6c-1,0-1.5-0.6-1.5-1.7c0-0.9,0.3-1.7,0.7-2.5c0.5-1,1.1-1.9,1.8-2.8
		c0.7-1,1.5-1.9,2.4-2.9c0.8-0.9,1.7-1.9,2.6-2.9l-2,1.2l0,0C88.2,48.2,86.9,49.3,85.6,50.4z"/>
	<path class="st0" d="M110,49.6l8.3-7.1c0,0,0,0,0.1-0.1c0.6-0.8,1.2-1.5,1.8-2.1c0.5-0.7,0.9-1,1.2-1c0.2,0,0.4,0.1,0.6,0.2
		s0.3,0.3,0.3,0.5c0,0.5-0.6,1-1.8,1.7c-0.2,0.1-0.3,0.4-0.2,0.6l0,0c0.6,0.9,1.2,1.9,1.6,3c0.4,1.2,0.6,2.4,0.7,3.7v0.1
		c-0.1,0.7-0.1,1.3-0.2,1.8c0,0.3,0.1,0.5,0.4,0.6l0,0c0.7,0.1,1.5,0.1,2.2-0.2c0.8-0.3,1.9-1.1,3.3-2.5v0.5c0,0.1,0,0.2-0.1,0.3
		c-1,1.3-2,2.1-2.9,2.4s-1.9,0.3-2.8,0.1c-0.2-0.1-0.4,0.1-0.5,0.3c-0.7,1.4-1.7,2.5-3,3.4c-1.4,1-2.9,1.8-4.5,2.3
		c-1.3,0.5-2.6,0.7-4,0.8c-0.9,0-1.8-0.2-2.6-0.6c-0.6-0.4-1-1-1-1.8c0-0.6,0.2-1.2,0.6-1.6c0.5-0.4,1.1-0.7,1.7-0.6
		c0.4,0,0.9,0.1,1.2,0.4c0.3,0.3,0.5,0.6,0.5,1s-0.2,0.7-0.5,0.9c-0.3,0.3-0.7,0.4-1.1,0.4c-0.3,0-0.6-0.2-0.8-0.5
		c-0.1-0.2-0.4-0.3-0.7-0.1c-0.1,0.1-0.2,0.2-0.2,0.4v0.1c0,0.3,0.3,0.6,0.8,1c0.6,0.4,1.2,0.5,1.9,0.5c1.4,0,3-0.6,4.6-1.8
		c1.6-1.3,3-2.9,4-4.7c1-1.6,1.5-3.5,1.6-5.4c0-1.2-0.3-2.3-0.9-3.3c-0.1-0.2-0.4-0.3-0.7-0.2c0,0-0.1,0-0.1,0.1l-8.9,7.6V50
		C109.9,49.8,109.9,49.7,110,49.6z"/>
	<path class="st0" d="M144.6,48.7v0.5c0,0.1-0.1,0.3-0.1,0.3c-3,3-5.7,5.2-8.2,6.8c-2.5,1.6-5.1,2.4-7.6,2.4c-2.3,0-3.4-1.3-3.4-3.9
		c0-2.2,0.9-4.2,2.5-5.7c1.6-1.6,3.6-2.9,5.8-3.8c2.2-0.9,4-1.3,5.4-1.3c0.7,0,1.3,0.2,1.8,0.5c0.4,0.3,0.7,0.9,0.7,1.4
		c0,0.9-0.5,1.8-1.5,2.5c-1.3,0.9-2.7,1.5-4.2,1.9c-2,0.5-4,0.8-6.1,0.9c-0.1,0-0.3,0.1-0.3,0.2c-2,2.3-3,4-3,5.2
		c0,0.5,0.3,0.9,0.7,1.1c0.5,0.3,1.1,0.4,1.7,0.4C133,58.2,138.4,55,144.6,48.7z M130.9,49.7c-0.2,0.2-0.2,0.5,0.1,0.7
		c0.1,0.1,0.2,0.1,0.3,0.1c1.6,0,3.1-0.3,4.6-0.8c1.3-0.4,2.5-1.1,3.5-2c0.8-0.8,1.2-1.4,1.2-1.9c0-0.8-0.5-1.2-1.4-1.2
		c-1.2,0-2.6,0.5-4.3,1.6C133.5,47.2,132.1,48.4,130.9,49.7z"/>
	<path class="st0" d="M172.2,36c-0.1,0.3-0.4,0.5-0.7,0.5l0,0c1.2-3.1,2.9-6.1,5-8.7c1.8-2.4,4-4.4,6.4-6.2c2-1.5,4.1-2.7,6.4-3.6
		c2-0.8,3.8-1.2,5.1-1.2c1.2-0.1,2.4,0.4,3.2,1.3c0.9,1,1.3,2.3,1.2,3.6c-0.1,2.8-1.2,6.1-3.5,10.3c-2.6,4.6-5.6,8.9-9.1,12.8
		c-3.5,4-7.5,7.5-11.8,10.5c-4.1,2.8-8,4.1-11.5,4.1c-2.1,0-3.8-0.6-5.1-1.9s-2-3.1-2-5.6c0.1-3,0.8-6,2.1-8.8
		c1.4-3,3.5-6.2,6.4-9.4c3.2-3.6,6.7-6.9,10.4-9.9c4.6-3.7,9-6.4,13.1-8.3c4.1-1.9,8-2.8,11.8-2.8c2.3,0,4.2,0.5,5.5,1.4
		s2.1,2.4,2,4c0,1.9-0.6,3.3-1.8,4.4c-1.2,1.1-2.9,1.9-5.2,2.5v-0.1c0-0.3,0.3-0.5,0.5-0.6c1.9-0.5,3.3-1.3,4.3-2.3
		c1-1.1,1.6-2.5,1.6-3.9c0.1-1.4-0.7-2.8-1.9-3.6c-1.3-0.8-3-1.3-5.2-1.3c-4,0-8.1,1-12.4,3.1c-4.5,2.3-8.6,5.3-12,8.9
		c-2.3,2.3-4.4,4.7-6.4,7.3c-2.1,2.6-3.9,5.2-5.6,7.9c-1.5,2.4-2.9,4.8-4.1,7.4c-1,2.2-1.5,4.1-1.5,5.6c0,1.4,0.5,2.7,1.4,3.6
		c1,1,2.3,1.5,4,1.5c3.4,0,7.1-1.4,11.2-4.1c4.3-3,8.3-6.5,11.7-10.4c3.5-3.8,6.6-8.1,9.1-12.6c2.3-4.2,3.5-7.6,3.5-10.1
		c0.1-1.2-0.3-2.3-1-3.2c-0.7-0.8-1.7-1.3-2.8-1.2c-1.4,0-3.1,0.4-5.2,1.3c-2.3,0.9-4.4,2.2-6.3,3.7c-2.3,1.8-4.4,3.8-6.1,6.1
		C174.8,30.6,173.3,33.2,172.2,36z"/>
	<path class="st0" d="M189.9,48.4V48c0-0.2,0.1-0.3,0.2-0.4c0.2-0.1,0.6-0.4,1.1-0.7c0.5-0.3,0.9-0.6,1.1-0.7
		c0.1-0.1,0.2-0.2,0.2-0.4c0.1-0.8,0.3-1.5,0.7-2.1c0.5-0.7,0.9-1.1,1.4-1.1c0.4,0,0.8,0.3,0.8,0.7v0.1c0,0.3,0.2,0.5,0.5,0.4
		c0.1,0,0.1,0,0.2,0l5.2-2.6c0.1,0,0.1-0.1,0.1-0.1l9.8-11.3c7.1-8.3,12.4-12.5,15.8-12.5c0.6,0,1.2,0.2,1.6,0.6
		c0.4,0.4,0.7,0.9,0.7,1.5c0,1.7-1.1,3.7-3.3,6.1c-2.2,2.4-5.2,4.9-9,7.6c-4,2.8-8.3,5.2-12.7,7.4c-0.1,0-0.1,0.1-0.2,0.1l-8.3,9.9
		c-0.2,0.2-0.1,0.5,0.1,0.7l0.1,0.1c0.7,0.3,1.6,0.5,2.4,0.5c2,0,3.5-0.4,4.7-1.1c1.6-1.1,3.1-2.3,4.5-3.6v0.5
		c0,0.1-0.1,0.3-0.1,0.3c-1.7,1.7-3.1,2.8-4.4,3.4c-1.4,0.7-3,1-4.6,0.9c-1.1,0-2.1-0.2-3.1-0.7c-0.2-0.1-0.4,0-0.6,0.1l-19.4,23
		c-0.1,0.1-0.2,0.2-0.4,0.2h-2c-0.3,0-0.5-0.2-0.5-0.5c0-0.1,0-0.2,0.1-0.3l6.9-7.9c1.3-1.5,2.9-3.5,4.6-5.8
		c1.8-2.4,3.3-4.5,4.6-6.4c1.3-1.9,2.5-3.8,3.6-5.7c0-0.1,0.1-0.2,0.1-0.3v-0.4c0-0.3-0.2-0.5-0.5-0.4c-0.1,0-0.2,0-0.2,0.1
		l-0.5,0.3C190.7,47.9,190.3,48.2,189.9,48.4z M193.2,50l-0.2-0.4c-0.1-0.2-0.4-0.3-0.7-0.2c-0.1,0-0.1,0.1-0.1,0.1l-1,1.6
		c-0.9,1.4-1.6,2.5-2.2,3.4s-1.2,1.9-1.9,3l6.1-7.1C193.3,50.4,193.3,50.2,193.2,50L193.2,50z M198.1,43.3c-0.8,0.4-1.7,0.9-2.7,1.4
		c-0.1,0.1-0.2,0.2-0.2,0.3c-0.1,0.2-0.1,0.4-0.3,0.6c-0.2,0.3-0.3,0.5-0.5,0.8c-0.2,0.2-0.4,0.5-0.6,0.9c-0.3,0.3-0.5,0.7-0.6,1
		c0,0.1,0,0.1,0,0.2c0.1,0.2,0.2,0.4,0.3,0.6c0.2,0.2,0.5,0.3,0.7,0.1l0.1-0.1c0.5-0.6,1.4-1.7,2.8-3.2c0.7-0.8,1.2-1.4,1.7-2
		c0.2-0.2,0.1-0.5-0.1-0.7C198.5,43.3,198.3,43.3,198.1,43.3z M209,34.6l-2.4,2.9c-0.2,0.2-0.1,0.5,0.1,0.7c0.1,0.1,0.3,0.1,0.5,0.1
		c2.3-1.2,4.5-2.5,6.6-3.9c2.6-1.7,5.1-3.5,7.5-5.5c1.9-1.6,3.7-3.3,5.2-5.3c1.3-1.6,1.9-3,1.9-4.1c0-0.4-0.1-0.8-0.4-1.1
		s-0.8-0.4-1.2-0.4c-1.8,0-4.1,1.5-7,4.4C216.9,25.3,213.3,29.4,209,34.6L209,34.6z"/>
	<path class="st0" d="M254.4,39.2l0.5-0.8c0.1-0.2,0.1-0.5-0.2-0.7c-0.1-0.1-0.2-0.1-0.3-0.1c-1.9,0.4-3.9,0.6-5.8,0.6
		c-2.4,0.1-4.7-0.4-6.9-1.3c-1.8-0.7-3.3-2-4.3-3.6c-1-1.5-1.5-3.3-1.5-5.1c0-2.8,1.1-5.5,3.4-8.1s5.5-4.7,9.6-6.3s8.7-2.4,13.9-2.4
		v0.1c0,0.3-0.2,0.5-0.5,0.5l0,0c-4.3,0-8.6,0.8-12.7,2.3c-4,1.5-7,3.5-9.3,6c-2.2,2.5-3.3,5.2-3.3,8.1c0,2.7,1,4.9,3.1,6.4
		s5.1,2.4,8.9,2.5c2.4,0,4.7-0.3,7-1c0.1,0,0.2-0.1,0.3-0.2c2.5-3.5,5.4-7,8.4-10.5c3.2-3.6,6.7-6.9,10.6-9.8
		c3.9-3,7.6-4.5,10.9-4.5c2.1,0,3.1,0.9,3.1,2.6c0,1.3-0.7,3-2.1,4.9c-1.7,2.3-3.8,4.3-6,6.1c-2.9,2.3-6,4.4-9.3,6.1
		c-3.7,1.9-7.5,3.5-11.5,4.8c-0.1,0-0.2,0.1-0.2,0.2l-0.6,0.8c-2.4,3.4-4.1,5.6-4.9,6.6c-1,1.3-2.2,2.6-3.4,3.8
		c-1.6,1.6-3.3,3.1-5.1,4.3c-1.9,1.3-3.8,2.5-5.9,3.5c-0.2,0.1-0.3,0.4-0.2,0.6c0.1,0.1,0.2,0.2,0.3,0.2c3,0.9,6.1,1.4,9.2,1.4
		c1.7,0,3.4-0.3,4.9-0.9c1.8-0.8,3.5-1.8,5.1-3c1.9-1.4,4.9-4,9-7.7v0.5c0,0.1-0.1,0.3-0.2,0.4c-2.8,2.6-5.1,4.6-6.8,6
		c-1.4,1.2-2.9,2.3-4.5,3.3c-1.1,0.7-2.4,1.2-3.7,1.6c-1.3,0.3-2.6,0.5-3.9,0.5c-3.1,0-6.8-0.6-10.9-1.9c-0.1,0-0.2,0-0.3,0
		c-1.7,0.6-3.5,1.1-5.3,1.4c-1.9,0.3-3.7,0.5-5.6,0.4c-4.5,0-6.8-0.8-6.8-2.5s2-2.6,6.1-2.6c1.5,0,3.1,0.1,4.6,0.4
		c1.8,0.3,3.6,0.8,5.3,1.5l1.5,0.5c0.1,0,0.3,0,0.4,0c3-1.7,5.8-3.8,8.3-6.2C249.3,46.7,251.8,43.4,254.4,39.2z M235.9,56.3
		c0.3-0.1,0.4-0.3,0.3-0.6c0-0.1-0.2-0.3-0.3-0.3c-1.5-0.5-3-0.8-4.5-1.1c-1.6-0.4-3.3-0.5-4.9-0.6c-1.2-0.1-2.5,0.1-3.6,0.6
		c-0.9,0.4-1.3,0.9-1.3,1.4c0,1.3,2,1.9,5.9,1.9C230.3,57.5,233.1,57.1,235.9,56.3z M261.2,34.3c-0.1,0.2,0,0.5,0.2,0.7
		c0.1,0.1,0.3,0.1,0.4,0c3.7-1.3,7.3-2.9,10.7-4.9c3.1-1.8,6-3.8,8.7-6.1c1.9-1.7,3.7-3.6,5.2-5.6c1.2-1.7,1.8-3,1.8-3.9
		c0-0.6-0.2-1.2-0.5-1.7s-0.9-0.7-1.5-0.7c-3,0.2-6.2,1.6-9.5,4.1c-3.5,2.7-6.6,5.8-9.3,9.2C265.1,28.2,263,31.2,261.2,34.3
		L261.2,34.3z"/>
	<text transform="matrix(0.91 0 0 1 288.2422 78.9131)" class="st1 st2 st3">Ca</text>
	<text transform="matrix(0.91 0 0 1 307.4795 78.9131)" class="st1 st2 st3">f</text>
	<text transform="matrix(0.91 0 0 1 312.7939 78.9131)" class="st1 st2 st3">eteria</text>
	<path class="st1" d="M345.8,53.4c-2.5,0.4-4.8,1.9-6.5,3.4c2.4,2.3,7.5,2.3,11.7,0s5.9-6.1,4.1-8.6C353,49.8,349.4,52.7,345.8,53.4
		z"/>
	<path class="st1" d="M344.9,52.4c3.5-0.6,7.1-3.4,9.1-5.1c-2.6-1.7-7.1-1.5-10.9,0.6c-3.7,2.1-5.5,5.3-4.5,7.8
		C340.3,54.2,342.5,52.8,344.9,52.4z"/>
	<path class="st1" d="M348.4,31.2c0.7,1.1,2.1,2,3.4,2.7c1.4-1.4,0.8-3.9-1.5-5.6s-5.3-2-7-0.8C344.9,28.1,347.5,29.5,348.4,31.2z"
		/>
	<path class="st1" d="M347.8,31.7c-0.9-1.6-3.5-3-5-3.7c-0.9,1.5-0.2,3.6,1.9,5.1c2.1,1.5,4.7,1.9,6.4,1.2
		C349.8,33.7,348.5,32.8,347.8,31.7z"/>
	<path class="st1" d="M299.2,33.5c0,0,0.3-0.2,0.7-0.5c0.2-0.2,0.4-0.4,0.7-0.6c0.3-0.3,0.5-0.5,0.8-0.8s0.5-0.7,0.6-1.1
		c0.2-0.4,0.3-0.8,0.3-1.3v-0.1V29c0-0.1,0-0.1,0-0.2s0-0.2,0-0.3c0-0.2-0.1-0.4-0.2-0.6c-0.2-0.5-0.5-0.9-0.9-1.2
		c-0.4-0.4-0.8-0.8-1.3-1.1c-0.4-0.4-0.8-0.8-1.2-1.3c-0.3-0.4-0.5-0.9-0.7-1.4c-0.1-0.4-0.1-0.9,0-1.3c0.1-0.4,0.2-0.7,0.3-1.1
		c0.1-0.3,0.2-0.5,0.4-0.8c0.1-0.2,0.2-0.4,0.3-0.5l0.1-0.2c0,0,0,0.1-0.1,0.2l-0.2,0.5c-0.1,0.2-0.1,0.5-0.2,0.8
		c-0.1,0.3-0.1,0.7-0.1,1c0,0.4,0.1,0.8,0.2,1.2c0.2,0.4,0.4,0.8,0.7,1.2c0.4,0.4,0.7,0.8,1.2,1.1c0.4,0.4,0.9,0.7,1.3,1.2
		c0.4,0.4,0.8,0.9,1,1.5c0.1,0.3,0.2,0.6,0.2,0.9c0,0.1,0,0.3,0,0.4s0,0.1,0,0.2l0,0v0.1v0.1c-0.1,0.5-0.3,1-0.5,1.5
		c-0.2,0.4-0.6,0.8-0.9,1.1c-0.6,0.5-1.2,0.9-1.9,1.3C299.8,33.3,299.5,33.4,299.2,33.5z"/>
	<path class="st1" d="M316.6,33.6c0,0,0.3-0.1,0.7-0.4c0.2-0.1,0.4-0.3,0.7-0.5s0.5-0.5,0.8-0.8s0.5-0.6,0.7-1
		c0.1-0.2,0.2-0.4,0.2-0.6c0.1-0.2,0.1-0.4,0.1-0.6c0-0.4,0-0.8-0.2-1.2c-0.2-0.4-0.5-0.8-0.9-1.2c-0.4-0.4-0.8-0.7-1.2-1.1
		s-0.8-0.8-1.1-1.2c-0.3-0.4-0.5-0.9-0.7-1.3c-0.1-0.4-0.1-0.9-0.1-1.3c0.1-0.4,0.1-0.7,0.3-1c0.1-0.3,0.2-0.5,0.4-0.7
		c0.1-0.2,0.2-0.3,0.3-0.5l0.1-0.2c0,0,0,0.1-0.1,0.2c0,0.1-0.1,0.3-0.2,0.5c-0.1,0.3-0.1,0.5-0.2,0.8c-0.1,0.3-0.1,0.7-0.1,1
		c0,0.4,0.1,0.8,0.2,1.1c0.2,0.4,0.4,0.8,0.7,1.1c0.6,0.7,1.5,1.4,2.4,2.2c0.4,0.4,0.8,0.9,1,1.4s0.3,1.1,0.2,1.6s-0.3,1-0.5,1.4
		c-0.3,0.4-0.6,0.7-0.9,1.1c-0.6,0.5-1.2,0.9-1.9,1.1C317.1,33.4,316.9,33.5,316.6,33.6z"/>
	<path class="st1" d="M306.9,27.5c0,0,0.2-0.2,0.6-0.5c0.5-0.4,1-0.9,1.4-1.3c0.3-0.3,0.5-0.6,0.7-1s0.4-0.8,0.5-1.2v-0.2v-0.2v-0.2
		v-0.1c0-0.2,0-0.4-0.1-0.6c-0.1-0.4-0.3-0.9-0.6-1.3c-0.5-0.8-1.3-1.7-1.8-2.6c-0.2-0.4-0.4-0.9-0.4-1.4c0-0.4,0-0.9,0.1-1.3
		c0-0.2,0.1-0.4,0.2-0.5c0.1-0.2,0.2-0.3,0.2-0.5s0.2-0.3,0.2-0.4l0.2-0.3c0.1-0.2,0.2-0.3,0.4-0.4l0.1-0.1l-0.1,0.2
		c0,0.1-0.1,0.3-0.2,0.5c0,0.1-0.1,0.2-0.1,0.3s-0.1,0.3-0.1,0.4c0,0.1-0.1,0.3-0.1,0.5s-0.1,0.3-0.1,0.5c0,0.4,0,0.8,0.1,1.1
		c0.1,0.4,0.3,0.8,0.5,1.2c0.3,0.4,0.5,0.8,0.9,1.2c0.3,0.4,0.7,0.8,1,1.3s0.6,1,0.7,1.5c0,0.3,0.1,0.6,0,0.8v0.2v0.2v0.2l-0.1,0.2
		c-0.2,0.5-0.4,0.9-0.7,1.3c-0.3,0.4-0.6,0.7-1,1c-0.3,0.3-0.6,0.5-1,0.7c-0.3,0.2-0.6,0.3-0.8,0.4
		C307.4,27.4,307.2,27.5,306.9,27.5z"/>
	<path class="st1" d="M323.2,51.2l1.4-0.1c6.1-0.6,10.8-1.1,10.1-7.5c-0.3-2.4-1.4-4-3.3-5c-1.3-0.6-2.8-0.8-4.2-0.7
		c-0.1-0.6-0.2-1.2-0.3-1.8h-36c-0.3,1.3-0.4,2.6-0.4,3.9c0,7.6,5,14.1,12,16.6h-11.7c-0.8,0-1.4,0.5-1.4,1.1s0.6,1.1,1.4,1.1h37.8
		c0.8,0,1.4-0.5,1.4-1.1s-0.6-1.1-1.4-1.1h-13.1C318.5,55.5,321.1,53.7,323.2,51.2z M327.4,40L327.4,40c0.9-0.2,1.9,0,2.8,0.3
		c1.2,0.6,1.9,1.7,2,3.4c0.5,4.4-1.7,4.7-7.4,5.3C326.5,46.3,327.4,43.2,327.4,40L327.4,40z"/>
</g>
</svg>
