<?xml version="1.0" encoding="utf-8"?>
<!-- Generator: Adobe Illustrator 24.0.1, SVG Export Plug-In . SVG Version: 6.00 Build 0)  -->
<svg version="1.1" id="Layer_1" xmlns="http://www.w3.org/2000/svg" xmlns:xlink="http://www.w3.org/1999/xlink" x="0px" y="0px"
	 viewBox="0 0 773 262.4" style="enable-background:new 0 0 773 262.4;" xml:space="preserve">
<style type="text/css">
	.st0{fill:#DA9100;}
	.st1{fill-rule:evenodd;clip-rule:evenodd;fill:#DA9100;}
	.st2{font-family:'Cambria';}
	.st3{font-size:15.332px;}
</style>
<title>house of L logo</title>
<g>
	<g id="Layer_2_1_">
		<path class="st0" d="M265.2,63.7c0.2-0.1,0.4-0.2,0.5,0l0.2,0.1c-1.8,1.5-3.7,2.8-5.8,3.8c-1.8,0.8-3.7,1.2-5.6,1.2
			c-4,0-6-1.6-6-4.9c0-1.2,0.4-2.3,0.9-3.4c0.7-1.3,1.6-2.5,2.8-3.5c1.4-1.2,3.1-2.2,4.9-2.8c2.3-0.8,4.8-1.1,7.2-1
			c2.1,0,3.8,0.4,5.2,1.2c1.3,0.8,1.9,1.8,1.9,3.1c0,0.6-0.1,1.2-0.2,1.8c0,0.4-0.1,0.8-0.2,1.2c0,0.7,0.6,1,1.9,1
			c1.6,0,3.1-0.5,4.4-1.2c2-1.2,3.8-2.6,5.4-4.2c1.8-1.6,2.9-2.4,3.3-2.4c0.3,0,0.4,0.1,0.4,0.2c0,0.3-0.3,0.6-0.8,0.9
			c-1.1,0.7-3.1,2.4-6.1,4.8c-3.7,3.1-7.8,8.4-12.1,15.8c-0.1,0.2,0,0.5,0.2,0.6c0.1,0.1,0.2,0.1,0.4,0l8.2-1.8
			c0.1,0,0.2-0.1,0.2-0.1l4.2-4.2l2.3-2.2c4-3.8,8.3-7.3,12.8-10.4c4.2-2.8,7.6-4.2,10.3-4.2c0.8,0,1.5,0.2,2.2,0.6
			c0.5,0.4,0.8,1,0.8,1.7c0,2.2-1.4,4.6-4.2,7c-2.8,2.4-6.4,4.7-10.8,6.7c-4.4,2-8.9,3.5-13.5,4.6c-0.1,0-0.2,0.1-0.2,0.2
			c-1.6,2-3.4,4.3-5.3,6.8c-1.9,2.5-3.6,4.8-5,6.8c-1.2,1.8-2.3,3.6-3.3,5.4c-0.8,1.6-1.2,2.9-1.2,4c0,0.6,0.2,1.2,0.7,1.6
			c0.4,0.4,0.9,0.7,1.5,0.7c1.3,0,2.6-0.4,3.8-1c1.6-0.8,3.1-1.7,4.6-2.8c1.6-1.2,3.2-2.4,4.8-3.8l4.8-4.1V88c0,0.1-0.1,0.3-0.2,0.4
			c-2,1.7-3.6,3.2-5,4.3c-1.3,1.1-2.8,2.3-4.3,3.4c-1.4,1-2.8,1.9-4.4,2.6c-1.2,0.6-2.6,0.9-3.9,1c-1,0-2-0.4-2.7-1.1
			c-0.7-0.8-1-1.8-1-2.8c0-5.2,3.5-11.8,10.5-19.7c0.2-0.2,0.2-0.5,0-0.7c-0.1-0.1-0.3-0.2-0.4-0.1l-7.5,1.6c-0.2,0-0.3,0.1-0.3,0.2
			c-0.6,1-1.2,1.9-2,2.8c-1.2,1.6-2.8,3.3-4.8,5.4c-2.2,2.2-4.6,4.4-7,6.3c-2.5,2-5.1,3.8-7.8,5.3c-3.1,1.8-6.1,2.8-9,2.8
			c-1.5,0-2.4-0.3-2.9-0.8c-0.5-0.6-0.8-1.4-0.7-2.2c0-2.1,1.3-4.5,3.9-7.2c2.6-2.7,6.3-5.2,11-7.5c4.9-2.4,10.1-4,15.5-4.8
			c0.1,0,0.2-0.1,0.3-0.2l1.2-1.5c2.6-3.3,4.6-5.6,5.8-7c1.1-1.2,3.1-3.3,6.1-6.3c0.2-0.2,0.2-0.5,0-0.7c-0.1-0.1-0.3-0.2-0.5-0.1
			c-1,0.3-1.9,0.4-2.9,0.5c-2.2,0-3.3-0.9-3.3-2.7c0,0,0.1-0.6,0.2-1.5c0.2-0.9,0.2-1.4,0.2-1.4c0-1.8-1.7-2.6-5.1-2.6
			c-3.6,0-6.5,0.6-8.8,1.8c-2.3,1.2-4,2.6-5,4.1s-1.5,3-1.5,4.2c0,1.2,0.4,2.4,1.4,3.2c0.9,0.8,2.2,1.2,4,1.2c1.8,0,3.7-0.4,5.4-1.1
			C261.8,66.2,263.5,65,265.2,63.7z M261.1,79c0.2-0.2,0.1-0.5-0.1-0.7c-0.1-0.1-0.2-0.1-0.4-0.1c-5,1-9.8,2.6-14.4,4.9
			c-4.4,2.3-7.8,4.7-10.2,7.2c-2.4,2.5-3.5,4.6-3.5,6.3c0,1.7,1.1,2.6,3.3,2.6c1.7,0,3.8-0.6,6.4-1.8c2.6-1.2,5.6-3.4,9-6.5
			C254.5,87.9,257.8,84,261.1,79z M281.7,72c-0.2,0.2-0.1,0.5,0.1,0.7c0.1,0.1,0.3,0.1,0.4,0.1c6.6-2,11.8-4,15.6-6.2
			c4.1-2.4,6.8-4.5,8.4-6.4c1.5-1.9,2.2-3.4,2.2-4.4c0-1.3-0.7-1.9-2.2-1.9c-1.8,0-4,0.8-6.4,2.2c-2.8,1.7-5.4,3.6-7.8,5.7
			c-2.7,2.3-5,4.5-6.9,6.4C283.7,69.6,282.6,70.9,281.7,72L281.7,72z"/>
		<path class="st0" d="M302.6,87.6v0.5c0,0.1,0,0.2-0.1,0.3c-1.5,1.7-3.1,2.6-4.9,2.6h-0.1L297,91l-0.4,0c-0.2,0-0.3,0-0.4,0.2
			c-4.3,4.4-8,6.6-11.1,6.6c-1.2,0-2.3-0.6-2.8-1.7c-0.3-0.6-0.4-1.2-0.4-1.8c0-1.8,0.8-3.6,2.4-5.3c1.6-1.8,3.6-3.2,5.8-4.2
			c2.3-1.1,4.2-1.6,6-1.6c1.8,0,2.8,0.8,2.8,2.6c0,1.2-0.5,2.6-1.6,4.2c-0.2,0.2-0.1,0.5,0.2,0.7c0.1,0,0.2,0.1,0.2,0.1h0.1
			C299.4,90.4,301.1,89.5,302.6,87.6z M296.2,83.5c-1.5,0-3.2,0.8-5.2,2.6c-2,1.7-3.7,3.6-5.3,5.7c-1.6,2-2.3,3.3-2.3,3.8
			c0,0.4,0.2,0.8,0.6,1.1c0.4,0.3,1,0.4,1.5,0.4c1.4,0,3.2-0.7,5.2-2.1c2-1.4,3.8-3.1,5.4-5s2.3-3.5,2.3-4.6c0-0.5-0.2-1-0.6-1.3
			C297.2,83.6,296.7,83.4,296.2,83.5z"/>
		<path class="st0" d="M301.7,89.3v-0.4c0-0.1,0-0.2,0.2-0.4c2.2-2,4.6-3.7,7.2-5.2c0.1,0,0.2-0.1,0.2-0.1h2.2
			c0.3,0,0.5,0.2,0.5,0.5c0,0.1,0,0.2-0.1,0.3l-8.4,9.5c-1.5,1.7-2.3,2.7-2.3,3s0.2,0.4,0.7,0.4c1.5,0,3.9-1.3,7.3-4
			s7.1-5.8,11.1-9.6c0.1-0.1,0.2-0.1,0.3-0.1h2c0.3,0,0.5,0.2,0.5,0.5c0,0.1,0,0.2-0.1,0.3l-8.8,10c-0.1,0.1-0.3,0.4-0.7,0.8
			c-0.3,0.3-0.6,0.7-0.8,1c-0.2,0.2-0.2,0.5-0.2,0.8s0.2,0.4,0.6,0.4c1,0,2.9-0.9,5.6-2.7c2.9-2,5.6-4.2,8.1-6.7V88
			c0,0.1,0,0.2-0.2,0.4c-2.4,2.4-5,4.6-7.9,6.5c-2,1.3-3.6,2.2-4.8,2.5c-1.8,0.5-2.8-0.6-2.3-2.4c0.2-0.8,0.6-1.6,1.1-2.3
			c1.2-1.8,2.4-3.6,3.8-5.2l0.8-0.9L316,88c-3.3,2.9-6.1,5.2-8.5,7c-2.4,1.7-4.2,2.6-5.6,2.6c-1,0-1.5-0.6-1.5-1.8
			c0-0.9,0.3-1.7,0.7-2.5c0.5-1,1.1-2,1.8-2.8c0.8-1,1.5-1.9,2.4-2.9c0.8-0.9,1.7-1.9,2.6-2.9l-2,1.2l0,0
			C304.3,87,303,88.1,301.7,89.3z"/>
		<path class="st0" d="M326.1,88.5l8.3-7.2c0,0,0,0,0,0c0.6-0.8,1.2-1.5,1.8-2.2s0.9-1,1.2-1c0.2,0,0.4,0.1,0.6,0.2
			c0.2,0.1,0.3,0.3,0.3,0.6c0,0.4-0.6,1-1.8,1.7c-0.2,0.1-0.3,0.4-0.2,0.6c0,0,0,0,0,0c0.6,0.9,1.2,1.9,1.6,3
			c0.4,1.2,0.6,2.4,0.7,3.6v0.1c-0.1,0.7-0.1,1.3-0.2,1.8c0,0.2,0.1,0.5,0.4,0.6l0,0c0.7,0.1,1.5,0.1,2.2-0.2
			c0.8-0.3,1.9-1.1,3.3-2.6v0.5c0,0.1,0,0.2-0.1,0.3c-1,1.3-2,2.1-2.9,2.4c-0.9,0.3-1.9,0.3-2.8,0c-0.2,0-0.4,0-0.6,0.2
			c-0.7,1.4-1.7,2.5-3,3.4c-1.4,1-2.9,1.8-4.5,2.3c-1.3,0.4-2.6,0.7-4,0.8c-0.9,0-1.8-0.2-2.6-0.6c-0.6-0.4-1-1-1-1.8
			c0-0.6,0.2-1.2,0.6-1.6c0.5-0.4,1.1-0.7,1.7-0.6c0.4,0,0.9,0.1,1.2,0.4c0.3,0.2,0.5,0.6,0.5,1c0,0.4-0.2,0.7-0.5,0.9
			c-0.3,0.2-0.7,0.4-1.1,0.4c-0.3,0-0.6-0.2-0.8-0.4c-0.2-0.2-0.4-0.3-0.7-0.2c-0.1,0.1-0.2,0.2-0.2,0.4v0.1c0,0.3,0.3,0.6,0.8,1
			c0.6,0.4,1.2,0.6,1.9,0.5c1.4,0,3-0.6,4.6-1.8c1.6-1.3,3-2.8,4-4.6c1-1.6,1.6-3.5,1.6-5.4c0-1.2-0.3-2.3-0.9-3.3
			c-0.1-0.2-0.4-0.3-0.6-0.2c0,0-0.1,0-0.1,0l-8.8,7.6v-0.4C326,88.7,326,88.6,326.1,88.5z"/>
		<path class="st0" d="M360.7,87.6v0.5c0,0.1,0,0.2-0.2,0.4c-3,3-5.7,5.2-8.2,6.8c-2.5,1.6-5.1,2.4-7.6,2.4c-2.3,0-3.4-1.3-3.4-3.9
			c0-2.2,0.9-4.2,2.4-5.7c1.6-1.6,3.6-2.9,5.8-3.8c2.2-0.9,4-1.3,5.4-1.3c0.7,0,1.3,0.2,1.8,0.6c0.4,0.4,0.7,0.9,0.7,1.4
			c0,0.9-0.5,1.8-1.5,2.6c-1.3,0.9-2.7,1.6-4.2,1.9c-2,0.5-4,0.8-6.1,0.9c-0.1,0-0.2,0.1-0.4,0.2c-2,2.2-3,4-3,5.2
			c0,0.4,0.3,0.9,0.7,1.1c0.5,0.3,1.1,0.4,1.7,0.4C349.1,97,354.4,93.9,360.7,87.6z M347,88.6c-0.2,0.2-0.2,0.5,0,0.7
			c0.1,0.1,0.2,0.1,0.3,0.1c1.6,0,3.1-0.3,4.6-0.8c1.3-0.4,2.5-1.1,3.5-2c0.8-0.8,1.2-1.4,1.2-1.9c0-0.8-0.5-1.2-1.4-1.2
			c-1.2,0-2.6,0.5-4.3,1.6C349.6,86.1,348.2,87.3,347,88.6z"/>
		<path class="st0" d="M388.3,74.9c-0.1,0.3-0.4,0.4-0.7,0.4l0,0c1.2-3.1,2.9-6,5-8.7c1.8-2.4,4-4.4,6.4-6.2c2-1.5,4.1-2.7,6.4-3.6
			c2-0.8,3.8-1.2,5.1-1.2c1.2,0,2.4,0.4,3.2,1.3c0.9,1,1.3,2.3,1.2,3.6c-0.1,2.8-1.2,6.1-3.5,10.3c-2.6,4.6-5.6,8.8-9.1,12.8
			c-3.5,4-7.4,7.6-11.8,10.5c-4.2,2.8-8,4.2-11.4,4.2c-2.1,0-3.8-0.6-5.1-1.9c-1.3-1.2-2-3.1-2-5.6c0-3,0.8-6,2.1-8.8
			c1.4-3,3.5-6.2,6.4-9.4c3.2-3.6,6.6-6.9,10.4-9.8c4.6-3.6,9-6.4,13.1-8.3c4.1-1.8,8-2.8,11.8-2.8c2.3,0,4.2,0.5,5.5,1.4
			c1.3,0.9,2,2.4,2,4c0,1.9-0.6,3.4-1.8,4.4c-1.2,1.1-2.9,2-5.2,2.6V64c0-0.3,0.2-0.5,0.6-0.6c1.9-0.5,3.3-1.3,4.2-2.4
			c1-1,1.6-2.5,1.6-3.9c0-1.4-0.7-2.8-1.9-3.6c-1.3-0.8-3-1.2-5.2-1.2c-4,0-8.2,1-12.4,3.2c-4.5,2.2-8.6,5.3-12,8.9
			c-2.2,2.3-4.4,4.7-6.4,7.3c-2.1,2.6-4,5.2-5.6,7.9c-1.5,2.4-2.9,4.8-4.1,7.4c-1,2.2-1.5,4.1-1.5,5.6c0,1.4,0.5,2.7,1.4,3.6
			c1,1,2.3,1.5,4,1.5c3.4,0,7.1-1.4,11.2-4.1c4.3-3,8.3-6.4,11.7-10.4c3.5-3.8,6.6-8.1,9.1-12.6c2.4-4.2,3.5-7.6,3.5-10.1
			c0.1-1.2-0.3-2.3-1-3.2c-0.7-0.8-1.7-1.3-2.8-1.2c-1.4,0-3.1,0.4-5.2,1.3c-2.3,0.9-4.4,2.2-6.3,3.6c-2.3,1.8-4.4,3.8-6.1,6.1
			C390.9,69.5,389.4,72.1,388.3,74.9z"/>
		<path class="st0" d="M406,87.3v-0.5c0-0.2,0.1-0.3,0.2-0.4c0.2-0.2,0.6-0.4,1.1-0.7c0.5-0.3,0.9-0.6,1.1-0.7
			c0.1-0.1,0.2-0.2,0.2-0.4c0-0.8,0.3-1.5,0.7-2.1c0.4-0.7,0.9-1.1,1.4-1.1c0.4,0,0.8,0.3,0.8,0.7c0,0,0,0.1,0,0.1
			c0,0.3,0.2,0.5,0.5,0.4c0.1,0,0.1,0,0.2,0l5.2-2.6c0,0,0.1-0.1,0.2-0.1l9.8-11.3c7.2-8.3,12.4-12.5,15.8-12.5
			c0.6,0,1.2,0.2,1.6,0.6c0.4,0.4,0.7,0.9,0.6,1.5c0,1.6-1.1,3.7-3.2,6c-2.2,2.4-5.2,4.9-9,7.6c-4,2.8-8.3,5.2-12.7,7.4
			c0,0-0.1,0.1-0.2,0.1l-8.3,10c-0.2,0.2-0.2,0.5,0,0.7c0,0,0.1,0,0.1,0.1c0.8,0.3,1.6,0.5,2.4,0.6c2,0,3.5-0.4,4.7-1.1
			c1.6-1.1,3.1-2.3,4.5-3.6v0.5c0,0.1,0,0.2-0.2,0.4c-1.7,1.6-3.1,2.8-4.4,3.4c-1.4,0.7-3,1-4.6,0.9c-1.1,0-2.1-0.2-3.1-0.6
			c-0.2-0.1-0.4,0-0.6,0.1l-19.3,23c-0.1,0.1-0.2,0.2-0.4,0.2h-2c-0.3,0-0.5-0.2-0.5-0.5c0-0.1,0-0.2,0.1-0.3l6.9-7.8
			c1.3-1.5,2.8-3.4,4.6-5.8s3.3-4.5,4.6-6.4c1.3-1.9,2.5-3.8,3.6-5.7c0-0.1,0.1-0.2,0.1-0.3l0-0.4c0-0.3-0.2-0.5-0.5-0.4
			c-0.1,0-0.2,0-0.2,0.1l-0.5,0.3C406.8,86.8,406.4,87,406,87.3z M409.3,88.9l-0.2-0.4c-0.2-0.2-0.4-0.3-0.7-0.2
			c0,0-0.1,0.1-0.1,0.1l-1,1.6c-0.9,1.4-1.6,2.5-2.2,3.4c-0.6,0.9-1.2,1.9-1.9,3l6.1-7C409.4,89.3,409.4,89.1,409.3,88.9L409.3,88.9
			z M414.2,82.2c-0.8,0.4-1.7,0.9-2.7,1.4c-0.1,0.1-0.2,0.2-0.2,0.3c0,0.2-0.1,0.4-0.2,0.6c-0.2,0.3-0.3,0.6-0.5,0.8
			c-0.2,0.2-0.4,0.6-0.6,0.9c-0.3,0.3-0.5,0.6-0.6,1c0,0.1,0,0.1,0,0.2c0.1,0.2,0.2,0.4,0.3,0.6c0.2,0.2,0.4,0.3,0.7,0.1
			c0,0,0.1,0,0.1-0.1c0.5-0.6,1.4-1.7,2.8-3.2c0.7-0.8,1.2-1.4,1.7-2c0.2-0.2,0.1-0.5-0.1-0.7C414.6,82.2,414.4,82.2,414.2,82.2z
			 M425,73.5l-2.4,2.9c-0.2,0.2-0.1,0.5,0.1,0.7c0.2,0.1,0.4,0.1,0.5,0c2.3-1.2,4.5-2.5,6.6-3.9c2.6-1.7,5.1-3.5,7.4-5.5
			c1.9-1.6,3.7-3.3,5.2-5.2c1.3-1.6,1.9-3,1.9-4.1c0-0.4-0.1-0.8-0.4-1.1c-0.3-0.3-0.8-0.4-1.2-0.4c-1.8,0-4.1,1.5-7,4.4
			S429.4,68.2,425,73.5L425,73.5z"/>
		<path class="st0" d="M470.5,78.1l0.5-0.8c0.1-0.2,0.1-0.5-0.2-0.6c-0.1-0.1-0.2-0.1-0.4,0c-1.9,0.4-3.9,0.6-5.8,0.6
			c-2.4,0.1-4.7-0.4-6.9-1.3c-1.8-0.8-3.3-2-4.4-3.6c-1-1.5-1.5-3.3-1.5-5.1c0-2.8,1.2-5.5,3.4-8.1s5.5-4.7,9.6-6.3
			c4.2-1.6,8.8-2.4,14-2.4v0.1c0,0.3-0.2,0.5-0.5,0.5l0,0c-4.3,0-8.6,0.8-12.7,2.3c-4,1.5-7,3.5-9.3,6c-2.2,2.5-3.3,5.2-3.3,8.1
			c0,2.7,1,4.9,3.2,6.4c2.1,1.6,5.1,2.4,8.9,2.5c2.4,0,4.7-0.3,7-1c0.1,0,0.2-0.1,0.2-0.2c2.6-3.5,5.4-7,8.4-10.5
			c3.2-3.6,6.7-6.9,10.6-9.8c3.9-3,7.5-4.5,10.8-4.5c2,0,3.1,0.9,3.1,2.6c0,1.3-0.7,3-2.1,4.9c-1.7,2.3-3.8,4.4-6,6.1
			c-2.9,2.3-6,4.4-9.3,6.1c-3.7,1.9-7.6,3.6-11.5,4.8c-0.1,0-0.2,0.1-0.2,0.2l-0.6,0.8c-2.4,3.4-4,5.6-4.8,6.6
			c-1,1.3-2.2,2.6-3.4,3.8c-1.6,1.6-3.3,3-5.2,4.4c-1.9,1.3-3.8,2.5-5.9,3.5c-0.2,0.1-0.3,0.4-0.2,0.6c0,0.1,0.2,0.2,0.3,0.2
			c3,0.9,6.1,1.4,9.2,1.4c1.7,0,3.4-0.3,4.9-0.8c1.8-0.8,3.5-1.8,5-3c1.9-1.4,4.9-4,9-7.7v0.5c0,0.1,0,0.3-0.2,0.4
			c-2.8,2.6-5.1,4.6-6.8,6c-1.4,1.2-2.9,2.3-4.5,3.3c-1.2,0.7-2.4,1.2-3.7,1.6c-1.3,0.3-2.6,0.5-3.9,0.5c-3.1,0-6.8-0.6-11-1.9
			c-0.1,0-0.2,0-0.3,0c-1.7,0.6-3.5,1.1-5.3,1.4c-1.8,0.3-3.8,0.4-5.6,0.4c-4.5,0-6.8-0.8-6.8-2.5c0-1.7,2-2.6,6.1-2.6
			c1.5,0,3.1,0.1,4.6,0.4c1.8,0.4,3.6,0.8,5.3,1.5l1.6,0.5c0.1,0,0.3,0,0.4,0c3-1.7,5.8-3.8,8.3-6.2
			C465.4,85.6,467.9,82.3,470.5,78.1z M452,95.1c0.2-0.1,0.4-0.4,0.3-0.6c0-0.2-0.2-0.3-0.3-0.3c-1.5-0.4-3-0.8-4.5-1.1
			c-1.6-0.4-3.3-0.6-4.9-0.6c-1.2,0-2.4,0.1-3.6,0.6c-0.8,0.4-1.3,0.8-1.3,1.4c0,1.3,2,1.9,5.9,1.9C446.4,96.4,449.2,96,452,95.1z
			 M477.3,73.2c-0.1,0.2,0,0.5,0.2,0.6c0.1,0.1,0.3,0.1,0.4,0c3.7-1.3,7.3-2.9,10.7-4.9c3.1-1.8,6-3.8,8.7-6.1
			c2-1.7,3.7-3.6,5.2-5.6c1.2-1.7,1.8-3,1.8-3.8c0-0.6-0.2-1.2-0.5-1.7c-0.4-0.5-0.9-0.7-1.5-0.6c-3,0.2-6.2,1.6-9.6,4.1
			c-3.5,2.7-6.6,5.8-9.4,9.2C481.2,67.1,479.1,70,477.3,73.2L477.3,73.2z"/>
		<path class="st1" d="M538.8,95V72.4l-4.4-3.4v9.4c0,0.6-0.1,1.3-0.2,1.9c-0.2,0.6-0.2,1.2-0.2,1.8c0,0.5,0,10,0,12.7L538.8,95z
			 M513.2,95H506V72.4l16.4-12.7l8.8,6.7c-0.2,1.2-0.3,2.5-0.3,3.7c0,0,0,8,0,8.4c0,0.4,0.2,0.6,0.9,1c0.7,0.4,0.7,1.6,0.7,1.6v13.3
			h-9.1c-0.1-4.3-0.1-8.8-0.2-13.3c0,0-0.2-3.1,1.5-4.6s1.5-4.2,1.5-4.2c0-1.5-0.4-3-1.1-4.3c-1.1-2-2.5-2-2.5-2s-1.4,0.1-2.5,2
			c-0.7,1.4-1.1,2.8-1.1,4.3c0,0-0.2,2.8,1.5,4.2c1.7,1.5,1.5,4.6,1.5,4.6v13.3h-8l-0.1-8.6l0-0.8c0-0.6,0.2-1.3,0.6-1.8
			c0.6-0.8,1.1-1.2,1.2-3.5c0.1-2.2-0.6-8-0.6-8l-0.1-0.6c0,0,0-0.1-0.1-0.1c-0.1,0-0.2,0-0.2,0c0,0.1,0,6.6,0,6.6s0,1-0.2,1.2
			c-0.2,0.1-0.2-1.2-0.2-1.2l-0.2-6.5c0,0,0-0.2-0.1-0.2c-0.1,0-0.2,0-0.2,0.1c0,0,0,0,0,0.1c0,0.2-0.2,7.2-0.2,7.2s0,0.4-0.2,0.5
			c-0.2-0.1-0.2-0.5-0.2-0.5s-0.2-7-0.2-7.2c0-0.1-0.1-0.2-0.2-0.2c0,0,0,0-0.1,0c-0.1,0-0.1,0.2-0.1,0.2l-0.2,6.5
			c0,0,0,1.3-0.2,1.2c-0.2-0.1-0.2-1.2-0.2-1.2s0-6.6,0-6.6c0-0.1-0.1,0-0.2,0c-0.1,0-0.1,0.1-0.1,0.1l-0.1,0.6c0,0-0.6,5.8-0.6,8
			c0.1,2.2,0.6,2.7,1.2,3.5c0.4,0.5,0.6,1.2,0.6,1.8v0.2l0.4,9.4V95L513.2,95z M534.4,62.7v3.7l6,4.6c0.3,0.2,0.4,0.5,0.4,0.8v23.9
			h0.4l0,0c-0.4,0.5-1.3,0.8-1.3,0.8h-34.5c-0.5,0-1-0.3-1-0.8c0,0,0-0.1,0-0.1V71.8l0,0c0-0.3,0.1-0.6,0.4-0.8l17.2-13.4
			c0.4-0.3,0.8-0.3,1.2,0l8.4,6.6c0.1-0.5,0.3-1,0.5-1.5c1.2-2.7,2.2-1.2,2.2-1.2S534.4,61.7,534.4,62.7L534.4,62.7z"/>
	</g>
	<text transform="matrix(0.91 0 0 1 457.7344 117.5786)" class="st0 st2 st3">RE</text>
	<text transform="matrix(0.91 0 0 1 474.4277 117.5786)" class="st0 st2 st3">S</text>
	<text transform="matrix(0.91 0 0 1 481.1758 117.5786)" class="st0 st2 st3">T</text>
	<text transform="matrix(0.91 0 0 1 488.3477 117.5786)" class="st0 st2 st3">A</text>
	<text transform="matrix(0.91 0 0 1 496.7119 117.5786)" class="st0 st2 st3">URANT</text>
</g>
</svg>
