<?xml version="1.0" encoding="utf-8"?>
<!-- Generator: Adobe Illustrator 24.0.1, SVG Export Plug-In . SVG Version: 6.00 Build 0)  -->
<svg version="1.1" xmlns="http://www.w3.org/2000/svg" xmlns:xlink="http://www.w3.org/1999/xlink" x="0px" y="0px"
	 viewBox="0 0 378 121" style="enable-background:new 0 0 378 121;" xml:space="preserve">
<style type="text/css">
	.st0{fill:#1DC20D;stroke:#028940;stroke-width:0.5;stroke-miterlimit:10;}
	.st1{font-family:'Cambria';}
	.st2{font-size:19.512px;}
	.st3{display:none;fill:#00491B;}
	.st4{fill:#FFC20D;stroke:#FFC20D;stroke-width:0.5;stroke-miterlimit:10;}
	.st5{fill:#D9AD5F;}
	.st6{fill:#FFF18D;}
	.st7{fill:#F9CB83;}
	.st8{fill:#F59083;}
	.st9{fill:#999B9E;}
	.st10{fill:#FFFFFF;}
	.st11{fill:#5C5F61;}
	.st12{fill:#2A8C43;}
	.st13{opacity:0.5;fill:#00733B;enable-background:new    ;}
	.st14{fill:#A74634;}
	.st15{fill:#E64525;}
	.st16{fill:#BF5D61;}
	.st17{fill:#831F2C;}
	.st18{fill:#EF485B;}
	.st19{fill:#D3D5D6;}
	.st20{fill:#8E523A;}
	.st21{fill:#FCE8C7;}
	.st22{fill:#FDD57C;}
	.st23{fill:#359255;}
	.st24{fill:#DCE35D;}
	.st25{opacity:0.4;fill:#359255;enable-background:new    ;}
	.st26{fill:#8598C0;}
	.st27{fill:#AC82AD;}
	.st28{fill:#C2A1BE;}
	.st29{fill:#6F3E2A;}
	.st30{fill:#AD6449;}
	.st31{fill:#7D1300;}
	.st32{fill:#F26B6C;}
	.st33{fill:#F04943;}
	.st34{fill:#EE3524;}
	.st35{opacity:0.4;fill:#7D1300;enable-background:new    ;}
	.st36{fill:#F26A5A;}
	.st37{fill:#F6EB79;}
	.st38{fill:#EDAC63;}
	.st39{fill:#F8AD71;}
	.st40{fill:#FBD7A5;}
</style>
<g id="Layer_3">
	<text transform="matrix(0.91 0 0 1 333.1527 106.9893)" class="st0 st1 st2">OOD</text>
	<text transform="matrix(0.91 0 0 1 323.7543 106.9893)" class="st0 st1 st2">F</text>
	<text transform="matrix(0.91 0 0 1 317.8617 106.9893)" class="st0 st1 st2">-</text>
	<text transform="matrix(0.91 0 0 1 309.1547 106.9893)" class="st0 st1 st2">T</text>
	<text transform="matrix(0.91 0 0 1 300.5638 106.9893)" class="st0 st1 st2">S</text>
	<text transform="matrix(0.91 0 0 1 289.7601 106.9893)" class="st0 st1 st2">A</text>
	<text transform="matrix(0.91 0 0 1 281.4467 106.9893)" class="st0 st1 st2">F</text>
</g>
<g id="Layer_1">
	<title>house of L fastfood</title>
	<path class="st3" d="M459.2-20c-0.7,0-1.3,0.1-2,0.2c-2.3,0.4-3.9,1.1-3.8,1.6c0,0.3,0.7,0.5,2.1,0.5c0.7,0,1.3-0.1,2-0.2
		c1-0.1,1.9-0.4,2.8-0.7c0.7-0.3,1.1-0.6,1-0.8C461.2-19.6,460.6-20,459.2-20z"/>
	<g>
		<path class="st4" d="M41.6,46.2c0.1-0.1,0.4-0.1,0.5,0l0.2,0.1c-1.8,1.5-3.7,2.8-5.8,3.8c-1.8,0.8-3.7,1.2-5.6,1.2
			c-4,0-6-1.6-6-4.9c0-1.2,0.3-2.3,0.9-3.4c0.7-1.3,1.7-2.5,2.8-3.5c1.4-1.2,3.1-2.1,4.9-2.8c2-0.7,4.4-1,7.2-1
			c2.2,0,3.8,0.4,5.2,1.2c1.3,0.8,1.9,1.8,1.9,3.1c0,0.6-0.1,1.2-0.2,1.8c0,0.4-0.1,0.8-0.2,1.2c0,0.7,0.6,1,1.9,1
			c1.6,0,3.1-0.5,4.4-1.2c1.9-1.2,3.7-2.6,5.4-4.2c1.8-1.6,2.9-2.4,3.3-2.4c0.3,0,0.4,0.1,0.4,0.2c0,0.3-0.3,0.6-0.8,0.9
			c-1,0.7-3.1,2.4-6.1,4.8c-3.8,3.1-7.8,8.4-12.1,15.8c-0.1,0.2,0,0.5,0.2,0.7c0.1,0.1,0.2,0.1,0.3,0.1l8.2-1.8l0.2-0.1l4.2-4.2
			l2.3-2.2c4-3.8,8.3-7.3,12.8-10.4c4.1-2.8,7.6-4.2,10.3-4.2c0.8,0,1.5,0.2,2.2,0.6c0.5,0.4,0.8,1.1,0.8,1.7c0,2.2-1.4,4.6-4.2,7
			c-2.8,2.4-6.4,4.7-10.8,6.7c-4.3,2-8.9,3.5-13.5,4.6c-0.1,0-0.2,0.1-0.2,0.2c-1.6,2-3.4,4.3-5.3,6.7c-1.9,2.5-3.6,4.8-5,6.8
			c-1.2,1.7-2.3,3.6-3.3,5.4c-0.8,1.6-1.2,2.9-1.2,4c0,0.6,0.2,1.2,0.7,1.6c0.4,0.4,0.9,0.7,1.5,0.7c1.3,0,2.6-0.4,3.8-1
			c1.6-0.8,3.1-1.7,4.6-2.8c1.6-1.2,3.2-2.4,4.8-3.8c1.6-1.3,3.2-2.7,4.8-4.1v0.5c0,0.1-0.1,0.3-0.2,0.4c-2,1.7-3.6,3.2-5,4.3
			c-1.3,1.1-2.8,2.3-4.3,3.4c-1.4,1-2.8,1.9-4.4,2.6c-1.2,0.6-2.6,0.9-3.9,1c-1,0-2-0.4-2.7-1.1c-0.7-0.8-1-1.8-1-2.8
			c0-5.2,3.5-11.8,10.5-19.7c0.2-0.2,0.2-0.5,0-0.7c-0.1-0.1-0.3-0.2-0.4-0.1l-7.5,1.6c-0.1,0-0.3,0.1-0.3,0.2c-0.6,1-1.2,1.9-2,2.8
			c-1.2,1.6-2.8,3.3-4.8,5.4c-2.2,2.2-4.5,4.3-7,6.3s-5.1,3.7-7.8,5.3c-3.1,1.8-6.1,2.7-9,2.7c-1.5,0-2.4-0.3-2.9-0.8
			c-0.5-0.6-0.8-1.4-0.7-2.2c0-2.1,1.3-4.5,3.9-7.2s6.3-5.2,11-7.5c4.9-2.3,10.1-4,15.5-4.8c0.1,0,0.2-0.1,0.3-0.2l1.2-1.5
			c2.6-3.3,4.6-5.6,5.8-7c1.1-1.2,3.1-3.3,6.1-6.3c0.2-0.2,0.2-0.5,0-0.7c-0.1-0.1-0.3-0.2-0.5-0.1C51,44.2,50,44.3,49,44.4
			c-2.2,0-3.3-0.9-3.3-2.7c0,0,0.1-0.6,0.2-1.5c0.2-0.9,0.2-1.4,0.2-1.4c0-1.8-1.7-2.6-5.1-2.6c-3.6,0-6.5,0.6-8.8,1.8
			c-2.3,1.2-4,2.6-5,4.1c-1,1.6-1.5,3-1.5,4.2c-0.1,1.2,0.5,2.4,1.4,3.2c0.9,0.8,2.2,1.2,4,1.2c1.9,0,3.7-0.4,5.4-1.1
			C38.3,48.6,40,47.5,41.6,46.2z M37.7,61.5c0.1-0.2,0.1-0.5-0.1-0.6c-0.1-0.1-0.2-0.1-0.4-0.1c-5,0.9-9.8,2.6-14.4,4.8
			c-4.4,2.3-7.8,4.7-10.2,7.2s-3.5,4.6-3.5,6.3c0,1.7,1.1,2.6,3.3,2.6c1.7,0,3.8-0.6,6.4-1.8c2.6-1.2,5.6-3.4,9-6.5
			C31.1,70.4,34.4,66.4,37.7,61.5z M58.3,54.5c-0.2,0.2-0.1,0.5,0.1,0.7c0.1,0.1,0.3,0.1,0.4,0.1c6.6-2,11.8-4,15.6-6.2
			c4.1-2.4,6.8-4.5,8.4-6.4c1.5-1.9,2.2-3.4,2.2-4.4c0-1.3-0.7-1.9-2.2-1.9c-1.8,0-4,0.8-6.4,2.2c-2.8,1.7-5.4,3.6-7.8,5.7
			c-2.7,2.3-5,4.5-6.9,6.4C60.5,51.9,59.3,53.1,58.3,54.5L58.3,54.5z"/>
		<path class="st4" d="M79,70.1v0.5c0,0,0.3,0.2,0.2,0.3c-1.5,1.7-3.1,2.6-4.9,2.1h-0.1c-0.2,0.5-0.5,0-0.5,0h-0.4
			c0,0-0.3,0.5-0.4,0.6c-4.3,4.4-8,6.6-11.1,6.6c-0.6,0-1.2-0.2-1.6-0.5c-0.5-0.3-0.9-0.7-1.1-1.2c-0.3-0.6-0.4-1.2-0.4-1.8
			c0-1.8,0.8-3.6,2.4-5.3c1.6-1.8,3.6-3.2,5.8-4.2c2.3-1.1,4.2-1.6,6-1.6s2.8,0.8,2.8,2.6c0,1.2-0.5,2.6-1.6,4.2
			c-0.1,0.2-0.1,0.5,0.1,0.7c0.1,0,0.1,0.1,0.2,0.9h0.1C76,72.9,79,70.1,79,70.1z M72.8,66c-1.5,0-3.2,0.8-5.2,2.6
			c-2,1.7-3.7,3.6-5.3,5.7c-1.6,2-2.3,3.3-2.3,3.8c0,0.4,0.2,0.8,0.6,1.1s1,0.5,1.5,0.4c1.4,0,3.2-0.7,5.2-2.1s3.8-3.1,5.4-5
			s2.3-3.4,2.3-4.6c0-0.5-0.2-1-0.6-1.3C73.9,66.1,73.4,65.9,72.8,66L72.8,66z"/>
		<path class="st4" d="M78,72.1v-0.4c0-0.1,0.1-0.3,0.2-0.4c2.2-2,4.6-3.7,7.2-5.2c0.1,0,0.2-0.1,0.2-0.1h2.2c0.3,0,0.5,0.2,0.5,0.5
			c0,0.1,0,0.2-0.1,0.3l-8.4,9.5c-1.5,1.7-2.3,2.7-2.3,3s0.2,0.4,0.7,0.4c1.5,0,3.9-1.3,7.3-4c3.4-2.6,7-5.8,11.1-9.6
			c0.1-0.1,0.2-0.1,0.3-0.1h2c0.3,0,0.5,0.2,0.5,0.5c0,0.1,0,0.2-0.1,0.3l-8.8,10c-0.1,0.1-0.3,0.4-0.7,0.8c-0.3,0.3-0.6,0.7-0.8,1
			c-0.1,0.2-0.2,0.5-0.2,0.8c0,0.3,0.2,0.4,0.6,0.4c1,0,2.9-0.9,5.6-2.7c2.9-1.9,5.6-4.2,8.1-6.7v0.5c0,0.1-0.1,0.3-0.2,0.4
			c-2.4,2.4-5,4.6-7.9,6.5c-2,1.3-3.6,2.2-4.8,2.5c-1.8,0.5-2.8-0.6-2.3-2.4c0.3-0.8,0.6-1.6,1.1-2.3c1.2-1.8,2.5-3.5,3.8-5.2
			l0.8-0.9L92,70.9c-3.3,2.9-6.1,5.2-8.5,7c-2.4,1.7-4.2,2.6-5.6,2.6c-1,0-1.5-0.6-1.5-1.8c0-0.8,0.2-1.6,0.6-2.3
			c0.5-1.1,1.2-2.2,1.9-3.1c0.8-1,1.5-1.9,2.4-2.9c0.8-1,1.7-1.9,2.6-2.9l-2,1.2l0,0l0,0C80.2,70.2,78.8,71.3,78,72.1z"/>
		<path class="st4" d="M103,71.2l8.6-7.5l0,0c0.6-0.8,1.2-1.6,1.9-2.3s0.9-1,1.2-1c0.2,0,0.4,0.1,0.6,0.2c0.2,0.1,0.3,0.3,0.3,0.6
			c0,0.4-0.6,1-1.9,1.8c-0.2,0.1-0.3,0.4-0.2,0.6l0,0c0.6,0.9,1.1,2,1.7,3.1c0.4,1.2,0.6,2.5,0.7,3.7v-0.1c0,0-0.8,1.3-0.9,1.8
			c-0.1,0.3,0.1,0.5,0.4,0.6l0,0c0.7,0.1,1.5,0.1,2.2-0.2c0.8-0.3,3.3-2.6,3.3-2.6v0.4c0,0.1,0,0.2-0.1,0.3c-1,1.3-2,2.1-2.9,2.4
			c-0.9,0.3-1.9,0.3-2.8,0c-0.2-0.1-0.4,0-0.6,0.2c-0.7,1.4-1.7,2.5-3,3.4c-1.4,1-2.9,1.8-4.6,2.3c-1.3,0.5-2.6,0.7-4.1,0.8
			c-0.9,0-1.8-0.2-2.6-0.6c-0.6-0.3-1-1-1-1.8c0-0.6,0.2-1.2,0.6-1.6c0.5-0.4,1.1-0.7,1.7-0.6c0.4,0,0.9,0.1,1.2,0.4
			c0.3,0.2,0.5,0.6,0.5,1s-0.2,0.7-0.5,0.9c-0.3,0.3-0.7,0.4-1.1,0.4c-0.3,0-0.6-0.2-0.8-0.4c-0.1-0.2-0.4-0.3-0.6-0.2
			c-0.1,0.1-0.2,0.2-0.2,0.4V78c0,0,0.6,0.6,1.1,1c0.6,0.4,1.2,0.5,1.9,0.5c1.4,0,3-0.6,4.6-1.8c1.6-1.3,3-2.9,4-4.6
			c1-1.6,1.6-3.5,1.6-5.4c0-1.1-0.3-2.3-0.9-3.3c-0.1-0.2-0.4-0.3-0.6-0.2c0,0-0.1,0-0.1,0.1l-8.6,7.6v-0.2
			C102.8,71.4,102.9,71.3,103,71.2z"/>
		<path class="st4" d="M137,70.1v0.5c0,0.1-0.1,0.3-0.2,0.4c-3,3-5.7,5.2-8.2,6.8c-2.3,1.5-4.9,2.3-7.6,2.4c-2.3,0-3.4-1.3-3.4-3.9
			c0-2.2,0.9-4.2,2.4-5.7c1.7-1.6,3.6-2.9,5.8-3.8c2.2-0.9,4-1.3,5.4-1.3c0.6,0,1.1,0.1,1.5,0.4c0.7,0.4,1.1,1.1,1,1.9
			c-0.1,0.8-0.6,1.6-1.5,2.3c-1,0.8-2.4,1.4-4.2,1.9c-2,0.5-4,0.8-6.1,0.9c-0.1,0-0.3,0.1-0.4,0.2c-2,2.2-3,4-3,5.2
			c0,0.5,0.3,0.9,0.7,1.1c0.5,0.3,1.1,0.5,1.7,0.4C125.4,79.5,130.7,76.4,137,70.1z M123.6,71.1c-0.2,0.2-0.2,0.5,0,0.7
			c0.1,0.1,0.2,0.1,0.3,0.1c1.6,0,3.1-0.3,4.6-0.8c1.3-0.4,2.5-1.1,3.5-2c0.8-0.8,1.2-1.4,1.2-1.9c0-0.8-0.5-1.2-1.4-1.2
			c-1.2,0-2.6,0.5-4.3,1.6C126.2,68.5,124.9,69.8,123.6,71.1L123.6,71.1z"/>
		<path class="st4" d="M165,57.4c-0.1,0.3-0.4,0.5-0.7,0.4l0,0c2.4-5.9,6.3-11.1,11.4-14.9c2-1.5,4.1-2.7,6.4-3.6
			c1.6-0.7,3.4-1.1,5.1-1.2c1.2-0.1,2.4,0.4,3.2,1.3c0.9,1,1.3,2.3,1.2,3.6c-0.1,2.8-1.2,6.1-3.5,10.3c-2.6,4.6-5.6,8.9-9.1,12.8
			c-3.5,4-7.4,7.5-11.8,10.5c-4.1,2.8-8,4.2-11.4,4.2c-1.9,0.1-3.7-0.6-5.1-1.9c-1.3-1.2-2-3.1-2-5.6c0-2.8,0.7-5.7,2.1-8.8
			c1.4-3,3.5-6.2,6.4-9.4c3.2-3.6,6.7-6.9,10.4-9.8c4.6-3.6,9-6.4,13.1-8.3c4.2-1.9,8-2.8,11.8-2.8c2.3,0,4.2,0.5,5.5,1.4
			c1.3,0.9,2,2.4,2,4c0,1.9-0.6,3.3-1.8,4.4s-2.9,2-5.2,2.6v-0.1c0-0.3,0.3-0.5,0.6-0.6c1.9-0.5,3.3-1.3,4.2-2.4
			c1-1.1,1.6-2.5,1.6-3.9c0.1-1.4-0.7-2.8-1.9-3.6c-1.3-0.8-3-1.2-5.2-1.2c-4,0-8.2,1-12.4,3.2c-4.5,2.3-8.6,5.3-12,8.9
			c-2.3,2.3-4.4,4.7-6.4,7.3c-2,2.5-3.9,5.2-5.6,7.9c-1.5,2.3-2.9,4.8-4.1,7.4c-1,2.2-1.5,4.1-1.5,5.6c0,1.4,0.5,2.7,1.4,3.6
			c1,1,2.3,1.5,4,1.5c3.4,0,7.1-1.4,11.2-4.1c4.3-2.9,8.3-6.4,11.7-10.4c3.5-3.8,6.6-8.1,9.1-12.6c2.4-4.2,3.5-7.6,3.5-10.1
			c0-1.4-0.3-2.4-1-3.2c-0.7-0.8-1.7-1.3-2.8-1.2c-1.4,0-3.1,0.4-5.2,1.3c-2.3,0.9-4.4,2.2-6.3,3.6c-2.3,1.8-4.3,3.8-6.1,6.1
			C167.7,52,166.1,54.6,165,57.4z"/>
		<path class="st4" d="M182,69.8v-0.3c0-0.2,0.1-0.3,0.2-0.4c0.3-0.3,0.8-0.5,1.2-0.8c0.5-0.4,1-0.7,1.2-0.8
			c0.1-0.1,0.2-0.2,0.2-0.4c0.1-0.9,0.3-1.6,0.8-2.3c0.4-0.8,1-1.2,1.5-1.2c0.4,0,0.9,0.3,0.9,0.8v0.2c0,0.3,0.2,0.5,0.5,0.4
			c0.1,0,0.1,0,0.2,0c2.9-1.5,4.6-2.3,5.1-2.6c0,0,0.1-0.1,0.2-0.1l9.6-11.2c7-8.2,12.1-12.4,15.4-12.4c0.6,0,1.2,0.2,1.6,0.6
			c0.4,0.4,0.7,0.9,0.6,1.5c0,1.6-1.1,3.7-3.1,5.9c-2.1,2.4-5.1,4.9-8.8,7.5c-3.9,2.8-8.1,5.2-12.4,7.3c-0.1,0-0.1,0.1-0.2,0.1
			l-8.1,9.9c-0.2,0.2-0.1,0.5,0.1,0.7l0.1,0.1c0.7,0.3,1.5,0.5,2.3,0.6c2,0,3.4-0.4,4.6-1.1c1.6-1.1,3-2.3,4.4-3.6v0.5
			c0,0.1-0.1,0.3-0.2,0.4c-1.7,1.6-3,2.8-4.3,3.4c-1.2,0.6-2.7,0.9-4.5,0.9c-1.1,0-2-0.2-3-0.6c-0.2-0.1-0.4,0-0.6,0.1l-18.9,22.8
			c-0.1,0.1-0.2,0.2-0.4,0.2h-2.4c0,0-0.5,0.2-0.5-0.1c0-0.1,0-0.2,0.1-0.3l6.9-7.8c1.3-1.5,2.8-3.4,4.6-5.8s3.3-4.5,4.6-6.4
			s2.5-3.8,3.6-5.7c0.1-0.1,0.1-0.2,0-0.3v-0.4c0.1-0.3-0.1-0.5-0.4-0.4c-0.1,0-0.2,0-0.2,0.1c-0.2,0.1-0.4,0.2-0.5,0.3
			C183.4,69.2,182,69.8,182,69.8z M186,71.4l-0.2-0.4c-0.1-0.2-0.4-0.3-0.6-0.2c-0.1,0-0.1,0.1-0.2,0.2c-0.2,0.4-0.6,0.9-1,1.6
			c-0.9,1.4-1.6,2.5-2.2,3.4s-1.2,1.9-1.9,3l6.1-7C186,71.8,186,71.6,186,71.4z M190.8,64.7c-0.8,0.4-1.7,0.9-2.7,1.4
			c-0.1,0.1-0.2,0.2-0.2,0.3c-0.1,0.2-0.1,0.4-0.2,0.6c-0.1,0.3-0.3,0.6-0.5,0.8c-0.2,0.2-0.4,0.6-0.6,0.9c-0.3,0.3-0.5,0.6-0.6,1
			V70c0.1,0.2,0.2,0.4,0.3,0.6c0.2,0.2,0.5,0.3,0.7,0.1c0,0,0.1,0,0.1-0.1c0.5-0.6,1.4-1.7,2.8-3.2c0.7-0.8,1.2-1.4,1.7-2
			c0.2-0.2,0.2-0.5,0-0.7C191.3,64.6,191,64.6,190.8,64.7L190.8,64.7z M201.7,55.9l-2.4,2.9c-0.2,0.2-0.1,0.5,0.1,0.7
			c0.2,0.1,0.4,0.1,0.5,0c2.3-1.2,4.5-2.5,6.6-3.9c2.6-1.7,5.1-3.5,7.4-5.5c1.9-1.6,3.7-3.3,5.2-5.2c1.3-1.6,1.9-3,1.9-4.1
			c0-0.4-0.1-0.8-0.4-1.1s-0.8-0.4-1.2-0.4c-1.8,0-4.1,1.5-7,4.4C209.6,46.6,206,50.7,201.7,55.9L201.7,55.9z"/>
		<path class="st4" d="M247.1,60.6l0.5-0.8c0.1-0.2,0.1-0.5-0.2-0.7c-0.1-0.1-0.2-0.1-0.4-0.1c-1.9,0.4-3.9,0.6-5.8,0.6
			c-2.4,0.1-4.7-0.4-6.9-1.3c-1.8-0.7-3.3-2-4.4-3.6c-1-1.5-1.5-3.3-1.5-5.1c0-2.8,1.2-5.5,3.4-8.1c2.3-2.6,5.5-4.7,9.6-6.3
			s8.7-2.4,13.6-2.4V33c0.3,0.3,0.1,0.5-0.2,0.5c-4.3,0-8.6,0.8-12.7,2.3c-4,1.5-7,3.5-9.3,6s-3.3,5.2-3.3,8.1c0,2.7,1,4.9,3.2,6.4
			s5.1,2.4,8.9,2.5c2.4,0,4.7-0.3,7-1c0.1,0,0.2-0.1,0.2-0.2c2.6-3.5,5.4-7,8.4-10.5c3.2-3.6,6.7-6.9,10.6-9.8
			c3.9-3,7.6-4.5,10.9-4.5c2,0,3.1,0.9,3.1,2.6c0,1.3-0.7,3-2.1,4.9c-1.7,2.3-3.7,4.4-6,6.1c-2.9,2.3-6,4.4-9.3,6.1
			c-3.7,1.9-7.5,3.5-11.5,4.8c-0.1,0-0.2,0.1-0.2,0.2l-0.6,0.8c-2.4,3.4-4,5.6-4.8,6.6c-1,1.3-2.2,2.6-3.4,3.8
			c-1.6,1.6-3.3,3-5.1,4.3c-1.9,1.3-3.9,2.5-5.9,3.5c-0.2,0.1-0.3,0.4-0.2,0.6c0.1,0.1,0.2,0.2,0.3,0.2c3,0.9,6.1,1.4,9.2,1.4
			c1.7,0,3.3-0.3,4.9-0.8c1.8-0.7,3.5-1.8,5-3c1.9-1.4,4.9-4,8.9-7.7v0.5c0.1,0.1,0,0.3-0.1,0.4c-2.8,2.6-5.1,4.6-6.8,6
			c-1.4,1.2-2.9,2.3-4.5,3.3c-2.3,1.4-4.9,2.1-7.6,2c-3.1,0-6.8-0.6-11-1.4h-0.3c-1.7,0.1-3.5,0.6-5.3,0.9c-1.9,0.3-3.8,0.4-5.6,0.4
			c-4.6,0-6.8-0.8-6.8-2.5s2-2.6,6.1-2.6c1.5,0,3.1,0.1,4.6,0.4c1.8,0.3,3.6,0.8,5.3,1.5l1.6,0.9h0.4c3-2.1,5.8-4.2,8.3-6.6
			C242,68,244.5,64.8,247.1,60.6z M228.6,77.6c0.3-0.1,0.4-0.4,0.3-0.6c0-0.1-0.2-0.3-0.3-0.3c-1.5-0.4-3-0.8-4.5-1.1
			c-1.6-0.4-3.3-0.6-4.9-0.6c-1.2,0-2.4,0.1-3.6,0.6c-0.8,0.4-1.3,0.8-1.3,1.4c0,1.3,2,1.9,5.9,1.9C223,78.9,225.9,78.5,228.6,77.6z
			 M253.9,55.6c-0.1,0.2-0.1,0.5,0.2,0.6c0.1,0.1,0.3,0.1,0.4,0c3.7-1.3,7.3-2.9,10.7-4.9c3.1-1.8,6-3.8,8.7-6.1
			c2-1.7,3.7-3.6,5.2-5.6c1.2-1.7,1.8-3,1.8-3.8c0-0.6-0.2-1.2-0.5-1.7s-0.9-0.7-1.5-0.6c-3,0.2-6.2,1.6-9.6,4.1
			c-3.5,2.7-6.6,5.8-9.4,9.2C257.8,49.6,255.7,52.5,253.9,55.6z"/>
	</g>
	<g>
		<path class="st5" d="M352,63.8c0.5-1.5,0.8-3.1,1.3-4.7s0.9-3.1,1.2-4.6c0.8-3.2,1.3-6.5,2-9.7l0,0c0-0.1,0-0.3,0-0.4
			c-0.1-0.3-0.3-0.6-0.4-0.9c-0.2-0.3-0.4-0.8-0.7-0.9h-0.1c-0.3,0-0.6,0.1-1,0.2c-0.2,0-0.5,0.1-0.7,0.2h-0.1c0,0-0.1,0.1-0.1,0.2
			l0,0c-1.1,3.4-1.9,7-2.8,10.6c-0.4,1.7-0.8,3.4-1.2,5.1c-0.4,1.8-1,3.5-1.2,5.4c-0.1,0.1-0.1,0.2,0.1,0.2c0.8-0.1,1.6,0,2.4-0.1
			c0.4,0,1,0,1.3-0.4C352.1,63.9,352.1,63.8,352,63.8z"/>
		<path class="st6" d="M350.4,64.1c1.1-3,1.8-6.3,2.5-9.5c0.7-3.3,1.4-6.7,2.2-10c0-0.2,0-0.5,0-0.7l0,0c-1,3.2-1.6,6.6-2.4,9.8
			c-0.4,1.8-0.8,3.6-1.3,5.5c-0.4,1.6-1,3.2-1.3,4.8c-0.5,0-1.1,0-1.6,0.1c1.7-7,3.3-14,5.1-20.9l0,0l0,0c0.6-0.2,1.2-0.3,1.8-0.4
			l0,0c0.2,0.3,0.3,0.6,0.5,0.8c0.2,0.3,0.3,0.6,0.4,1l0,0c-0.8,3-1.2,6.1-1.9,9.1c-0.4,1.8-0.9,3.6-1.4,5.3
			c-0.5,1.6-0.8,3.2-1.2,4.7C351.4,64.1,350.9,64.1,350.4,64.1z"/>
		<path class="st7" d="M353.7,56.9c0.5-4.4,1.5-8.8,1.5-13.3c-2.2,5.4-3.9,11-5.6,16.5c-0.3,1.4-0.7,2.8-1,4.2
			c0.6-0.1,1.1-0.1,1.6-0.1c0.3-1.6,0.9-3.2,1.3-4.8c0.5-1.8,0.8-3.6,1.3-5.5c0.8-3.3,1.4-6.6,2.4-9.8l0,0v0.7
			c-0.8,3.3-1.5,6.6-2.2,10c-0.7,3.2-1.4,6.4-2.5,9.5c0.5,0,1-0.1,1.4-0.2c0.5-1.6,0.8-3.2,1.2-4.7
			C353.2,58.4,353.5,57.6,353.7,56.9z"/>
		<path class="st5" d="M349.5,64c0.2-1.6,0.2-3.3,0.3-4.9c0.2-1.6,0.2-3.2,0.3-4.8c0.1-3.3,0-6.6,0.1-10l0,0c0-0.1,0-0.3,0-0.4
			c-0.2-0.3-0.4-0.5-0.6-0.8c-0.2-0.2-0.6-0.6-0.9-0.7c0,0-0.1,0-0.1,0.1c-0.3,0.1-0.6,0.3-0.9,0.4c-0.2,0.1-0.4,0.2-0.6,0.4H347
			c0,0,0,0.1-0.1,0.2l0,0c-0.4,3.6-0.4,7.3-0.6,11c-0.1,1.8-0.1,3.5-0.2,5.3s-0.3,3.7-0.1,5.5c0,0.1,0,0.2,0.1,0.1
			c0.8-0.3,1.6-0.4,2.3-0.7C348.8,64.6,349.4,64.5,349.5,64C349.6,64,349.5,64,349.5,64z"/>
		<path class="st6" d="M347.9,64.6c0.5-3.2,0.5-6.6,0.6-9.9c0.1-3.4,0.1-6.9,0.2-10.3c0-0.2,0-0.4-0.1-0.6l0,0
			c-0.3,3.4-0.2,6.8-0.4,10.2c-0.1,1.9-0.1,3.8-0.2,5.6c-0.1,1.6-0.4,3.4-0.3,5c-0.5,0.1-1.1,0.3-1.6,0.5c0.3-7.2,0.4-14.5,0.8-21.7
			l0,0l0,0c0.5-0.3,1.1-0.6,1.7-0.8l0,0c0.2,0.2,0.5,0.5,0.6,0.7c0.2,0.3,0.4,0.5,0.6,0.8c0,0,0,0,0,0.1c-0.2,3.1,0,6.3-0.1,9.4
			c0,1.8-0.2,3.7-0.3,5.5c-0.2,1.6-0.1,3.3-0.3,4.9C348.8,64.4,348.4,64.6,347.9,64.6z"/>
		<path class="st7" d="M349.7,56.8c-0.4-4.4-0.3-9-1.2-13.4c-1,5.8-1.6,11.7-2.2,17.5c0,1.4-0.1,2.9-0.2,4.3c0.5-0.2,1-0.4,1.6-0.5
			c0-1.6,0.2-3.4,0.3-5c0.1-1.9,0.1-3.8,0.2-5.6c0.1-3.4,0.1-6.8,0.4-10.2l0,0c0.1,0.2,0.1,0.4,0.1,0.6c-0.1,3.4-0.2,6.9-0.2,10.3
			c0,3.3-0.1,6.6-0.6,9.9c0.5-0.1,0.9-0.3,1.3-0.6c0.2-1.6,0.1-3.3,0.3-4.9C349.6,58.4,349.6,57.6,349.7,56.8z"/>
		<path class="st5" d="M354.6,66.7c0.5-1.5,0.7-3.2,1.2-4.7c0.4-1.6,0.8-3.1,1.1-4.7c0.7-3.2,1.1-6.6,1.8-9.8l0,0v-0.4
			c-0.1-0.3-0.3-0.6-0.4-0.9c-0.2-0.3-0.4-0.8-0.7-0.9h-0.1c-0.3,0.1-0.6,0.1-1,0.2c-0.2,0-0.5,0.1-0.7,0.2h-0.1
			c0,0-0.1,0.1-0.1,0.2l0,0c-1,3.5-1.7,7.1-2.4,10.6c-0.4,1.7-0.7,3.4-1,5.2c-0.5,1.8-0.8,3.6-1,5.4c-0.1,0.1-0.1,0.2,0.1,0.2
			c0.8-0.2,1.6-0.1,2.4-0.2c0.4,0,1,0,1.3-0.4C354.7,66.7,354.6,66.7,354.6,66.7z"/>
		<path class="st6" d="M353,67c1-3.1,1.6-6.4,2.2-9.6c0.6-3.4,1.2-6.7,1.9-10.1c0-0.2,0-0.5,0-0.7l0,0c-0.8,3.2-1.4,6.6-2,10
			c-0.4,1.8-0.7,3.7-1.1,5.5C353.6,63.7,353.1,65.3,353,67c-0.6-0.1-1.2,0-1.7,0.1c1.5-7,2.9-14.1,4.5-21.1l0,0l0,0
			c0.6-0.2,1.2-0.4,1.8-0.5l0,0c0.2,0.3,0.4,0.6,0.5,0.8c0.2,0.3,0.3,0.6,0.5,1l0,0c-0.7,3-1,6.2-1.6,9.2c-0.4,1.8-0.8,3.6-1.2,5.4
			c-0.4,1.6-0.7,3.2-1.1,4.8C354,66.9,353.5,67,353,67z"/>
		<path class="st7" d="M356,59.7c0.4-4.4,1.2-8.9,1.1-13.4c-2,5.4-3.5,11.1-5.2,16.7c-0.3,1.4-0.6,2.8-0.9,4.2
			c0.5-0.1,1.1-0.1,1.6-0.2c0.2-1.6,0.8-3.2,1.1-4.8c0.4-1.8,0.7-3.7,1.1-5.5c0.7-3.3,1.2-6.7,2-10l0,0c0,0.2,0,0.5,0,0.7
			c-0.7,3.3-1.3,6.7-1.9,10.1c-0.6,3.2-1.2,6.5-2.2,9.6c0.5,0,1-0.1,1.4-0.3c0.4-1.6,0.7-3.2,1.1-4.8
			C355.6,61.2,355.8,60.4,356,59.7z"/>
		<path class="st5" d="M353.8,67.3c0.8-1.4,1.3-2.9,2-4.3c0.7-1.4,1.3-2.8,1.9-4.3c1.2-3,2.2-6.1,3.5-9.1l0,0c0-0.1,0-0.2,0.1-0.4
			c-0.1-0.3-0.2-0.6-0.3-1s-0.3-0.7-0.6-1h-0.1c-0.3,0-0.6,0-1,0c-0.2,0-0.5,0-0.7,0.1h-0.1c-0.1,0-0.1,0.1-0.1,0.2l0,0
			c-1.6,3.2-2.9,6.5-4.4,9.8c-0.7,1.6-1.3,3.2-2,4.8c-0.8,1.6-1.5,3.3-2,5c-0.1,0-0.1,0.2,0,0.2c0.8,0,1.6,0.3,2.4,0.4
			c0.4,0,1,0.2,1.3-0.1C353.9,67.4,353.8,67.3,353.8,67.3z"/>
		<path class="st6" d="M352.1,67.2c1.6-2.8,2.8-5.8,3.9-8.8c1.2-3.1,2.4-6.3,3.8-9.4c0.1-0.2,0.1-0.4,0.1-0.6l0,0
			c-1.4,3-2.6,6.2-3.8,9.2c-0.7,1.7-1.4,3.4-2.1,5.1c-0.6,1.5-1.5,2.9-2,4.4c-0.6-0.1-1.1-0.2-1.6-0.2c2.8-6.5,5.4-13.1,8.3-19.6
			l0,0l0,0c0.6-0.1,1.2-0.1,1.8,0l0,0c0.1,0.3,0.3,0.6,0.4,1c0.1,0.3,0.2,0.7,0.3,1l0,0c-1.2,2.8-2.2,5.8-3.3,8.6
			c-0.7,1.7-1.4,3.3-2.2,5c-0.7,1.4-1.2,3-2,4.4C353.1,67.4,352.6,67.3,352.1,67.2z"/>
		<path class="st7" d="M356.5,60.8c1.2-4.2,2.8-8.4,3.6-12.8c-3,4.8-5.5,10-8.1,15.1c-0.6,1.3-1.1,2.6-1.6,3.9
			c0.6,0,1.1,0.1,1.6,0.2c0.5-1.5,1.4-3,2-4.4c0.8-1.7,1.4-3.4,2.1-5.1c1.3-3.1,2.4-6.2,3.8-9.2l0,0c0,0.2,0,0.4-0.1,0.6
			c-1.3,3.1-2.5,6.2-3.8,9.4c-1.2,3-2.4,6.1-3.9,8.8c0.5,0.1,0.9,0.1,1.4,0c0.7-1.4,1.2-3,2-4.4C355.8,62.2,356.2,61.5,356.5,60.8z"
			/>
		<path class="st8" d="M352.6,62.4c0.6-0.4,1-0.9,1.4-1.4c0.3-0.4,0.6-0.9,0.8-1.3c-0.3,0.4-0.7,0.7-1.2,0.9
			c-1.1,0.7-2.3,1.2-3.4,1.8c-0.7,0.4-1.4,0.5-2.1,0.9C349.7,63.9,351.4,63.3,352.6,62.4z"/>
		<path class="st9" d="M291.6,52.6c-1.8,0-6-0.1-6.2-1.8c-0.2-2,5.6-4.1,11.1-5c1.9-0.3,3.8-0.5,5.7-0.5c1.8,0,6,0.1,6.2,1.8
			c0.1,1.2-1.6,2.2-3.2,2.8c-2.6,1-5.2,1.7-8,2.1C295.4,52.4,293.5,52.6,291.6,52.6z"/>
		<path class="st10" d="M302.2,45.7c-1.9,0-3.7,0.2-5.6,0.5c-6.6,1-11,3.2-10.8,4.5c0.1,0.8,1.9,1.5,5.8,1.5c1.9,0,3.7-0.2,5.6-0.5
			c2.7-0.4,5.3-1.1,7.9-2.1c1.9-0.8,3-1.7,3-2.4C307.9,46.4,306.1,45.7,302.2,45.7z"/>
		<path class="st11" d="M297.6,48c-0.4,0-0.7,0-1.1,0.1c-1.3,0.2-2.1,0.6-2.1,0.8c0,0.2,0.4,0.3,1.1,0.3c0.4,0,0.7,0,1.1-0.1
			c0.5-0.1,1-0.2,1.5-0.4c0.4-0.2,0.6-0.3,0.6-0.4C298.7,48.2,298.4,48,297.6,48z"/>
		<path class="st12" d="M295.5,33l-1.6,0.5l-0.1-0.1l-1.5,0.1l2.7,15.6c0,0.1,0.3,0.2,0.8,0.2c0.3,0,0.5,0,0.8-0.1
			c0.4-0.1,0.8-0.1,1.1-0.3c0.3-0.1,0.4-0.2,0.4-0.3L295.5,33z"/>
		<path class="st13" d="M297.8,48.9c0.2-0.1,0.4-0.2,0.4-0.3L295.5,33l-0.6,0.2C295,34.4,297.4,46.6,297.8,48.9z"/>
		<path class="st12" d="M292.7,33.4h-0.4L295,49c0,0.1,0.2,0.2,0.4,0.2C294.6,44,293.9,38.6,292.7,33.4z"/>
		<path class="st5" d="M345.4,62.4c0.2-1.6,0.2-3.3,0.3-4.9c0.2-1.6,0.2-3.2,0.3-4.8c0.1-3.3,0-6.6,0.1-10l0,0c0-0.1,0-0.3,0-0.4
			c-0.2-0.3-0.4-0.5-0.6-0.8c-0.2-0.2-0.6-0.6-0.9-0.7c0,0-0.1,0-0.1,0.1c-0.3,0.1-0.6,0.3-0.9,0.4c-0.2,0.1-0.4,0.2-0.6,0.4h-0.1
			c0,0,0,0.1-0.1,0.2l0,0c-0.4,3.6-0.4,7.3-0.6,11c-0.1,1.8-0.1,3.5-0.2,5.3s-0.3,3.7-0.1,5.5c0,0.1,0,0.2,0.1,0.1
			c0.8-0.3,1.6-0.4,2.3-0.7C344.7,63,345.3,63,345.4,62.4C345.5,62.4,345.4,62.4,345.4,62.4z"/>
		<path class="st6" d="M343.8,63.1c0.5-3.2,0.5-6.6,0.6-9.9c0.1-3.4,0.1-6.9,0.2-10.3c0-0.2,0-0.4-0.1-0.6l0,0
			c-0.3,3.4-0.2,6.8-0.4,10.2c-0.1,1.9-0.1,3.8-0.2,5.6c-0.1,1.6-0.4,3.4-0.3,5c-0.5,0.1-1.1,0.3-1.6,0.5c0.3-7.2,0.4-14.5,0.8-21.7
			l0,0l0,0c0.5-0.3,1.1-0.6,1.7-0.8l0,0c0.2,0.2,0.5,0.5,0.6,0.7c0.2,0.3,0.4,0.5,0.6,0.8c0,0,0,0,0,0.1c-0.2,3.1,0,6.2-0.1,9.4
			c0,1.8-0.2,3.7-0.3,5.5c-0.2,1.6-0.1,3.3-0.3,4.9C344.7,62.8,344.3,63,343.8,63.1z"/>
		<path class="st7" d="M345.6,55.2c-0.4-4.4-0.3-9-1.2-13.4c-1,5.8-1.6,11.7-2.2,17.5c0,1.4-0.1,2.9-0.2,4.3c0.5-0.2,1-0.4,1.6-0.5
			c0-1.6,0.2-3.4,0.3-5c0.1-1.9,0.1-3.8,0.2-5.6c0.1-3.4,0.1-6.8,0.4-10.2l0,0c0.1,0.2,0.1,0.4,0.1,0.6c-0.1,3.4-0.2,6.9-0.2,10.3
			c0,3.3-0.1,6.6-0.6,9.9c0.5-0.1,0.9-0.3,1.3-0.6c0.2-1.6,0.1-3.3,0.3-4.9C345.5,56.8,345.6,56,345.6,55.2z"/>
		<path class="st5" d="M343.8,65.8c0.5-1.5,0.8-3.1,1.3-4.7s0.9-3.1,1.2-4.6c0.8-3.2,1.3-6.5,2-9.7l0,0v-0.4
			c-0.1-0.3-0.3-0.6-0.4-0.9c-0.2-0.3-0.4-0.8-0.7-0.9h-0.1c-0.3,0-0.6,0.1-1,0.2c-0.2,0-0.5,0.1-0.7,0.2h-0.1c0,0-0.1,0.1-0.1,0.2
			l0,0c-1.1,3.4-1.9,7-2.8,10.5c-0.4,1.7-0.8,3.4-1.2,5.1c-0.4,1.8-1,3.5-1.2,5.4c-0.1,0.1-0.1,0.2,0.1,0.2c0.8-0.1,1.6,0,2.4-0.1
			C342.9,66.3,343.5,66.3,343.8,65.8L343.8,65.8z"/>
		<path class="st6" d="M342.2,66c1.1-3,1.8-6.3,2.5-9.5c0.7-3.3,1.4-6.7,2.2-10c0-0.2,0-0.5,0-0.7l0,0c-1,3.2-1.6,6.6-2.4,9.8
			c-0.4,1.8-0.8,3.6-1.3,5.5c-0.4,1.6-1,3.2-1.3,4.8c-0.5,0-1.1,0-1.6,0.1c1.7-7,3.3-14,5.1-20.9l0,0l0,0c0.6-0.2,1.2-0.3,1.8-0.4
			l0,0c0.2,0.3,0.3,0.6,0.5,0.8c0.2,0.3,0.3,0.6,0.4,1l0,0c-0.8,3-1.2,6.1-1.9,9.1c-0.4,1.8-0.9,3.6-1.4,5.3
			c-0.5,1.6-0.8,3.2-1.2,4.7C343.1,66,342.6,66.1,342.2,66z"/>
		<path class="st7" d="M345.4,58.8c0.5-4.4,1.5-8.8,1.5-13.3c-2.2,5.4-3.9,11-5.6,16.5c-0.3,1.4-0.7,2.8-1,4.2
			c0.6-0.1,1.1-0.1,1.6-0.1c0.3-1.6,0.9-3.2,1.3-4.8c0.5-1.8,0.8-3.6,1.3-5.5c0.8-3.3,1.4-6.6,2.4-9.8l0,0v0.7
			c-0.8,3.3-1.5,6.7-2.2,10c-0.7,3.2-1.4,6.4-2.5,9.5c0.5,0,1-0.1,1.4-0.2c0.5-1.6,0.8-3.2,1.2-4.7C345,60.3,345.2,59.6,345.4,58.8z
			"/>
		<path class="st5" d="M348.6,67.1c0.5-1.5,0.8-3.2,1.3-4.7s0.9-3.1,1.2-4.6c0.8-3.2,1.3-6.5,2-9.7l0,0c0-0.1,0-0.3,0-0.4
			c-0.1-0.3-0.3-0.6-0.4-0.9c-0.2-0.3-0.4-0.8-0.7-0.9h-0.1c-0.3,0-0.6,0.1-1,0.2c-0.2,0-0.5,0.1-0.7,0.2h-0.1c0,0-0.1,0.1-0.1,0.2
			l0,0c-1.1,3.4-1.9,7-2.8,10.6c-0.4,1.7-0.8,3.4-1.2,5.1c-0.4,1.8-1,3.5-1.2,5.4c-0.1,0.1-0.1,0.2,0.1,0.2c0.8-0.1,1.6,0,2.4-0.1
			c0.4,0,1,0,1.3-0.4C348.6,67.1,348.6,67.1,348.6,67.1z"/>
		<path class="st6" d="M346.9,67.4c1.1-3,1.8-6.3,2.5-9.5c0.7-3.3,1.4-6.7,2.2-10c0-0.2,0-0.5,0-0.7l0,0c-1,3.2-1.6,6.6-2.4,9.8
			c-0.4,1.8-0.8,3.6-1.3,5.5c-0.4,1.6-1,3.2-1.3,4.8c-0.5,0-1.1,0-1.6,0.1c1.7-7,3.3-14,5.1-20.9l0,0l0,0c0.6-0.2,1.2-0.3,1.8-0.4
			l0,0c0.2,0.3,0.3,0.6,0.5,0.8c0.2,0.3,0.3,0.6,0.4,1l0,0c-0.8,3-1.2,6.1-1.9,9.1c-0.4,1.8-0.9,3.6-1.4,5.3
			c-0.5,1.6-0.8,3.2-1.2,4.7C347.9,67.3,347.4,67.4,346.9,67.4z"/>
		<path class="st7" d="M350.2,60.1c0.5-4.4,1.5-8.8,1.5-13.3c-2.2,5.4-3.9,11-5.6,16.5c-0.3,1.4-0.7,2.8-1,4.2
			c0.6-0.1,1.1-0.1,1.6-0.1c0.3-1.6,0.9-3.2,1.3-4.8c0.5-1.8,0.8-3.6,1.3-5.5c0.8-3.3,1.4-6.6,2.4-9.8l0,0V48
			c-0.8,3.3-1.5,6.6-2.2,10c-0.7,3.2-1.4,6.4-2.5,9.5c0.5,0,1-0.1,1.4-0.2c0.5-1.6,0.8-3.2,1.2-4.7C349.8,61.6,350,60.9,350.2,60.1z
			"/>
		<path class="st5" d="M343.6,64.6c0-1.6-0.3-3.2-0.4-4.9s-0.2-3.2-0.4-4.8c-0.4-3.3-1-6.6-1.4-9.8l0,0l-0.1-0.4
			c-0.2-0.2-0.4-0.4-0.7-0.6c-0.3-0.2-0.6-0.5-1-0.5c0,0-0.1,0-0.1,0.1c-0.3,0.2-0.6,0.4-0.8,0.6c-0.2,0.1-0.4,0.3-0.6,0.5H338
			c0,0.1,0,0.1,0,0.2c0,0,0,0,0,0.1c0.2,3.7,0.6,7.3,1,11c0.2,1.8,0.4,3.5,0.6,5.3c0.1,1.8,0.3,3.7,0.7,5.5c0,0.1,0,0.2,0.1,0.1
			c0.7-0.4,1.4-0.8,2.2-1.2c0.4-0.2,0.9-0.4,1-1C343.7,64.6,343.6,64.6,343.6,64.6z"/>
		<path class="st6" d="M342.2,65.6c0-3.3-0.4-6.6-0.9-9.8c-0.4-3.4-0.9-6.8-1.3-10.2c0-0.2-0.1-0.4-0.2-0.6c0,0,0,0,0,0.1
			c0.2,3.4,0.8,6.8,1.1,10.2c0.2,1.9,0.5,3.7,0.6,5.6c0.2,1.6,0.1,3.4,0.4,5c-0.5,0.2-1,0.5-1.5,0.8c-0.8-7.2-1.6-14.4-2.3-21.6l0,0
			l0,0c0.5-0.4,1-0.8,1.5-1.2l0,0c0.3,0.2,0.5,0.4,0.8,0.6s0.5,0.5,0.7,0.7c0,0,0,0,0,0.1c0.3,3.1,0.9,6.2,1.3,9.3
			c0.2,1.8,0.4,3.7,0.5,5.5c0.1,1.6,0.4,3.3,0.4,4.9C343,65.1,342.6,65.4,342.2,65.6z"/>
		<path class="st7" d="M342.8,57.5c-1-4.3-1.6-8.8-3-13c-0.2,5.9,0.1,11.8,0.3,17.7c0.2,1.4,0.3,2.8,0.5,4.3c0.5-0.3,1-0.6,1.5-0.8
			c-0.3-1.6-0.3-3.4-0.4-5c-0.2-1.9-0.4-3.8-0.6-5.6c-0.4-3.4-0.9-6.8-1.1-10.2c0,0,0,0,0-0.1c0.1,0.2,0.2,0.4,0.2,0.6
			c0.4,3.4,0.8,6.8,1.3,10.2c0.4,3.2,0.9,6.6,0.9,9.8c0.5-0.2,0.9-0.5,1.2-0.8c-0.1-1.6-0.4-3.3-0.4-4.9
			C342.9,59,342.8,58.2,342.8,57.5z"/>
		<path class="st14" d="M352.8,76.2L352.8,76.2c0.9-2.5,1.8-5.1,2.5-7.7c0.4-1.3,0.7-2.7,1.2-4c0.3-0.9,0.5-2,0.8-2.9l0,0
			c0-0.1,0.1-0.3,0.2-0.4c0.1-0.2,0.2-0.4,0.3-0.6c0-0.1,0-0.1,0-0.1c0-0.1,0.1-0.2,0.1-0.3c0.1-0.3,0.6-1,0.6-1.3s-0.1-0.4-0.4-0.3
			c-0.1,0-0.3,0.1-0.4,0.2c-0.4,0.3-0.5,0-0.7-0.4c-0.1-0.3-0.4-0.4-0.7-0.3l0,0c-0.2,0.1-0.4,0.2-0.5,0.3c-0.6,0.4-0.6-0.6-0.9-0.8
			s-0.6-0.1-0.9,0.1c-0.6,0.4-0.7-0.5-1.3-0.6c-0.3-0.1-0.7,0.5-0.9,0.5l0,0c-0.4-0.2-0.6-1.1-1-1.2c-0.2,0-0.4,0-0.6,0.1
			c-0.5,0.2-0.7,0-1.1-0.3s-1,0.4-1.4,0c-0.3-0.3-0.4-0.8-0.9-0.7c-0.2,0.1-0.5,0.2-0.7,0.4c-0.1,0.1-0.5-0.6-0.6-0.7
			c-0.2-0.2-0.6,0-0.8,0.1c-0.5,0.4-0.6,0.6-1.2-0.2c-0.2-0.2-0.2-0.4-0.5-0.4c-0.4-0.1-1,0.8-1.4,0.4c-0.2-0.4-0.4-1-0.8-0.8
			c-0.6,0.1-1,0.7-1.4,0c-0.2-0.3-0.4-0.4-0.7-0.2c-0.3,0.2-0.6,0.5-1,0.2c-0.2-0.1-0.2-0.3-0.4-0.4c-0.1,0-0.1,0-0.2,0
			c0,0.1,0,0.1,0,0.2l0,0c0,0-0.1,0-0.2,0.1c-0.6,3-1.1,5.9-1.3,9c-0.2,3-0.7,6-0.7,9.1l0,0c-0.3,0.6-0.9,1.1-1.1,1.8v0.1
			c0.3,0.4,0.8,0.2,1.2,0.1c1.2-0.2,2.2,0.6,3.3,1c1,0.4,2,0.6,3,0.9c1.1,0.3,2.1,0.7,3.2,1c1.9,0.5,3.8,0.7,5.8,0.6
			c0.5-0.1,1.1,0,1.6,0.2c0.1,0,0.2,0,0.3,0C352.8,77.7,352.8,76.6,352.8,76.2z"/>
		<path class="st15" d="M352,77.4c-0.2-0.1-0.3-0.2-0.5-0.2c-0.3,0-0.6,0.1-0.9,0.1c-0.4,0-0.9,0-1.3,0c-2,0-4-0.4-5.9-1
			c-2-0.7-4.1-1.1-6.1-2.1c-0.6-0.3-0.9-0.6-1.6-0.4c-0.3,0.1-1.5,0.4-1-0.4c0.3-0.3,0.5-0.7,0.6-1.1l0.1-0.1c0.2-3,0.4-5.9,0.7-8.8
			c0.3-3.1,0.6-6.2,1.1-9.3l0,0c0.2,0.2,0.3,0.7,0.6,0.7c0.5,0,0.8-0.8,1.2-0.2c0.2,0.3,0.5,0.5,0.9,0.4c0.2-0.1,0.4-0.2,0.5-0.3
			c0.2-0.2,0.7,0.5,0.9,0.7h0.1c0.1,0.2,0.2,0.2,0.5,0.1c0.2-0.1,0.4-0.2,0.6-0.4c0.6-0.4,0.6,0.5,1,0.8s0.6,0.1,1-0.1
			c0.5-0.3,0.8-0.4,1.1,0.4c0,0.1,0.1,0.1,0.2,0.2c0.1,0,0.2,0,0.3-0.1c0.4-0.3,0.8-0.3,1.2,0.2c0.3,0.4,0.6,0.3,1,0.1
			s0.8,0.5,1.3,0.4s1.1,0,1.4,0.5c0.1,0.1,0.2,0.2,0.3,0.3c0,0,0,0.1,0,0.2l0.1,0.1l0,0c0.3-0.1,0.6-0.2,0.9-0.4
			c0.4-0.2,0.6,0.6,0.8,0.8c0.3,0.1,0.5-0.1,0.7-0.2c1-0.6,0.7,0.9,1.3,0.8c0.3,0,1.1-0.5,1.3-0.4c0.2,0.2,0.2,0.9,0.6,0.9
			s1.3-0.9,0.7,0.2c-0.3,0.5-0.5,1.1-0.6,1.7c-0.3,0.9-0.6,1.8-0.8,2.7c-0.4,1.4-0.9,2.9-1.3,4.4c-0.7,2.8-2,5.4-2.6,8.2v0.1
			c-0.1,0.3-0.1,0.5-0.2,0.8C352.3,77.6,352.2,77.6,352,77.4z"/>
		<path class="st10" d="M338.6,54.9c0.1,0,0.2,0,0.2,0c0.3,0.3,0.5,0.6,0.7,0.9c0.3-0.3,0.7-0.8,1-0.7c0.4,0.1,0.9,1.5,1.1,1.3
			s0.8-1,1.2-0.8c0.4,0.3,0.6,0.9,0.9,1.3c0.3-0.4,0.7-0.7,1.1-0.9c0.1,0,0.2,0,0.2,0l0,0c0.2,0.4,0.4,0.7,0.6,1.1
			c0.3,0.3,0.7-0.2,0.9-0.4c0.2-0.2,0.7,0,0.9,0.2c0.2,0.3,0.4,1,1,0.5c0.2-0.2,0.4-0.3,0.6-0.4c0.4-0.1,0.6,0.2,0.8,0.6
			c0.4,0.7,0.8-0.2,1.2,0.1c0.4,0.2,0.4,1.5,1.1,0.8c0.2-0.2,0.6-0.5,0.9-0.4c0.2,0.1,0.3,0.6,0.4,0.8c0.3,0.4,0.8-0.1,1-0.2
			c0.1,0,0.2,0,0.2,0l0,0c0.2,0.5,0.4,1.1,0.9,0.7c0.1-0.1,0.4-0.2,0.6-0.2c0.2,0.1,0.4,0.2,0.4,0.4c0.1,0.4,0.3,0.7,0.6,1
			c0.1-0.4,0.3-0.9,0.5-1.3c0.6-1.1-0.3-0.2-0.7-0.2s-0.4-0.7-0.6-0.9s-1,0.4-1.3,0.4c-0.6,0-0.3-1.4-1.3-0.8
			c-0.2,0.1-0.5,0.3-0.7,0.2c-0.3-0.1-0.5-1-0.8-0.8c-0.2,0.2-0.5,0.4-0.9,0.4h-0.1c0,0,0-0.1,0-0.2c-0.1,0-0.3-0.1-0.3-0.3
			c-0.3-0.5-0.8-0.6-1.4-0.5c-0.5,0-0.9-0.7-1.3-0.4c-0.4,0.2-0.7,0.3-1-0.1c-0.2-0.4-0.7-0.5-1-0.3c-0.1,0-0.1,0.1-0.2,0.1
			c-0.1,0.1-0.2,0.1-0.3,0.1s-0.2-0.1-0.2-0.2c-0.3-0.7-0.6-0.7-1.1-0.4c-0.4,0.2-0.6,0.4-1,0.1c-0.4-0.2-0.4-1.2-1-0.8
			c-0.2,0.1-0.4,0.3-0.6,0.4c-0.2,0.1-0.4,0.1-0.5-0.1h-0.1c-0.2-0.2-0.7-0.8-0.9-0.7c-0.2,0.1-0.3,0.2-0.5,0.3
			c-0.3,0.1-0.7,0-0.9-0.4c-0.4-0.6-0.8,0.2-1.2,0.2c-0.3,0-0.4-0.4-0.6-0.7l0,0c-0.1,0.6-0.2,1.3-0.3,1.9
			C337.5,55.6,338.1,55.2,338.6,54.9z"/>
		<path class="st8" d="M340.4,59.8c-0.4-0.4-0.9-0.7-1.4-1.2c1.2,2.8,3.2,5.1,5.9,6.5c-0.7-0.9-1.3-1.8-2-2.7
			C342.2,61.4,341.3,60.6,340.4,59.8z"/>
		<path class="st8" d="M344.9,67.2c1,0.1,1.9,0,2.8-0.3c1.2-0.4,2-1,2.4-2.2C348.6,65.9,346.8,66.6,344.9,67.2z"/>
		<path class="st16" d="M352.3,77.2c0-0.3,0.1-0.6,0.2-0.8v-0.1l0,0c0.6-2.8,1.8-5.4,2.6-8.2c0.4-1.5,0.9-2.9,1.3-4.4
			c0.2-0.9,0.5-1.8,0.8-2.7c0.1-0.6,0.3-1.2,0.6-1.7c0.6-1.1-0.3-0.2-0.7-0.2s-0.4-0.7-0.6-0.9c-0.1,0-0.3,0-0.4,0
			c-0.6,0.9-1.4,1.6-2.4,2.2c-1.1,0.7-2.3,1.2-3.4,1.8c-0.8,0.4-1.8,0.6-2.5,1.2c1.9,0.6,3.9-0.4,5.6-1.2c0.1,0,0.2,0.1,0.2,0.2
			c0,0,0,0,0,0.1c-0.7,2.2-2.2,4.6-3.9,5.8c-1.6,1-3.5,1.4-5.4,1c-3.4-0.6-6.8-3.5-6.6-7.7c0-0.1,0.1-0.2,0.2-0.2s0.1,0,0.2,0.1
			c0.7,1.2,1.7,2.3,2.8,3.1c0.7,0.6,1.6,1.3,2.5,1.5c-0.5-0.9-1.6-1.6-2.2-2.3c-0.8-1-1.6-2-2.2-3.1c-1-1.8-1.6-3.8-1.9-5.8
			c-0.4,2.8-0.6,5.6-1,8.4c-0.3,3-0.6,5.8-0.7,8.8c0,0,0,0.1-0.1,0.1c-0.2,0.4-0.4,0.8-0.6,1.1c-0.6,0.7,0.7,0.4,1,0.4
			c0.7-0.2,1,0.1,1.6,0.4c1.9,1,4,1.4,6.1,2.1c1.9,0.7,3.9,1,5.9,1c0.4,0,0.9,0.1,1.3,0c0.3-0.1,0.6-0.1,0.9-0.1
			c0.2,0,0.4,0.1,0.5,0.2C352.2,77.6,352.3,77.6,352.3,77.2z"/>
		<path class="st8" d="M339.4,62c0.9,1.7,2.3,3.1,4,4c-0.6-0.8-1.5-1.5-2.1-2.2c-1.4-1.6-2.5-3.5-3.2-5.6
			C338.2,59.6,338.7,60.9,339.4,62z"/>
		<path class="st16" d="M352.3,77.2c0-0.3,0.1-0.6,0.2-0.8v-0.1l0,0c0.6-2.8,1.8-5.4,2.6-8.2c0.4-1.5,0.9-2.9,1.3-4.4
			c0.2-0.5,0.3-1,0.4-1.6l-0.2,0.5c-0.9,2-1.8,4-3.1,5.6c-1,1.4-2.1,2.6-3.6,3.2c-1.4,0.4-2.9,0.5-4.3,0.2c-2.8-0.3-6.4-1.3-8-4.2
			c-0.9-1.7-1.2-3.6-1.3-5.5l-0.1,1.3c-0.3,3-0.6,5.8-0.7,8.8c0,0,0,0.1-0.1,0.1c-0.2,0.4-0.4,0.8-0.6,1.1c-0.6,0.7,0.7,0.4,1,0.4
			c0.7-0.2,1,0.1,1.6,0.4c1.9,1,4,1.4,6.1,2.1c1.9,0.7,3.9,1,5.9,1c0.4,0,0.9,0.1,1.3,0c0.3-0.1,0.6-0.1,0.9-0.1
			c0.2,0,0.4,0.1,0.5,0.2C352.2,77.6,352.3,77.6,352.3,77.2z"/>
		<path class="st17" d="M296.8,79.1c-1.4,0-3.9-0.1-4-1.2c-1-4-5.9-23.9-5.9-24.1v-0.2l20.8-3.2v0.2c0,0.1,0,0.2,0,24.1v0.8v0.1
			c0.2,1.4-3.6,2.7-7.2,3.2C299.3,78.9,298.1,79,296.8,79.1z"/>
		<path class="st18" d="M287.3,53.9c0.4,1.9,4,16.2,5.8,23.9c0,0.5,1.2,0.9,3.7,0.9c1.2,0,2.4-0.1,3.6-0.3c4.4-0.7,7-2.1,6.9-2.8
			v-0.1v-0.9c0-18.1,0-22.8,0-23.8L287.3,53.9z"/>
		<path class="st10" d="M290.9,65.5c-0.6-2.7-1.3-5.4-2-8.1c-0.3-1.2-0.6-2.5-0.9-3.7l-0.8,0.1c0.4,1.9,4,16.2,5.8,23.9
			c0,0.2,0.3,0.4,0.9,0.6C293.2,74,291.9,69.8,290.9,65.5z"/>
		<path class="st18" d="M307.2,74.6c0-18.1,0-22.8,0-23.8l-20,3.1c0.1,0.3,0.2,1,0.5,2c1.1,0.6,2.4,1,3.6,1c1.7,0.2,3.5,0.2,5.2,0
			c1-0.1,2.5-0.6,3.4,0.2c0.8,0.7,1.1,1.8,1.3,2.8c0.6,2.8,0.6,5.6,0.8,8.4c0.2,2.5,0.5,5,0.8,7.5c0.1,0.6,0.2,1.3,0.3,2
			c2.6-0.7,4.1-1.6,4-2.2v-0.1L307.2,74.6z"/>
		<path class="st9" d="M292.3,55.8L292.3,55.8c-1.7,0-5.7-0.1-5.9-1.8l-1-3.6l23.1-3.6l-0.1,3.8c0.1,1-1.6,2-3,2.6
			c-2.4,1-5,1.6-7.6,2C295.9,55.7,294.1,55.8,292.3,55.8z"/>
		<path class="st19" d="M285.8,50.9l0.9,3.1c0.1,0.8,1.8,1.4,5.6,1.4c1.8,0,3.6-0.2,5.4-0.5c2.6-0.4,5.1-1,7.5-2
			c1.8-0.8,2.9-1.6,2.8-2.2l0.1-3.3L285.8,50.9z"/>
		<path class="st19" d="M285.8,50.9L285.8,50.9c1.1,1.3,2.8,1.7,4.3,2c2.2,0.4,4.5,0.3,6.7-0.1c1.4-0.3,3.1-0.6,4.2,0.8
			c0.1,0.2,0.2,0.4,0.3,0.6c1.3-0.3,2.6-0.7,3.8-1.2c1.8-0.8,2.9-1.6,2.8-2.2l0.1-3.3L285.8,50.9z"/>
		<path class="st20" d="M337.6,77c0.1-0.2,0.2-0.4,0.3-0.5c0.2-0.4,0.3-0.8,0.5-1.1c0.7-1.6,1-3.4,0.8-5.1c-0.2-2.3-1.3-4.5-2.5-6.3
			c-2.6-3.9-6.8-5.7-10.9-6.6c-4.4-1-9.1-0.4-13.1,1.6c-3.5,1.7-6.9,4.5-8.4,8.6c-0.7,2.1-0.9,4.4-0.5,6.6c0.2,1.2,0.7,2.4,1.5,3.4
			c0,0-0.1,0.1,0,0.1c1,1.1,2.2,2.1,3.5,2.8c1.4,0.7,2.9,1.3,4.4,1.8c3,1,6.3,1,9.4,0.8s6.2-0.9,9.2-2.1c1.3-0.6,2.6-1.3,3.7-2.2
			C336.4,78.3,337,77.7,337.6,77z"/>
		<path class="st21" d="M332.1,60.1c-4.2-2.4-9.1-3.4-13.9-2.6c-2.4,0.4-4.7,1.3-6.8,2.6c-2,1.2-4,2.7-5.3,4.8
			c-1.5,2.2-2.2,4.9-2,7.6c0.1,1.4,0.4,2.8,1,4c0.5,0.9,1.1,1.6,1.8,2.3c2,1.4,4.1,2.2,6.4,3c2.9,1,6,1.1,9,0.9s6-0.8,8.9-1.8
			c1.4-0.5,2.7-1.2,4-2.1c1-0.7,1.9-1.5,2.7-2.4c0.6-1.3,1.1-2.7,1.2-4.2C339.3,67,335.9,62.3,332.1,60.1z"/>
		<path class="st22" d="M332.1,60.1c-4.2-2.4-9.1-3.4-13.9-2.6c-2.4,0.4-4.7,1.3-6.8,2.6c-1.2,0.7-2.3,1.5-3.4,2.5
			c3.4-1.4,7-1.3,10.5-0.2c2.3,0.7,4.4,2,6.8,2.6c2.6,0.7,5,0.2,7.5-0.9c0.1,0,0.2,0,0.2,0.1c0.2,1.2-0.5,2.4-1.2,3.2
			c-0.8,0.9-1.6,1.8-2.5,2.6c0.9-0.2,1.6-1,2.2-1.8c0.6-0.7,1.2-1.5,1.7-2.4c0.1-0.2,0.5-0.3,0.7-0.2c0.1,0.1,0.2,0.1,0.2,0.2
			c0.4,0.8,0.5,1.6,0.5,2.4c-0.2,4.2-3.6,7.9-6.8,9.4s-6.8,2.1-10.3,1.6c-1.5-0.2-3.1-0.6-4.3-1.7c-0.9-0.8-1.8-2-1.6-3.5
			c0.4-2.6,3.2-4.4,5.4-5.2c-1.4-0.2-2.9,0.6-4.3,1.1c-0.1,0-0.2,0-0.2-0.1c-0.2-0.6-0.2-1.2-0.2-1.9c-0.1-0.8-0.3-1.6-0.7-2.3
			c-0.5-1-1.3-1.7-2.3-2.1c-0.7-0.3-1.3-0.4-2-0.5c-0.4,0.5-0.8,1-1.2,1.5c-1.5,2.2-2.2,4.9-2,7.6c0.1,1.4,0.4,2.8,1,4
			c0.5,0.9,1.1,1.6,1.8,2.3c2,1.4,4.1,2.2,6.4,3c2.9,1,6,1.1,9,0.9s6-0.8,8.9-1.8c1.4-0.5,2.7-1.2,4-2.1c1-0.7,1.9-1.5,2.7-2.4
			c0.6-1.3,1.1-2.7,1.2-4.2C339.3,67,335.9,62.3,332.1,60.1z"/>
		<path class="st22" d="M309.8,61.5c1.3-0.1,2.5-0.4,3.8-0.6c1.2-0.2,2.4-0.2,3.6,0c1.2,0.3,2.3,0.7,3.4,1.2c2.6,1,5.3,1.8,8,1.8
			c1.4,0,2.8-0.2,4.1-0.7c0.7-0.3,1.3-0.6,1.9-1.1l0,0c-0.8-0.7-1.6-1.4-2.5-1.9c-4.2-2.4-9.1-3.4-13.9-2.6
			c-2.4,0.4-4.7,1.3-6.8,2.6c-0.7,0.4-1.4,0.9-2.1,1.4C309.4,61.5,309.6,61.5,309.8,61.5z"/>
		<path class="st22" d="M338.4,73.6c-0.7,1.9-2.3,3.2-3.8,4.3c-3.9,2.6-8.5,4-13.2,3.8c-2.6-0.1-5.2-0.5-7.7-1.1
			c-1.8-0.5-4.7-1.3-5.3-3.6c-0.8-3.2,3-5,2.7-8.1c-0.3-3.2-2.8-3.9-5.3-3.8c-1.3,2.2-1.9,4.7-1.8,7.2c0.1,1.4,0.4,2.8,1,4
			c0.5,0.9,1.1,1.6,1.8,2.3c2,1.4,4.1,2.2,6.4,3c2.9,1,6,1.1,9,0.9s6-0.8,8.9-1.8c1.4-0.5,2.7-1.2,4-2.1c1-0.7,1.9-1.5,2.7-2.4
			c0.6-1.3,1.1-2.7,1.2-4.2c0-0.5,0-0.9,0-1.4C338.9,71.8,338.7,72.7,338.4,73.6z"/>
		<path class="st23" d="M326,79.7c0.4,0.4,0.9,0.6,1.5,0.5c0.6,0,0.8-0.6,1-1.1c0.2-0.3,0.3-0.6,0.6-0.6c0.1,0,0.3,0,0.4,0l0,0
			c0.4,0.2,0.6,0.7,0.8,1.1c0,0,0.1,0.1,0.2,0.1c0.5,0.2,1,0.2,1.4,0c0.5-0.1,0.9-0.5,1-1c0.2-0.7-0.6-1.5-0.2-2.2
			c0.5-1.1,2,0.6,2.5,0.8c0.4,0.2,0.9,0.1,1.2-0.2c1.2-0.7,1.5-2.2,1.1-3.6c-0.3-1,0-1.9,1.2-1.7c0.3,0.1,0.6,0.1,0.9,0.2
			c0.5,0,0.8-0.2,0.9-0.8c0.2-0.7-0.4-1.4-0.6-2c-0.2-0.5-0.4-1.3-0.2-1.8c0.1-0.2,0.3-0.4,0.5-0.6c0.3-0.2,0.7-0.4,1-0.4
			c-1.1-0.7-2.4-1.1-3.7-1.2c-1.4-0.2-2.7-0.3-4.1-0.2c0,0,0,0,0,0.1l0,0c0,0,0,0,0,0.1c-0.1,0.2-0.2,0.4-0.3,0.6
			c0,0.1-0.1,0.3-0.2,0.4c-0.2,0.5-0.5,1-0.8,1.5c-0.5,1-1.2,1.9-1.9,2.7c-0.9,1.1-1.8,2.2-3,3c-0.4,0.3-0.8,0.6-1.2,0.9
			c-0.4,0.2-0.7,0.4-1.1,0.6h-0.1c0.3,0.8,0.6,1.6,0.6,2.4l0,0c0.1,0.3,0.1,0.7,0.1,1C325.8,78.5,325.6,79.3,326,79.7z"/>
		<path class="st24" d="M326,78.7v-0.4c0-0.4,0-0.9-0.1-1.3c-0.1-0.6-0.3-1.2-0.4-1.7c0.1,0,0.1,0,0.1-0.1c0-0.1-0.1-0.2-0.2-0.3
			l0,0c0-0.1,0.5-0.3,0.5-0.4c0.5-0.3,1-0.6,1.4-1c1.1-0.8,2-1.7,2.8-2.7c0.8-0.9,1.7-1.8,2.2-3c0.2-0.5,0.5-1,0.7-1.4
			c0.2-0.6,0.4-1.1,0.7-1.6l0,0c1.3,0,2.6,0.1,3.9,0.4c1.1,0.2,2.2,0.5,3.2,1c-0.3,0-0.5,0.1-0.8,0.2c-0.4,0.3-0.7,0.8-0.6,1.4
			c0.1,1,0.5,1.6,0.8,2.5c0.1,0.3,0.1,0.5,0.1,0.8c-1-0.8-2.1-1.4-3.2-2.1c-0.5-0.3-1-0.6-1.6-0.9c0.4,0.3,0.8,0.6,1.1,0.9l0.6,0.4
			c1,0.6,2,1.4,3,1.9l0,0c-0.1,0.3-0.4,0.4-0.6,0.4s-0.4,0-0.6-0.1c-0.2,0-0.4-0.1-0.6-0.1c-0.5,0-0.9,0.3-1,0.7
			c-0.3,0.8,0.2,1.5,0.2,2.4c0,1.2-0.4,2-1.4,2.5c-0.8,0.4-1.3-0.4-2-0.7c-0.7-0.3-1.7-0.4-1.5,0.8c0,0.1,0,0.2,0,0.3
			c-0.4-0.7-0.8-1.4-1.2-2l0.2,0.6c0.1,0.2,0.2,0.4,0.4,0.6c0.2,0.3,0.3,0.6,0.5,1l0,0l0.2,0.4l0,0c0.1,0.7,0,1.2-0.8,1.6
			c-0.7,0.2-1.3,0.2-1.7-0.6c-0.1-0.2-0.2-0.3-0.4-0.4c-0.2-0.4-0.4-0.8-0.6-1.2c-0.1-0.1-0.1-0.2-0.2-0.3l-0.2-0.2
			c-0.1-0.1-0.3-0.3-0.4-0.4c0.4,0.6,0.8,1.3,1.1,1.9c-0.2,0-0.5,0-0.6,0.1c-0.5,0.4-0.6,1-1,1.4c-0.5,0.4-1.2,0.4-1.6-0.1
			C326.1,79.3,326,79,326,78.7z"/>
		<path class="st25" d="M325.8,78c0-0.3,0-0.7-0.1-1l0,0c0-0.8-0.3-1.7-0.6-2.4c0,0,0,0,0.1,0c0.3-0.2,0.7-0.4,1.1-0.6
			c0.4-0.3,0.8-0.6,1.2-0.9c1.1-0.8,2-2,3-3c0.7-0.8,1.3-1.7,1.9-2.7c0.3-0.5,0.6-1,0.8-1.5c0.1-0.1,0.1-0.3,0.2-0.4
			c0.1-0.2,0.2-0.4,0.3-0.6c0,0,0,0,0-0.1l0,0c0,0,0,0,0-0.1c1.3,0,2.7,0,4,0.2c-0.2,0-0.5,0.1-0.7,0.2c-0.1,0-0.2,0.3,0,0.3
			c1.3,0.6,2.4,1.7,3,3c0,0.2,0.1,0.3,0.2,0.5s0.2,0.5,0.3,0.7c0.2,0.6,0.2,1.2,0.2,1.8c-0.2,0.3-0.5,0.4-0.8,0.4s-0.6-0.1-0.9-0.2
			c-1.1-0.2-1.5,0.7-1.2,1.7c0.1,0.5,0.2,1.1,0.2,1.6c-0.8-0.4-2-0.6-2.4,0.3c-0.2,0.4-0.2,1,0.2,1.3c0.2,0.2,0.4,0.4,0.6,0.6
			c-0.3,0.1-0.6,0.1-0.9,0c-0.5-0.2-2-1.8-2.5-0.8c-0.3,0.6,0.2,1.3,0.2,1.9c-0.5-0.6-1-1.2-1.6-1.8c-0.4-0.5-0.8-0.9-1.4-1.2
			c-0.1,0-0.1,0-0.2,0.1c0,0,0,0,0,0.1c-0.2,0.8,0.4,1.6,0.7,2.2s0.8,1.4,1.2,2.1c-0.4,0.1-0.8,0.1-1.2,0c0,0-0.1,0-0.2-0.1
			c-0.2-0.4-0.5-0.9-0.8-1.1l0,0c-0.1,0-0.1-0.1-0.2,0c-0.2-0.5-0.5-1-0.9-1.4c-0.3-0.3-0.8-0.7-1.2-0.2s-0.3,1.4-0.2,2.1
			c0,0.4,0.1,0.8,0.2,1.3c-0.5,0-1-0.2-1.3-0.5C325.6,79.3,325.8,78.5,325.8,78z"/>
		<path class="st26" d="M329.6,76.6c0.3-0.5,0.5-1.1,0.6-1.6c0.1-0.8,0.1-1.6,0.1-2.4c0-0.1-0.2-1,0-1.1s0.4-0.2,0.5-0.3
			c0.4,1.7,0.4,3.9-0.8,5.2c-0.4,0.4-0.8,0.7-1.4,0.8C329,77.2,329.3,76.9,329.6,76.6z"/>
		<path class="st27" d="M335,61.1c-0.1,0-0.1,0.1,0,0.2c0,0.3,0,0.6,0,1c0,0.1,0,0.1,0.1,0.2c0,0.3,0,0.6,0.1,0.9s0.7,0.3,0.9,0.4
			c0.7,0.2,1.4,0.6,2,1s1,0.9,1.1,1.6c0,0.3,0.1,0.6,0.2,1l0,0c-0.2,1-0.8,1.8-1.6,2.4c-1.2,0.9-2.6,0.6-3.9,0.4
			c-0.7-0.1-0.8,0.4-0.6,1.1l0,0c0.1,2,3,1.6,4.1,1.2c1.1-0.2,2.1-0.9,2.7-1.8c0.5-0.7,0.6-1.8,0.6-2.7c0-0.3,0.1-0.6,0.1-0.8
			C340.8,64.1,337.8,60.9,335,61.1z"/>
		<path class="st28" d="M340.4,67.2L340.4,67.2v0.6c0,0.1,0,0.2,0,0.4c-0.2,1.5-1.2,2.7-2.6,3.3c-1.4,0.7-2.9,0.4-4.3,0
			c-0.1,0,0,0.1,0,0.2c1.7,0.6,3.2,0.8,4.9,0c0.9-0.5,1.6-1.3,1.9-2.3c0,0.2-0.1,0.4-0.1,0.6c-0.3,0.9-1,1.6-1.8,2
			c-0.8,0.3-1.6,0.6-2.4,0.7c-0.7,0.1-2.4,0.1-2.6-1l0,0c-0.1-0.5-0.1-1.1,0.5-1c0.4,0.1,0.7,0.1,1.1,0.2c0.7,0.1,1.4,0.1,2.1-0.2
			c1.3-0.4,2.2-1.6,2.6-3.1c0.8-3-2.2-5-4.4-5.4v-0.1c0-0.2,0-0.5,0-0.7C337.9,61.4,340.4,64.1,340.4,67.2z"/>
		<path class="st27" d="M331.8,70.4c0-0.1-0.1,0-0.2,0c-0.3,0.1-0.5,0.2-0.8,0.4c0,0-0.1,0.1-0.1,0.2c-0.3,0.1-0.5,0.2-0.7,0.4
			c-0.2,0.2,0,0.8,0,1.1c0.1,0.9,0,1.7-0.1,2.6c0,0.7-0.4,1.3-0.9,1.8c-0.3,0.1-0.5,0.3-0.7,0.5l0,0c-0.9,0.1-1.8-0.2-2.6-0.8
			c-1.2-1-1.4-2.5-1.8-4c-0.2-0.8-0.6-0.6-1.1-0.3l0,0c-1.6,0.8-0.2,3.8,0.5,4.8s1.4,1.9,2.4,2.3c0.8,0.3,1.6,0,2.4-0.4
			c0.2,0,0.5-0.1,0.7-0.2C331.5,77.7,332.9,73.3,331.8,70.4z"/>
		<path class="st28" d="M328.8,78.4L328.8,78.4l-0.5,0.2c-0.1,0-0.2,0-0.3,0.1c-1.4,0.3-2.6-0.4-3.6-1.5c-1-1.2-1.4-2.9-1.6-4.6
			c0-0.1-0.1,0-0.1,0.1c0.1,2,0.6,3.7,1.8,5.2c0.6,0.8,1.6,1.2,2.6,1.2c-0.2,0-0.4,0.1-0.6,0.1c-0.9,0.1-1.7-0.6-2.3-1.2
			c-0.6-0.7-1-1.5-1.4-2.3c-0.4-0.7-1-2.5-0.1-3.1l0,0c0.4-0.3,0.8-0.5,1,0.2c0.1,0.4,0.2,0.8,0.2,1.2c0.1,0.8,0.4,1.5,0.9,2.2
			c0.7,1.1,2.1,1.8,3.4,1.6c2.8-0.3,3.3-4.2,2.7-6.7l0,0l0,0c0.2-0.1,0.4-0.2,0.6-0.3C332.6,73.6,331.3,77.3,328.8,78.4z"/>
		<path class="st23" d="M323.9,75.4c-0.2-0.3-0.3-0.6-0.4-0.9l0,0c-0.3-0.8-0.6-1.6-0.6-2.4c0,0,0,0-0.1,0c-0.4,0-0.8,0.1-1.2,0.1
			c-0.5,0-1,0-1.5,0c-1.3,0-2.6-0.4-3.9-0.7c-1-0.3-1.9-0.6-2.8-1.1c-0.5-0.2-0.9-0.5-1.4-0.8c-0.1-0.1-0.2-0.2-0.3-0.2
			c-0.2-0.1-0.4-0.2-0.5-0.3c0,0,0,0-0.1,0l0,0l0,0c-1.2,0.8-2.3,1.7-3.3,2.7c-1,0.9-1.9,2.1-2.6,3.3c0.3-0.2,0.7-0.3,1.1-0.3
			c0.2,0,0.5,0.1,0.7,0.2c0.4,0.3,0.6,1.1,0.7,1.6c0.1,0.7,0,1.6,0.4,2.1c0.2,0.3,0.7,0.5,1,0.2c0.1,0,0.1-0.1,0.1-0.1
			c0.2-0.2,0.4-0.4,0.7-0.7c0.8-0.9,1.6-0.3,1.8,0.7c0.3,1.5,1.3,2.5,2.6,2.4c0.4,0,0.9-0.2,1.1-0.6c0.4-0.5,0.8-2.8,1.7-2.2
			c0.6,0.4,0.4,1.5,0.9,2c0.3,0.3,0.9,0.5,1.3,0.3c0.5-0.1,0.9-0.4,1.2-0.9c0,0,0.1-0.1,0.1-0.2c-0.1-0.5,0-1,0.2-1.4l0,0
			c0.1-0.1,0.2-0.2,0.3-0.3c0.3-0.1,0.6-0.1,0.8,0.2c0.4,0.2,0.9,0.6,1.4,0.3s0.8-0.8,1-1.4C324.6,76.4,324.2,75.9,323.9,75.4z"/>
		<path class="st24" d="M322.9,78.2c-0.5-0.1-0.9-0.6-1.5-0.6c-0.2,0-0.5,0.1-0.6,0.3c0-0.8,0-1.5,0-2.3c0,0.2-0.1,0.4-0.2,0.6
			c0,0.1,0,0.2-0.1,0.3c0,0.1,0,0.3,0,0.4c0,0.5,0,0.9,0,1.4c-0.1,0.2-0.1,0.4-0.1,0.6c0.1,0.7-0.4,1.4-1.1,1.6
			c-0.9,0.3-1.2-0.2-1.4-0.8l0,0c0-0.1,0-0.3,0-0.4l0,0c0-0.4,0-0.7,0-1.1c0-0.2,0-0.5,0-0.8c0-0.2,0-0.4-0.1-0.6
			c0,0.8-0.1,1.6-0.1,2.4c0-0.1-0.1-0.2-0.1-0.3c-0.4-1.2-1.2-0.5-1.7,0.2c-0.4,0.7-0.5,1.7-1.4,1.8c-1.1,0.2-1.8-0.3-2.4-1.2
			c-0.4-0.7-0.3-1.6-0.9-2.1c-0.4-0.3-0.9-0.2-1.2,0.1c-0.2,0.1-0.4,0.3-0.5,0.5s-0.3,0.3-0.4,0.4c-0.3,0.2-0.5,0.2-0.7,0.1l0,0
			c0.6-1.1,1-2.4,1.6-3.5c0.1-0.2,0.2-0.4,0.3-0.7c0.2-0.5,0.4-1,0.6-1.4c-0.3,0.6-0.6,1.2-0.9,1.8c-0.7,1.2-1.2,2.5-1.8,3.7
			c-0.2-0.2-0.3-0.5-0.3-0.7c-0.2-0.9-0.1-1.7-0.5-2.6c-0.2-0.5-0.7-0.8-1.2-0.8c-0.3,0-0.5,0.1-0.8,0.3c0.6-1,1.4-1.9,2.2-2.8
			c1-1,2-1.9,3.1-2.7l0,0c0.4,0.2,0.9,0.7,1.4,1s0.9,0.5,1.3,0.8c1,0.6,2.2,0.9,3.3,1.2c1.2,0.3,2.4,0.5,3.7,0.5
			c0.5,0,1.1,0,1.6-0.1c0.2,0,0.4,0,0.6,0v0.1c0,0.1,0,0.2,0,0.4c0,0.1,0,0.1,0.1,0c0.1,0.6,0.3,1.2,0.4,1.7
			c0.1,0.4,0.3,0.8,0.5,1.2l0.2,0.4C324.5,77.1,323.7,78.3,322.9,78.2z"/>
		<path class="st25" d="M323.9,75.4c-0.2-0.3-0.3-0.6-0.4-0.9l0,0c-0.3-0.8-0.6-1.6-0.6-2.4c0,0,0,0-0.1,0c-0.4,0-0.8,0.1-1.2,0.1
			c-0.5,0-1,0-1.5,0c-1.3,0-2.6-0.4-3.9-0.7c-1-0.3-1.9-0.6-2.8-1.1c-0.5-0.2-0.9-0.5-1.4-0.8c-0.1-0.1-0.2-0.2-0.3-0.2
			c-0.2-0.1-0.4-0.2-0.5-0.3c0,0,0,0-0.1,0l0,0l0,0c-1.1,0.8-2.2,1.7-3.3,2.6c0.2-0.1,0.4-0.2,0.7-0.2c0.1,0,0.2,0,0.2,0.1v0.1
			c-0.8,1.3-1.2,2.9-1.1,4.4c0,0.2,0.1,0.4,0.1,0.5c0,0.3,0,0.5,0,0.8c0.1,0.6,0.3,1.1,0.6,1.6c0.3,0.2,0.5,0.1,0.9-0.1
			c0.2-0.2,0.4-0.4,0.7-0.7c0.8-0.9,1.6-0.3,1.8,0.7c0.1,0.5,0.3,1,0.6,1.4c0.5-0.8,1.4-1.7,2.2-1.3c0.4,0.3,0.6,0.7,0.5,1.2
			c0,0.3-0.2,0.6-0.2,1c0.3-0.1,0.5-0.3,0.7-0.5c0.4-0.5,0.8-2.8,1.7-2.2c0.5,0.4,0.4,1.2,0.7,1.8c0.1-0.8,0.3-1.7,0.5-2.5
			c0.1-0.6,0.3-1.2,0.6-1.8c0-0.1,0.1-0.1,0.2-0.1l0,0c0.5,0.6,0.5,1.6,0.5,2.3c0,0.8-0.1,1.7,0,2.5c0.4-0.2,0.7-0.4,1-0.8
			c0,0,0.1-0.1,0.1-0.2c-0.1-0.5,0-1,0.2-1.4l0,0c0,0,0.1-0.1,0.2-0.2c-0.1-0.6,0-1.1,0.1-1.7c0.1-0.4,0.4-1.1,0.9-0.9
			c0.6,0.2,0.9,1,1.2,1.6c0.2,0.4,0.3,0.8,0.4,1.2c0.4-0.3,0.7-0.8,0.9-1.2C324.6,76.4,324.2,75.9,323.9,75.4z"/>
		<path class="st23" d="M315.7,75.4c0-0.3,0-0.7,0.1-1l0,0c0-0.8,0.3-1.7,0.6-2.4c0,0,0,0-0.1,0c-0.3-0.2-0.7-0.4-1.1-0.6
			c-0.4-0.3-0.8-0.6-1.2-0.9c-1.1-0.8-2-2-3-3c-0.7-0.8-1.3-1.7-1.9-2.7c-0.3-0.5-0.6-1-0.8-1.5c-0.1-0.1-0.1-0.3-0.2-0.4
			c-0.1-0.2-0.2-0.4-0.3-0.6c0,0,0,0,0-0.1l0,0c0,0,0,0,0-0.1c-1.4,0-2.7,0-4.1,0.2c-1.3,0.1-2.6,0.6-3.7,1.2c0.6,0.1,1.2,0.5,1.5,1
			c0.2,0.5,0,1.3-0.2,1.8c-0.2,0.6-0.8,1.3-0.6,2c0,0.5,0.4,0.9,0.9,0.8c0.3,0,0.6-0.1,0.9-0.2c1.1-0.2,1.5,0.7,1.2,1.7
			c-0.4,1.4-0.1,2.9,1.1,3.6c0.4,0.3,0.8,0.3,1.2,0.2c0.5-0.2,2-1.8,2.5-0.8c0.3,0.7-0.4,1.5-0.2,2.2c0.1,0.5,0.5,0.9,1,1
			c0.5,0.2,1,0.2,1.4,0c0.1,0,0.1,0,0.2-0.1c0.2-0.4,0.5-0.9,0.8-1.1l0,0c0.1-0.1,0.3-0.1,0.4,0c0.3,0,0.5,0.4,0.6,0.6
			c0.3,0.4,0.5,1.1,1,1.1s1.1-0.2,1.5-0.5C315.8,76.7,315.7,75.9,315.7,75.4z"/>
		<path class="st24" d="M313.6,77c-0.4-0.4-0.5-1-1-1.4c-0.2-0.1-0.4-0.2-0.6-0.1c0.3-0.7,0.7-1.3,1.1-1.9c-0.1,0.2-0.3,0.3-0.4,0.4
			l-0.2,0.2c-0.1,0.1-0.1,0.2-0.2,0.3c-0.3,0.4-0.5,0.8-0.6,1.2c-0.2,0.1-0.3,0.3-0.4,0.4c-0.2,0.6-0.9,0.9-1.5,0.7
			c0,0-0.1,0-0.1-0.1c-0.9-0.3-0.9-0.9-0.8-1.6l0,0l0.2-0.4l0,0l0.5-1c0.1-0.2,0.2-0.4,0.4-0.7c0.1-0.2,0.2-0.4,0.2-0.6
			c-0.4,0.6-0.8,1.3-1.2,2c0-0.1,0-0.2,0-0.3c0.2-1.3-0.8-1.2-1.5-0.8c-0.7,0.4-1.2,1.1-2,0.7c-1-0.5-1.4-1.3-1.4-2.5
			c0-0.8,0.5-1.5,0.2-2.4c-0.1-0.4-0.6-0.7-1-0.7c-0.2,0-0.4,0-0.6,0.1l-0.6,0.1c-0.3,0.1-0.5-0.1-0.6-0.4l0,0c1-0.6,2-1.3,3-1.9
			l0.6-0.4l1.1-0.9c-0.6,0.3-1.1,0.6-1.6,0.9c-1.1,0.6-2.2,1.3-3.2,2.1c0-0.3,0-0.5,0.1-0.8c0.3-0.9,0.7-1.5,0.8-2.5
			c0.1-0.5-0.2-1.1-0.6-1.4c-0.2-0.2-0.5-0.2-0.8-0.2c1-0.4,2.1-0.7,3.2-1c1.3-0.2,2.6-0.3,3.9-0.4l0,0c0.3,0.5,0.5,1.1,0.7,1.6
			s0.5,1,0.7,1.4c0.5,1.2,1.4,2.1,2.2,3c0.9,1,1.8,1.9,2.8,2.7c0.5,0.4,0.9,0.7,1.4,1c0.2,0.1,0.4,0.2,0.5,0.4l0,0
			c-0.1,0.1-0.1,0.2-0.2,0.3c0,0.1,0,0.1,0.1,0.1c-0.2,0.6-0.3,1.1-0.4,1.7c-0.1,0.4-0.1,0.9-0.1,1.3v0.4
			C315.5,77.2,314.2,77.7,313.6,77z"/>
		<path class="st25" d="M315.7,75.4c0-0.3,0-0.7,0.1-1l0,0c0-0.8,0.3-1.7,0.6-2.4c0,0,0,0-0.1,0c-0.3-0.2-0.7-0.4-1.1-0.6
			c-0.4-0.3-0.8-0.6-1.2-0.9c-1.1-0.8-2-2-3-3c-0.7-0.8-1.3-1.7-1.9-2.7c-0.3-0.5-0.6-1-0.8-1.5c-0.1-0.1-0.1-0.3-0.2-0.4
			c-0.1-0.2-0.2-0.4-0.3-0.6c0,0,0,0,0-0.1l0,0c0,0,0,0,0-0.1c-1.3,0-2.7,0-4,0.2c0.2,0,0.5,0.1,0.7,0.2c0.1,0,0.1,0.2,0.1,0.2
			s0,0.1-0.1,0.1c-1.3,0.6-2.4,1.7-3,3c0,0.2-0.1,0.3-0.2,0.5s-0.2,0.5-0.3,0.7c-0.2,0.6-0.2,1.2-0.2,1.8c0.2,0.3,0.4,0.4,0.8,0.4
			c0.3,0,0.6-0.1,0.9-0.2c1.1-0.2,1.5,0.7,1.2,1.7c-0.2,0.5-0.2,1.1-0.2,1.6c0.8-0.4,2-0.6,2.4,0.3c0.2,0.4,0.2,1-0.2,1.3
			c-0.2,0.2-0.4,0.4-0.7,0.6c0.3,0.1,0.6,0.1,0.9,0c0.5-0.2,2-1.8,2.5-0.8c0.3,0.6-0.2,1.3-0.2,1.9c0.5-0.6,1-1.2,1.6-1.8
			c0.4-0.5,0.8-0.9,1.4-1.2c0.1,0,0.1,0,0.2,0.1c0,0,0,0,0,0.1c0.2,0.8-0.4,1.6-0.7,2.2s-0.8,1.4-1.2,2.1c0.4,0.1,0.8,0.1,1.2,0
			c0.1,0,0.1,0,0.2-0.1c0.2-0.4,0.5-0.9,0.8-1.1l0,0c0.1,0,0.1-0.1,0.2,0c0.2-0.5,0.5-1,0.9-1.4c0.3-0.3,0.8-0.7,1.2-0.2
			s0.3,1.4,0.2,2.1c0,0.4-0.1,0.8-0.2,1.3c0.5,0,1-0.2,1.3-0.5C315.8,76.7,315.7,75.9,315.7,75.4z"/>
		<path class="st23" d="M313.5,73.3c-0.2,0.9-0.4,1.7-0.7,2.6c-0.2,0.7-0.4,1.3-0.6,2c0.2-0.4,0.4-0.8,0.5-1.2
			c0.2-0.9,0.5-1.8,0.7-2.8L313.5,73.3L313.5,73.3z"/>
		<path class="st29" d="M338.4,65.7c0,0-0.1,0.1-0.2,0.1c-1-0.2-2.1,0.1-3,0.4c-1.2,0.4-2.3,0.9-3.3,1.6c-1.8,1.2-3.6,2.7-4.6,4.8
			c-0.9,2-0.6,4.6,1.4,5.4c1.6,0.6,4.2-0.2,5-2c0.8,0.3,1.8-0.7,2.2-1.3c0.2-0.2,0.3-0.7,0.5-0.8s0.4-0.2,0.6-0.4
			c0.6-0.6,0.7-1.7,1.4-2.2c0.3-0.3,0.6-0.6,0.7-1c0.1-0.2,0.1-0.5,0.1-0.8c0-0.2,0-0.3,0-0.4c-0.1-0.4,0.2-0.6,0.3-0.9
			C340,67.1,339.3,65.8,338.4,65.7z"/>
		<path class="st30" d="M339,68.6c-0.1,0.3-0.1,0.7,0,1c0.1,0.9-0.6,1.2-1,1.7c-0.2,0.3-0.4,0.6-0.4,1c-0.2,0.8-0.7,0.9-1.2,1.4
			c-0.2,0.2-0.3,0.3-0.4,0.6c-0.2,0.6-1.4,1.9-2.1,1.4c-0.1,0-0.2,0.1-0.2,0.2c-0.4,1.3-1.8,1.8-2.9,2c-0.9,0.2-1.8,0-2.5-0.5
			c-1.9-1.4-0.8-4.5,0.2-6.1c1.1-1.6,2.6-2.6,4.2-3.5c0.8-0.5,1.7-0.9,2.6-1.2c1-0.3,2.4-0.6,3.4-0.2c0,0,0.1,0,0.1-0.1
			c0.2,0.2,0.4,0.5,0.5,0.8C339.6,67.7,339.1,68,339,68.6z"/>
		<path class="st30" d="M339,68.6c0.2-0.6,0.6-1,0.3-1.7c-0.1-0.3-0.3-0.6-0.5-0.8l-0.1,0.1c-1-0.4-2.4-0.1-3.4,0.2
			c-0.9,0.3-1.8,0.7-2.6,1.2c-1.5,0.9-3.1,2-4.2,3.5c-0.7,1.1-1.2,2.3-1.3,3.6c1-0.7,2.6-0.6,2.4,1c-0.1,0.7-0.4,1.3-1,1.7
			c0.6,0.3,1.4,0.4,2,0.2c1.1-0.2,2.5-0.7,2.9-2c0-0.1,0.1-0.2,0.2-0.2c0.7,0.5,1.9-0.8,2.1-1.4c0.1-0.2,0.2-0.4,0.4-0.6
			c0.5-0.4,1-0.6,1.2-1.4c0.1-0.4,0.2-0.7,0.4-1c0.4-0.5,1.1-0.8,1-1.7C338.9,69.3,338.9,68.9,339,68.6z M331,76.7
			c-0.6,0.1-1.1-0.5-1-1.2c0-0.7,0.5-1.1,1.1-1l0,0c0.4-0.1,0.8,0.2,0.9,0.6c0.2,0.6-0.1,1.3-0.8,1.5C331.1,76.7,331,76.7,331,76.7z
			 M333.1,75.4c0,0.1-0.2,0.2-0.3,0.3c-0.1,0.1-0.2,0.1-0.2,0c0-0.1-0.1-0.3,0-0.4c0-0.1,0.1-0.1,0.2-0.2l0,0c0-0.1,0.1-0.1,0.2-0.2
			c0.1,0,0.2,0,0.2,0.1l0,0C333.1,75.1,333.2,75.2,333.1,75.4L333.1,75.4z M333.4,74.4c-0.4,0-0.6-0.4-0.4-0.9
			c0.1-0.4,0.5-0.6,0.9-0.5h0.1c0,0,0.1,0,0.1,0.1c0.1,0.1,0.2,0.3,0.2,0.5C334.1,74.2,333.8,74.4,333.4,74.4L333.4,74.4z M336.3,73
			C336.3,73,336.2,73,336.3,73c-0.1,0.2-0.3,0.3-0.4,0.4c-0.4,0.1-0.8,0-0.9-0.4l0,0c-0.1-0.3-0.1-0.6,0.2-0.9
			c0.2-0.4,0.6-0.6,0.9-0.4l0.1,0.1c0.1,0.1,0.3,0.2,0.3,0.4C336.5,72.5,336.5,72.8,336.3,73L336.3,73z M337.4,70.8
			c-0.1,0.1-0.1,0.2-0.2,0.2v0.1c0,0.1-0.1,0.1-0.2,0.1s-0.1-0.1-0.1-0.1l0,0c0-0.1,0-0.2,0-0.3c0-0.1,0.1-0.1,0.1-0.1l0,0
			c0-0.1,0.2-0.1,0.2-0.1h0.1C337.4,70.6,337.4,70.8,337.4,70.8L337.4,70.8z M338.1,70c-0.2,0-0.2-0.4,0-0.4S338.3,70,338.1,70
			L338.1,70z"/>
		<path class="st31" d="M319.6,72.6c-1-0.3-2-0.6-2.9-1c-2.1-1-4.4-1.4-6.4-2.7c-0.1,0-0.2,0-0.2,0.1c-1,1.5-2.2,3.3-2.1,5.3
			c0,1.8,1,3.4,2.6,4.2c1.7,0.8,4,0.2,5.6-0.7s2.6-2.8,3.5-4.5c0,0,0.1-0.1,0.2-0.1C319.8,72.9,319.9,72.7,319.6,72.6z"/>
		<path class="st32" d="M316.5,72L316.5,72c-0.9,2-2.7,3.4-4.7,3.2c-0.8,0-1.6-0.5-1.9-1.3c-0.6-1.3,0.3-3,0.9-4v-0.1
			c1.3,0.8,2.8,1.2,4.2,1.7C315.6,71.5,316.1,71.7,316.5,72z"/>
		<path class="st33" d="M310.2,69.2c0.2,0.2,0.4,0.3,0.6,0.4c0,0,0,0-0.1,0.1c-1.2,1.9-2.1,5,0.6,5.7c2.2,0.6,4.3-1,5.4-3.2
			c0,0,0.1-0.1,0.1-0.2c0.3,0.2,0.7,0.3,1,0.4c0.1,0,0.2,0.1,0.3,0.1l-0.1,0.1c-0.3,1-1.1,1.8-1.7,2.5c-0.7,0.9-1.7,1.5-2.8,1.8
			c-1.9,0.6-4.5,0-5.2-2.3C308,72.7,309.2,70.7,310.2,69.2z"/>
		<path class="st34" d="M319.5,73.2L319.5,73.2c-1,1.5-1.7,3-3,4c-1.5,1.2-3.5,1.6-5.4,1.1c-1.1-0.4-2-1.2-2.5-2.3
			c1,1.4,3,1.8,4.5,1.3c1.2-0.3,2.3-1,3.2-2c0.8-0.8,1.4-1.8,1.8-2.8l0,0c0.3,0.1,0.6,0.2,0.9,0.3C319.3,72.9,319.6,72.9,319.5,73.2
			z"/>
		<path class="st35" d="M319.7,72.6c-1-0.3-2-0.6-2.9-1c-2.1-1-4.4-1.4-6.4-2.7c-0.1,0-0.2,0-0.2,0.1c-0.9,1.2-1.6,2.5-2,3.9
			c0.1-0.1,0.2-0.3,0.4-0.4c0.1-0.1,0.2,0,0.2,0.1c0.2,0.7,0.1,1.6,0.6,2.1s1.1,0.8,1.8,0.9c1.4,0.4,2.4-0.2,3.7-0.6
			c0.1,0,0.2,0,0.2,0.1v0.1c-0.5,1.7-2.8,1.8-4.2,1.7c1.2,1,3.2,0.4,4.4-0.2c0.8-0.4,1.2,0.1,1.4,0.8c1.4-1,2.2-2.6,3-4.2
			c0,0,0.1-0.1,0.2-0.1C320,72.9,320,72.7,319.7,72.6z"/>
		<path class="st23" d="M325.6,72.2c0.4,0.8,0.7,1.6,1.1,2.4c0.3,0.6,0.6,1.2,0.9,1.8c-0.3-0.3-0.5-0.7-0.7-1.1
			c-0.4-0.8-0.8-1.7-1.2-2.6C325.6,72.5,325.6,72.3,325.6,72.2z"/>
		<path class="st31" d="M319.4,73.5c0,0.1,0.1,0.1,0.2,0.1c1.2,1.5,2.4,3,4.2,3.6s4,0.6,5.6-0.6c1.4-1.1,2.1-2.9,1.8-4.7
			c-0.3-2-1.7-3.5-3-4.7c0-0.1-0.1-0.2-0.2-0.1c-1.6,1.8-3.9,2.7-5.8,4.1c-0.9,0.6-1.8,1.2-2.7,1.7C319.2,73,319.3,73.2,319.4,73.5z
			"/>
		<path class="st32" d="M323.7,70.6c1.2-0.8,2.7-1.6,3.8-2.6v0.1c0.8,0.9,1.9,2.3,1.6,3.8c-0.2,0.8-0.8,1.5-1.6,1.7
			c-1.9,0.7-3.9-0.2-5.1-2l0,0L323.7,70.6z"/>
		<path class="st33" d="M331,72.3c-0.2,2.4-2.7,3.6-4.7,3.4c-1.1-0.1-2.2-0.5-3.1-1.1c-0.8-0.5-1.5-1.3-2.1-2.1l-0.1-0.1
			c0.1,0,0.2-0.1,0.3-0.2c0.3-0.2,0.6-0.4,0.9-0.6l0.1,0.1c1.4,1.9,3.8,3,5.8,1.9c2.4-1.3,1.1-4.2-0.4-5.7c0,0,0,0-0.1,0
			c0.2-0.2,0.4-0.4,0.5-0.6C329.4,68.6,330.9,70.3,331,72.3z"/>
		<path class="st36" d="M320,73c0.3-0.1,0.5-0.3,0.8-0.5l0,0c0.5,1,1.5,1.7,2.3,2.3c1,0.8,2.2,1.2,3.5,1.2c1.6,0.1,3.4-0.8,4.2-2.3
			c-0.3,1.2-1,2.2-2,2.8c-1.7,0.9-3.7,0.9-5.4,0.1c-1.4-0.7-2.5-2-3.6-3.2c0,0,0,0-0.1,0C319.6,73.1,319.8,73.2,320,73z"/>
		<path class="st35" d="M319.4,72.9c0.9-0.5,1.8-1.1,2.7-1.7c1.9-1.4,4.1-2.4,5.8-4.1c0,0,0.2,0,0.2,0.1c1.1,1,2,2.1,2.6,3.4
			c-0.1-0.1-0.3-0.2-0.4-0.3c-0.1,0-0.2,0-0.2,0.1c-0.1,0.7,0.2,1.6-0.3,2.2c-0.4,0.6-1,1-1.6,1.3c-1.3,0.6-2.4,0.4-3.7,0.3
			c-0.1,0-0.2,0.1-0.2,0.2c0,0,0,0,0,0.1c0.8,1.6,3.1,1.1,4.5,0.7c-1,1.2-3,1.1-4.3,0.8c-0.9-0.2-1.1,0.4-1.2,1.1
			c-1.5-0.7-2.6-2.1-3.7-3.4c-0.1,0-0.1-0.1-0.2-0.1C319.2,73.2,319.1,73,319.4,72.9z"/>
		<path class="st37" d="M338.1,66.3c-0.2-0.6-1,0.4-1,0.8c0,0.1-0.1,0.1-0.1,0.2c-0.4,1.1-0.4,1.6-1.5,1.9c-0.7,0.2-1.3,0.7-1.7,1.4
			c-0.3,0.7,0,2.4-0.9,1.7c-0.6-0.5-1.5-0.8-2.2-0.4c-0.8,0.4-1.4,1-1.8,1.8c-0.1,0.1-0.2,0.2-0.3,0.3c-0.4,0.5-0.7,1.1-1,1.8
			c-0.2,0.4-0.5,0.7-0.8,0.8c-0.9-0.3-1.8-2-2.2-2.5c-0.5-0.8-1.4-1.2-2.4-1.2c-1.6,0-2.6,2.5-3.2,3.8c0,0-0.1,0.1-0.1,0.2
			c-0.7,0.8-1.6,1.2-2.9,0.4c-1.4-0.9-1.9-3.3-2.8-4.6c-0.4-0.7-1-1.3-1.8-1.7c-0.5-0.3-1.1-0.3-1.6-0.1c-0.1,0-0.2,0-0.2,0.1
			c-0.1,0-0.1,0.1-0.2,0.2c-1.2,0.7-1.9,1.9-2.2,3.5c-0.2,0.8,0.8,0.1,0.9-0.2c0.6-1.8,2.3-2.6,3.3-0.6c0.5,1,0.9,2.1,1.5,3.1
			c1,1.7,2.1,3,4,3c1,0,1.8-0.7,2.5-1.6l0,0c0.6-0.6,1.3-2.6,2.1-2.7c1.3-0.3,2.2,1.3,3.3,2.1c0.4,0.4,0.9,0.7,1.5,0.7
			c1.4,0.1,2.4-1.5,2.9-2.8c0.1-0.2,0.2-0.5,0.3-0.8c0.6-0.5,1.2-0.6,2,0c0.5,0.5,0.8,1,1.5,1c0.7-0.1,1.3-0.7,1.8-1.3
			c0.4-0.6,0.7-1.4,0.7-2.2c0-0.5,0-1,0-1.5v-0.1c0.2-0.1,0.4-0.1,0.6-0.2c0.6-0.3,1.1-0.8,1.4-1.4
			C338.3,68.5,338.5,67.3,338.1,66.3z"/>
		<path class="st38" d="M309.2,71.8c1.1-0.6,2.3,0.2,3,1.1c0.9,1.2,1.2,3,2.2,4.1c0.7,0.7,1.9,1.6,2.8,1c0.1-0.1,0.3-0.2,0.4-0.3
			c-0.5,0.1-1.1-0.1-1.5-0.4c-1.4-0.9-1.9-3.3-2.8-4.6c-0.4-0.7-1-1.3-1.8-1.7c-0.5-0.3-1.1-0.3-1.6-0.1c-0.1,0-0.2,0-0.2,0.1
			c-0.1,0-0.1,0.1-0.2,0.2c-1.2,0.7-1.9,1.9-2.2,3.5c0,0.1,0,0.2,0,0.3C307.6,73.5,308.2,72.3,309.2,71.8z"/>
		<path class="st38" d="M322.2,74.1c1.2,0.3,1.9,1.2,2.7,2c0.9,0.9,2.1,1.6,2.8,0.1c0.3-0.6,0.5-1.3,0.7-1.9
			c-0.2,0.4-0.5,0.9-0.6,1.3c-0.2,0.4-0.5,0.7-0.8,0.8c-0.9-0.3-1.8-2-2.2-2.5c-0.5-0.8-1.4-1.2-2.4-1.2c-0.9,0-1.6,0.8-2.2,1.8
			C320.8,74.2,321.5,74,322.2,74.1z"/>
		<path class="st38" d="M337.4,69.4c-0.2,0.2-0.5,0.4-0.8,0.5c-0.3,0.2-0.9,0.2-1.1,0.6c-0.2,0.5-0.1,1.2-0.2,1.8
			c-0.1,1.1-0.9,2.7-2.1,2.6c-0.6,0-1-0.4-1.4-0.8c-0.6-0.4-1.1-0.2-1.4,0.3c0.4-0.1,0.9,0.1,1.2,0.4c0.5,0.5,0.8,1,1.5,1
			c0.7-0.1,1.3-0.7,1.8-1.3c0.4-0.6,0.7-1.4,0.7-2.2c0-0.5,0-1,0-1.5v-0.1c0.2-0.1,0.4-0.1,0.6-0.2c0.6-0.3,1.1-0.8,1.4-1.4l0,0
			C337.6,69.2,337.5,69.3,337.4,69.4z"/>
		<path class="st10" d="M318.3,78.6c-0.8,0.2-1.6,0.2-2.4,0c-0.9-0.3-1.8-1.2-2.2-2.2c-0.1-0.2-0.3,0.1-0.3,0.3
			c0.8,2.1,3,3.9,4.9,2.2C318.3,78.8,318.4,78.5,318.3,78.6z"/>
		<path class="st10" d="M325.3,76.7c-0.4-0.4-0.8-0.8-1.3-1.1c-0.4-0.4-0.9-0.6-1.4-0.8c-0.1,0-0.3,0.3-0.2,0.4
			c0.6,0.3,1.1,0.7,1.5,1.2c0.4,0.3,0.7,0.8,1.2,0.8C325.3,77,325.4,76.8,325.3,76.7z"/>
		<path class="st10" d="M334.2,73.2c-0.7,0.6-1.3-0.1-1.9-0.4c-0.4-0.2-0.8-0.3-1.3-0.2c-0.8,0.1-1.4,1-1.7,1.7
			c-0.2,0.3,0.2,0.3,0.3,0.1c0.6-1.1,1.6-1.3,2.5-0.7c0.4,0.2,0.7,0.6,1.2,0.6s1-0.3,1.1-0.8C334.4,73.2,334.3,73.1,334.2,73.2z"/>
		<path class="st10" d="M334.7,70.7L334.7,70.7c-0.1,0-0.2,0.1-0.3,0.2s-0.1,0.2-0.1,0.4c0,0,0,0,0,0.1s0,0.1,0,0.2
			c0,0.2,0.1,0.3,0.3,0.2c0.3-0.1,0.4-0.4,0.5-0.7C335.1,70.9,335,70.6,334.7,70.7z"/>
		<path class="st20" d="M337.6,69c0.1-0.2,0.2-0.4,0.3-0.5c0.2-0.4,0.3-0.8,0.5-1.1c0.7-1.6,1-3.4,0.8-5.1c-0.2-2.3-1.3-4.5-2.5-6.3
			c-2.6-3.9-6.8-5.7-10.9-6.6c-4.4-1-9.1-0.4-13.1,1.6c-3.5,1.7-6.9,4.5-8.4,8.6c-0.7,2.1-0.9,4.4-0.5,6.6c0.2,1.2,0.7,2.4,1.5,3.4
			c0,0-0.1,0.1,0,0.1c1,1.1,2.2,2.1,3.5,2.8c1.4,0.7,2.9,1.3,4.4,1.8c3,1,6.3,1,9.4,0.8c3.1-0.2,6.2-0.9,9.2-2.1
			c1.3-0.6,2.6-1.3,3.7-2.2C336.4,70.2,337,69.6,337.6,69z"/>
		<path class="st39" d="M332.1,52c-4.2-2.4-9.1-3.4-13.9-2.6c-2.4,0.4-4.7,1.3-6.8,2.6c-2,1.2-4,2.7-5.3,4.8c-1.5,2.2-2.2,4.9-2,7.6
			c0.1,1.4,0.4,2.8,1,4c0.5,0.9,1.1,1.6,1.8,2.3c2,1.4,4.1,2.2,6.4,3c2.9,1,6,1.1,9,0.9s6-0.8,8.9-1.8c1.4-0.5,2.7-1.2,4-2.1
			c1-0.7,1.9-1.5,2.7-2.4c0.6-1.3,1.1-2.7,1.2-4.2C339.3,59,335.9,54.2,332.1,52z"/>
		<path class="st39" d="M304.2,65.6c0.1-1.7,0.3-3.3,0.8-4.9c0.6-1.7,1.5-3.2,2.8-4.4c2.8-2.8,6.2-4.9,9.8-5.7
			c3.6-0.8,7.6-1,11.1,0.1c1.7,0.5,3.3,1.3,4.8,2.2c0.1,0,0.1,0.1,0.2,0.1c-0.5-0.4-1-0.8-1.6-1.1c-4.2-2.4-9.1-3.4-13.9-2.6
			c-2.4,0.4-4.7,1.3-6.8,2.6c-2,1.2-4,2.7-5.3,4.8c-1.5,2.2-2.2,4.9-2,7.6C304,64.8,304.1,65.2,304.2,65.6z"/>
		<path class="st40" d="M332.1,52c-2.1-1.2-4.4-2-6.7-2.5c1.8,0.6,3.4,1.5,4.9,2.6c1.8,1.4,3.4,3.6,3.2,6.4
			c-0.4,6.4-7.6,8.9-12.2,9.7c-2.3,0.4-4.7,0.3-7-0.2c-2.4-0.6-5.3-1.5-7-3.8c-1.8-2.5-1.2-5.6,0.2-8.1c0.4-0.7,0.8-1.4,1.3-2
			c-1,0.8-1.9,1.8-2.6,2.9c-1.5,2.2-2.2,4.9-2,7.6c0.1,1.4,0.4,2.8,1,4c0.5,0.9,1.1,1.6,1.8,2.3c2,1.4,4.1,2.2,6.4,3
			c2.9,1,6,1.1,9,0.9s6-0.8,8.9-1.8c1.4-0.5,2.7-1.2,4-2.1c1-0.7,1.9-1.5,2.7-2.4c0.6-1.3,1.1-2.7,1.2-4.2
			C339.3,59,335.9,54.2,332.1,52z"/>
		<path class="st40" d="M333.4,52.9c0.4,0.5,0.7,1,1,1.6c0.8,1.3,1.3,2.7,1.6,4.2c0.3,2.7-0.4,5.3-2,7.5c-2.6,3.3-6.5,4.4-10.2,4.8
			c-2.1,0.2-4.2,0.3-6.4,0.2c-1.8,0-3.6-0.3-5.4-0.8c-3.1-1-6.5-3.5-7.4-7.3c-0.2-1.1-0.3-2.2-0.2-3.2c-0.5,1.5-0.7,3-0.6,4.6
			c0.1,1.4,0.4,2.8,1,4c0.5,0.9,1.1,1.6,1.8,2.3c2,1.4,4.1,2.2,6.4,3c2.9,1,6,1.1,9,0.9s6-0.8,8.9-1.8c1.4-0.5,2.7-1.2,4-2.1
			c1-0.7,1.9-1.5,2.7-2.4c0.6-1.3,1.1-2.7,1.2-4.2C339.3,59.6,336.7,55.4,333.4,52.9z"/>
		<path class="st10" d="M322.7,57.8c-0.3,0-0.4,0.4-0.4,0.9V59c0,0.2,0,0.5,0.2,0.5s0.3-0.4,0.4-0.6
			C322.9,58.6,323.1,57.8,322.7,57.8z"/>
		<path class="st10" d="M319.7,56.2c-0.2-0.1-0.5,0.2-0.6,0.4c-0.1,0.1-0.2,0.3-0.2,0.4c0,0.2,0.5-0.1,0.6-0.2
			C319.6,56.8,319.9,56.3,319.7,56.2z"/>
		<path class="st10" d="M315.3,55.5c0,0-0.1,0-0.2,0H315c-0.1,0-0.1,0-0.2,0.1l0,0c-0.2,0-0.3,0.1-0.4,0.3l-0.1,0.1
			c-0.1,0.1-0.1,0.2,0,0.3c0,0,0,0,0.1,0c0.1,0.1,0.4,0,0.5,0c0.2-0.1,0.4-0.2,0.5-0.3C315.5,55.7,315.4,55.6,315.3,55.5z"/>
		<path class="st10" d="M320.7,60L320.7,60L320.7,60c-0.1,0-0.2,0-0.3,0c-0.1,0.2-0.2,0.4-0.2,0.6s0,0.4,0.2,0.4s0.3-0.3,0.4-0.4
			C320.8,60.4,320.8,60.1,320.7,60z"/>
		<path class="st10" d="M326.7,59.4c0-0.2-0.2-0.6-0.4-0.5c-0.1,0-0.2,0.1-0.2,0.2v0.1c0,0.1,0,0.3,0,0.4s0.1,0.2,0.2,0.4
			c0.1,0.1,0.1,0.2,0.2,0.3c0.1,0,0.2,0,0.2-0.1l0,0C326.8,60,326.8,59.7,326.7,59.4z"/>
		<path class="st10" d="M328.4,57.6L328.4,57.6C328.4,57.5,328.4,57.5,328.4,57.6L328.4,57.6c-0.2,0-0.3,0.2-0.2,0.2
			c0,0.2,0,0.4,0.2,0.4c0.1,0,0.2-0.1,0.2-0.2C328.5,57.9,328.5,57.7,328.4,57.6z"/>
		<path class="st10" d="M330.2,56.5L330.2,56.5C330.2,56.5,330.1,56.5,330.2,56.5c-0.1-0.1-0.3,0-0.2,0.1c0.1,0.2,0.3,0.6,0.5,0.6
			c0.1,0,0.2-0.1,0.2-0.2C330.6,57,330.5,56.4,330.2,56.5z"/>
		<path class="st10" d="M325.2,55.7c0-0.1-0.2,0.1-0.2,0.2c0,0.2,0.1,0.5,0.3,0.4C325.5,56.1,325.4,55.6,325.2,55.7z"/>
		<path class="st10" d="M319,53.7C318.9,53.7,318.9,53.7,319,53.7c-0.1,0-0.1,0-0.2,0s-0.2,0.1-0.3,0.2l-0.1,0.2
			c0.1,0.2,0.4,0,0.6-0.1C319,53.9,319.1,53.7,319,53.7z"/>
		<path class="st10" d="M316.1,57.7c-0.1,0-0.2,0-0.3,0.1c-0.3,0.1-0.6,0.4-0.5,0.6l0,0c0.1,0,0.2,0,0.3-0.1s0.2-0.1,0.2-0.2
			C316.1,58.1,316.2,57.9,316.1,57.7C316.2,57.7,316.2,57.7,316.1,57.7z"/>
		<path class="st10" d="M312.7,54.8c0.1,0,0.1-0.2,0-0.2c-0.2,0.1-0.3,0.2-0.4,0.4v0.1c0.1,0.1,0.2,0,0.2,0
			C312.6,55.1,312.6,55,312.7,54.8L312.7,54.8C312.7,54.9,312.7,54.9,312.7,54.8z"/>
		<path class="st10" d="M318.4,62.7C318.4,62.7,318.3,62.7,318.4,62.7c-0.2,0-0.2,0-0.3,0.2c-0.2,0.2-0.3,0.5-0.2,0.8l0,0
			C318.3,63.7,318.5,63,318.4,62.7z"/>
		<path class="st10" d="M323.2,62.6c-0.1,0-0.1,0-0.2,0c-0.1,0.1-0.2,0.2-0.2,0.3l0,0c0,0.1,0,0.3,0.1,0.4s0.2-0.1,0.2-0.2V63
			C323.3,62.8,323.4,62.6,323.2,62.6z"/>
		<path class="st10" d="M327.3,62.9c0-0.1-0.1-0.1-0.1-0.2l0,0c0,0,0-0.1,0,0l0,0c0-0.1,0-0.1-0.1-0.1c-0.2-0.1-0.2,0.2-0.2,0.4
			s0.1,0.5,0.3,0.6c0.1,0,0.2,0,0.2-0.1C327.4,63.2,327.4,63.1,327.3,62.9z"/>
		<path class="st10" d="M329.9,61.8L329.9,61.8C329.9,61.7,329.9,61.7,329.9,61.8c-0.2-0.2-0.4,0.1-0.3,0.2l0,0l0,0
			c0,0.1,0.1,0.2,0.2,0.2s0.1-0.1,0.2-0.1C330,62,330,61.9,329.9,61.8z"/>
		<path class="st10" d="M331.4,58.7L331.4,58.7C331.4,58.6,331.3,58.6,331.4,58.7L331.4,58.7c-0.2-0.2-0.3,0.1-0.3,0.1l0,0
			c0,0.1,0,0.2,0.1,0.2l0,0c0.1,0,0.2,0,0.2-0.1C331.4,58.9,331.5,58.8,331.4,58.7z"/>
		<path class="st10" d="M313.8,60c-0.1-0.1-0.2-0.2-0.4-0.1c0,0-0.1,0.1-0.2,0.1l0,0c-0.1,0.1-0.2,0.2-0.2,0.4
			c0,0.3,0.4,0.2,0.6,0.1c0.1,0,0.2-0.1,0.2-0.2C313.7,60.2,313.8,60,313.8,60z"/>
		<path class="st10" d="M313.6,64.5L313.6,64.5c0-0.2-0.2-0.1-0.3,0c-0.1,0-0.1,0.2-0.2,0.2c0,0.2,0.1,0.2,0.2,0.2
			C313.5,64.9,313.6,64.7,313.6,64.5L313.6,64.5z"/>
	</g>
</g>
<g>
</g>
</svg>
